<?xml version="1.0" encoding="utf-8"?>
<!-- Generator: Adobe Illustrator 17.0.0, SVG Export Plug-In . SVG Version: 6.00 Build 0)  -->
<!DOCTYPE svg PUBLIC "-//W3C//DTD SVG 1.1//EN" "http://www.w3.org/Graphics/SVG/1.1/DTD/svg11.dtd">
<svg version="1.1" id="Слой_1" xmlns="http://www.w3.org/2000/svg" xmlns:xlink="http://www.w3.org/1999/xlink" x="0px" y="0px"
	 width="30px" height="28px" viewBox="0 0 30 28" enable-background="new 0 0 30 28" xml:space="preserve">
<g>
	<path fill="#0495D4" d="M24.947,2.617c-0.116,0-0.218-0.044-0.305-0.131c-0.087-0.087-0.131-0.189-0.131-0.305
		s0.044-0.218,0.131-0.305c0.087-0.087,0.189-0.131,0.305-0.131h3.722c0.291,0,0.543,0.097,0.756,0.291
		c0.213,0.194,0.33,0.533,0.349,1.018v4.39c0,0.116-0.044,0.218-0.131,0.305c-0.087,0.087-0.189,0.131-0.305,0.131H0.436
		c-0.116,0-0.218-0.044-0.305-0.131S0,7.56,0,7.443v-4.39c0-0.368,0.126-0.678,0.378-0.93s0.562-0.378,0.93-0.378h3.518
		c0.116,0,0.218,0.044,0.305,0.131c0.087,0.087,0.131,0.189,0.131,0.305S5.219,2.399,5.132,2.486
		C5.045,2.573,4.943,2.617,4.827,2.617H1.308c-0.116,0-0.218,0.044-0.305,0.131C0.916,2.835,0.872,2.937,0.872,3.053v3.954h28.029
		V3.053c0-0.213-0.024-0.339-0.073-0.378c-0.048-0.039-0.102-0.058-0.16-0.058h-1.861C25.722,2.617,25.102,2.617,24.947,2.617z
		 M29.774,26.692c0,0.368-0.126,0.678-0.378,0.93C29.144,27.874,28.834,28,28.465,28H1.308c-0.368,0-0.678-0.126-0.93-0.378
		C0.126,27.37,0,27.06,0,26.692V10.06c0-0.116,0.044-0.218,0.131-0.305C0.218,9.668,0.32,9.624,0.436,9.624s0.218,0.044,0.305,0.131
		c0.087,0.087,0.131,0.189,0.131,0.305v16.631c0,0.136,0.044,0.242,0.131,0.32c0.087,0.078,0.189,0.116,0.305,0.116h27.157
		c0.116,0,0.218-0.039,0.305-0.116c0.087-0.078,0.131-0.184,0.131-0.32V10.06c0-0.116,0.044-0.218,0.131-0.305
		c0.087-0.087,0.189-0.131,0.305-0.131c0.116,0,0.218,0.044,0.305,0.131c0.087,0.087,0.131,0.189,0.131,0.305v8.316
		C29.774,23.241,29.774,26.013,29.774,26.692z M3.954,20.12h1.308v-4.361H3.954c-0.136,0-0.242-0.044-0.32-0.131
		c-0.078-0.087-0.116-0.194-0.116-0.32c0-0.126,0.039-0.228,0.116-0.305c0.078-0.078,0.184-0.116,0.32-0.116h1.308v-3.954
		c0-0.116,0.039-0.218,0.116-0.305c0.078-0.087,0.179-0.131,0.305-0.131s0.233,0.044,0.32,0.131
		c0.087,0.087,0.131,0.189,0.131,0.305v3.954h5.263v-3.954c0-0.116,0.039-0.218,0.116-0.305c0.078-0.087,0.179-0.131,0.305-0.131
		c0.126,0,0.228,0.044,0.305,0.131c0.078,0.087,0.126,0.189,0.145,0.305v3.954h5.234v-3.954c0.019-0.116,0.068-0.218,0.145-0.305
		c0.078-0.087,0.179-0.131,0.305-0.131s0.228,0.044,0.305,0.131c0.078,0.087,0.116,0.189,0.116,0.305v3.954h5.263v-3.954
		c0-0.116,0.044-0.218,0.131-0.305c0.087-0.087,0.194-0.131,0.32-0.131s0.228,0.044,0.305,0.131
		c0.078,0.087,0.116,0.189,0.116,0.305v3.954h1.308c0.136,0,0.242,0.039,0.32,0.116c0.078,0.078,0.116,0.179,0.116,0.305
		c0,0.126-0.039,0.233-0.116,0.32c-0.078,0.087-0.184,0.131-0.32,0.131h-1.308v4.361h1.308c0.136,0.019,0.242,0.068,0.32,0.145
		s0.116,0.179,0.116,0.305c0,0.126-0.039,0.228-0.116,0.305s-0.184,0.126-0.32,0.145h-1.308v3.053c0,0.116-0.039,0.218-0.116,0.305
		s-0.179,0.131-0.305,0.131s-0.233-0.044-0.32-0.131s-0.131-0.189-0.131-0.305v-3.053h-5.263v3.053c0,0.116-0.039,0.218-0.116,0.305
		s-0.179,0.131-0.305,0.131s-0.228-0.044-0.305-0.131s-0.126-0.189-0.145-0.305v-3.053H12.27v3.053
		c-0.019,0.116-0.068,0.218-0.145,0.305s-0.179,0.131-0.305,0.131c-0.126,0-0.228-0.044-0.305-0.131s-0.116-0.189-0.116-0.305
		v-3.053H6.135v3.053c0,0.116-0.044,0.218-0.131,0.305s-0.194,0.131-0.32,0.131s-0.228-0.044-0.305-0.131
		c-0.078-0.087-0.116-0.189-0.116-0.305v-3.053H3.954c-0.136-0.019-0.242-0.068-0.32-0.145c-0.078-0.078-0.116-0.179-0.116-0.305
		c0-0.126,0.039-0.228,0.116-0.305C3.712,20.188,3.819,20.14,3.954,20.12z M6.135,15.759v4.361h5.263v-4.361H8.752
		C7.22,15.759,6.348,15.759,6.135,15.759z M7.88,3.925c0,0.136-0.044,0.242-0.131,0.32C7.661,4.323,7.56,4.361,7.443,4.361
		c-0.116,0-0.218-0.039-0.305-0.116c-0.087-0.078-0.131-0.184-0.131-0.32V0.436c0-0.136,0.044-0.242,0.131-0.32S7.327,0,7.443,0
		C7.56,0,7.661,0.039,7.749,0.116S7.88,0.3,7.88,0.436v1.745C7.88,3.208,7.88,3.79,7.88,3.925z M19.713,2.617H10.06
		c-0.116,0-0.218-0.044-0.305-0.131C9.668,2.399,9.624,2.297,9.624,2.181s0.044-0.218,0.131-0.305
		c0.087-0.087,0.189-0.131,0.305-0.131h9.653c0.116,0,0.218,0.044,0.305,0.131c0.087,0.087,0.131,0.189,0.131,0.305
		s-0.044,0.218-0.131,0.305C19.931,2.573,19.83,2.617,19.713,2.617z M17.504,15.759H12.27v4.361h5.234V17.94
		C17.504,16.66,17.504,15.934,17.504,15.759z M23.639,15.759h-5.263v4.361h5.263V17.94C23.639,16.66,23.639,15.934,23.639,15.759z
		 M22.33,4.361c-0.116,0-0.218-0.039-0.305-0.116c-0.087-0.078-0.131-0.184-0.131-0.32V0.436c0-0.136,0.044-0.242,0.131-0.32
		C22.112,0.039,22.214,0,22.33,0c0.116,0,0.218,0.039,0.305,0.116c0.087,0.078,0.131,0.184,0.131,0.32v3.489
		c0,0.136-0.044,0.242-0.131,0.32C22.548,4.323,22.447,4.361,22.33,4.361z"/>
</g>
</svg>
