<?xml version="1.0" encoding="utf-8"?>
<!-- Generator: Adobe Illustrator 17.0.0, SVG Export Plug-In . SVG Version: 6.00 Build 0)  -->
<!DOCTYPE svg PUBLIC "-//W3C//DTD SVG 1.1//EN" "http://www.w3.org/Graphics/SVG/1.1/DTD/svg11.dtd">
<svg version="1.1" id="Слой_1" xmlns="http://www.w3.org/2000/svg" xmlns:xlink="http://www.w3.org/1999/xlink" x="0px" y="0px"
	 width="38.4px" height="24px" viewBox="0 0 38.4 24" enable-background="new 0 0 38.4 24" xml:space="preserve">
<path fill="#FF9900" d="M38.4,22.72c0,0.707-0.573,1.28-1.28,1.28H1.28C0.573,24,0,23.427,0,22.72V1.28C0,0.573,0.573,0,1.28,0
	h35.84c0.707,0,1.28,0.573,1.28,1.28V22.72z"/>
<g>
	<g>
		<path fill-rule="evenodd" clip-rule="evenodd" fill="#231F20" d="M21.97,14.435c-1.337,0.987-3.275,1.511-4.944,1.511
			c-2.339,0-4.445-0.864-6.039-2.304c-0.125-0.113-0.014-0.267,0.137-0.18c1.72,1.001,3.846,1.603,6.042,1.603
			c1.482,0,3.111-0.307,4.61-0.943C22.001,14.027,22.191,14.272,21.97,14.435z"/>
		<path fill-rule="evenodd" clip-rule="evenodd" fill="#231F20" d="M22.526,13.8c-0.171-0.219-1.131-0.104-1.561-0.052
			c-0.13,0.016-0.151-0.098-0.033-0.181c0.765-0.537,2.019-0.382,2.165-0.202c0.147,0.181-0.038,1.438-0.756,2.039
			c-0.11,0.092-0.215,0.043-0.166-0.079C22.336,14.922,22.697,14.02,22.526,13.8z"/>
	</g>
	<path fill-rule="evenodd" clip-rule="evenodd" fill="#231F20" d="M20.995,9.77V9.248c0.001-0.08,0.06-0.132,0.133-0.132l2.341,0
		c0.075,0,0.135,0.055,0.135,0.132l-0.001,0.447c-0.001,0.075-0.063,0.174-0.176,0.329l-1.212,1.731
		c0.45-0.011,0.926,0.057,1.335,0.287c0.092,0.051,0.117,0.128,0.124,0.204v0.558c0,0.076-0.084,0.165-0.172,0.119
		c-0.72-0.377-1.677-0.419-2.473,0.005c-0.081,0.044-0.167-0.044-0.167-0.121v-0.53c0-0.084,0.002-0.229,0.087-0.359l1.405-2.015
		l-1.223,0C21.056,9.902,20.995,9.849,20.995,9.77z"/>
	<path fill-rule="evenodd" clip-rule="evenodd" fill="#231F20" d="M12.457,13.032h-0.713c-0.067-0.004-0.122-0.055-0.127-0.12V9.257
		c0-0.073,0.062-0.132,0.138-0.132l0.663,0c0.07,0.004,0.126,0.056,0.13,0.123v0.477h0.013c0.173-0.462,0.499-0.677,0.937-0.677
		c0.446,0,0.725,0.215,0.924,0.677c0.173-0.462,0.565-0.677,0.984-0.677c0.3,0,0.625,0.123,0.825,0.4
		c0.226,0.308,0.179,0.754,0.179,1.146l-0.001,2.307c0,0.073-0.062,0.132-0.138,0.132h-0.711c-0.072-0.005-0.127-0.061-0.127-0.131
		l-0.001-1.937c0-0.154,0.013-0.538-0.02-0.685c-0.054-0.246-0.213-0.315-0.419-0.315c-0.173,0-0.352,0.115-0.425,0.3
		c-0.074,0.184-0.067,0.492-0.067,0.7v1.937c0,0.073-0.061,0.132-0.137,0.132h-0.712c-0.071-0.005-0.128-0.061-0.128-0.131
		l-0.001-1.937c0-0.408,0.066-1.007-0.438-1.007c-0.512,0-0.492,0.584-0.492,1.007l-0.001,1.937
		C12.594,12.974,12.533,13.032,12.457,13.032z"/>
	<path fill-rule="evenodd" clip-rule="evenodd" fill="#231F20" d="M25.618,9.048c1.058,0,1.629,0.908,1.629,2.062
		c0,1.115-0.631,2-1.629,2c-1.037,0-1.602-0.908-1.602-2.038C24.016,9.933,24.588,9.048,25.618,9.048z M25.625,9.795
		c-0.526,0-0.558,0.715-0.558,1.161c0,0.446-0.007,1.4,0.551,1.4c0.552,0,0.579-0.769,0.579-1.238c0-0.308-0.013-0.677-0.107-0.97
		C26.01,9.894,25.851,9.795,25.625,9.795z"/>
	<path fill-rule="evenodd" clip-rule="evenodd" fill="#231F20" d="M28.618,13.032h-0.71c-0.071-0.005-0.128-0.061-0.128-0.131
		L27.78,9.245c0.006-0.067,0.065-0.119,0.136-0.119l0.661,0c0.062,0.003,0.114,0.046,0.127,0.102v0.559h0.013
		c0.2-0.5,0.478-0.738,0.97-0.738c0.319,0,0.631,0.115,0.831,0.431c0.186,0.292,0.186,0.784,0.186,1.138v2.3
		c-0.008,0.065-0.066,0.115-0.136,0.115h-0.714c-0.066-0.004-0.119-0.053-0.127-0.115v-1.984c0-0.4,0.047-0.985-0.445-0.985
		c-0.173,0-0.332,0.115-0.412,0.292c-0.1,0.223-0.114,0.446-0.114,0.692v1.968C28.755,12.974,28.693,13.032,28.618,13.032z"/>
	<path fill-rule="evenodd" clip-rule="evenodd" fill="#231F20" d="M19.129,11.287c0,0.278,0.007,0.509-0.133,0.756
		c-0.114,0.2-0.293,0.324-0.493,0.324c-0.273,0-0.434-0.208-0.434-0.516c0-0.607,0.544-0.717,1.06-0.717V11.287z M19.847,13.023
		c-0.048,0.042-0.115,0.045-0.169,0.016c-0.236-0.196-0.279-0.288-0.408-0.475c-0.391,0.399-0.668,0.518-1.174,0.518
		c-0.599,0-1.066-0.37-1.066-1.11c0-0.578,0.313-0.971,0.759-1.164c0.387-0.169,0.926-0.2,1.339-0.246V10.47
		c0-0.17,0.013-0.37-0.087-0.516c-0.087-0.131-0.253-0.185-0.4-0.185c-0.271,0-0.513,0.139-0.572,0.428
		c-0.013,0.064-0.059,0.128-0.124,0.131l-0.691-0.075c-0.057-0.013-0.123-0.06-0.105-0.149c0.158-0.837,0.915-1.09,1.592-1.09
		c0.347,0,0.8,0.093,1.073,0.355c0.347,0.323,0.313,0.755,0.313,1.225v1.109c0,0.334,0.139,0.48,0.269,0.66
		c0.045,0.065,0.055,0.142-0.002,0.189c-0.145,0.122-0.404,0.347-0.547,0.473L19.847,13.023z"/>
	<path fill-rule="evenodd" clip-rule="evenodd" fill="#231F20" d="M9.794,11.287c0,0.278,0.007,0.509-0.133,0.756
		c-0.114,0.2-0.294,0.324-0.493,0.324c-0.273,0-0.434-0.208-0.434-0.516c0-0.607,0.545-0.717,1.06-0.717V11.287z M10.512,13.023
		c-0.047,0.042-0.115,0.045-0.169,0.016c-0.236-0.196-0.279-0.288-0.408-0.475c-0.391,0.399-0.668,0.518-1.174,0.518
		c-0.6,0-1.066-0.37-1.066-1.11c0-0.578,0.313-0.971,0.759-1.164c0.386-0.169,0.926-0.2,1.339-0.246V10.47
		c0-0.17,0.013-0.37-0.087-0.516C9.62,9.822,9.454,9.768,9.308,9.768c-0.272,0-0.513,0.139-0.572,0.428
		c-0.013,0.064-0.06,0.128-0.124,0.131l-0.689-0.075c-0.059-0.013-0.124-0.06-0.107-0.149c0.159-0.837,0.915-1.09,1.593-1.09
		c0.346,0,0.799,0.093,1.073,0.355c0.346,0.323,0.313,0.755,0.313,1.225v1.109c0,0.334,0.139,0.48,0.269,0.66
		c0.045,0.065,0.056,0.142-0.002,0.189c-0.145,0.122-0.404,0.347-0.546,0.473L10.512,13.023z"/>
</g>
</svg>
