<?xml version="1.0" encoding="utf-8"?>
<!-- Generator: Adobe Illustrator 17.0.0, SVG Export Plug-In . SVG Version: 6.00 Build 0)  -->
<!DOCTYPE svg PUBLIC "-//W3C//DTD SVG 1.1//EN" "http://www.w3.org/Graphics/SVG/1.1/DTD/svg11.dtd">
<svg version="1.1" id="Слой_1" xmlns="http://www.w3.org/2000/svg" xmlns:xlink="http://www.w3.org/1999/xlink" x="0px" y="0px"
	 width="17px" height="28px" viewBox="0 0 17 28" enable-background="new 0 0 17 28" xml:space="preserve">
<g>
	<path fill="#0495D4" d="M1.5,28c-0.365-0.018-0.67-0.15-0.916-0.396c-0.246-0.246-0.378-0.551-0.397-0.916V1.313
		c0.018-0.365,0.15-0.67,0.397-0.916S1.135,0.018,1.5,0H15.5c0.365,0.018,0.67,0.15,0.916,0.397s0.378,0.551,0.396,0.916v25.375
		c-0.018,0.365-0.15,0.67-0.396,0.916C16.17,27.85,15.865,27.982,15.5,28h-7C4.417,28,2.083,28,1.5,28z M1.062,1.313v25.375
		c0,0.128,0.041,0.232,0.123,0.314c0.082,0.082,0.187,0.123,0.314,0.123H15.5c0.128,0,0.232-0.041,0.314-0.123
		c0.082-0.082,0.123-0.187,0.123-0.314V1.313c0-0.128-0.041-0.232-0.123-0.314c-0.082-0.082-0.187-0.123-0.314-0.123H1.5
		c-0.128,0-0.232,0.041-0.314,0.123S1.062,1.185,1.062,1.313z M2.375,23.625c-0.128,0-0.232-0.041-0.314-0.123
		s-0.123-0.187-0.123-0.314V4.813c0-0.128,0.041-0.232,0.123-0.314s0.187-0.123,0.314-0.123h12.25c0.128,0,0.232,0.041,0.314,0.123
		c0.082,0.082,0.123,0.187,0.123,0.314v18.375c0,0.128-0.041,0.232-0.123,0.314c-0.082,0.082-0.187,0.123-0.314,0.123H8.5
		C4.927,23.625,2.885,23.625,2.375,23.625z M2.812,5.25v17.5h11.375V5.25H8.5C5.182,5.25,3.286,5.25,2.812,5.25z M6.75,3.5
		c-0.128,0-0.232-0.041-0.314-0.123S6.312,3.19,6.312,3.063c0-0.128,0.041-0.232,0.123-0.314S6.622,2.625,6.75,2.625h3.5
		c0.128,0,0.232,0.041,0.314,0.123c0.082,0.082,0.123,0.187,0.123,0.314c0,0.128-0.041,0.232-0.123,0.314
		C10.483,3.459,10.378,3.5,10.25,3.5H8.5C7.479,3.5,6.896,3.5,6.75,3.5z M8.062,25.375c0-0.255,0.082-0.465,0.246-0.629
		C8.473,24.582,8.682,24.5,8.938,24.5c0.255,0,0.465,0.082,0.629,0.246c0.164,0.164,0.246,0.374,0.246,0.629
		s-0.082,0.465-0.246,0.629c-0.164,0.164-0.374,0.246-0.629,0.246c-0.255,0-0.465-0.082-0.629-0.246
		C8.145,25.84,8.062,25.63,8.062,25.375z"/>
</g>
</svg>
