<?xml version="1.0" encoding="utf-8"?>
<!-- Generator: Adobe Illustrator 17.0.0, SVG Export Plug-In . SVG Version: 6.00 Build 0)  -->
<!DOCTYPE svg PUBLIC "-//W3C//DTD SVG 1.1//EN" "http://www.w3.org/Graphics/SVG/1.1/DTD/svg11.dtd">
<svg version="1.1" id="Слой_1" xmlns="http://www.w3.org/2000/svg" xmlns:xlink="http://www.w3.org/1999/xlink" x="0px" y="0px"
	 width="40px" height="32px" viewBox="0 0 40 32" enable-background="new 0 0 40 32" xml:space="preserve">
<path fill-rule="evenodd" clip-rule="evenodd" fill="#323A45" d="M37.618,17.851c-0.04,0.361-0.11,0.728-0.212,1.099l-2.409,8.757
	C34.306,30.212,31.683,32,29.131,32H11.209c-2.551,0-5.152-1.787-5.811-4.294L3.1,18.95c-0.084-0.318-0.143-0.635-0.182-0.947
	c-1.514-0.281-2.667-1.707-2.667-3.425c0-1.92,1.44-3.477,3.215-3.477h4.335c-0.07,0.972,0.263,1.967,0.999,2.709
	c1.347,1.358,3.53,1.358,4.876,0l2.687-2.709h6.513l2.535,2.556c1.347,1.358,3.53,1.358,4.876,0
	c0.697-0.704,1.033-1.634,1.008-2.556h5.238c1.775,0,3.215,1.557,3.215,3.477C39.748,16.086,38.86,17.37,37.618,17.851
	L37.618,17.851z M14.153,26.041l-2.008-7.064c-0.247-0.867-1.192-1.381-2.111-1.149c-0.92,0.233-1.465,1.123-1.22,1.991l2.008,7.064
	c0.247,0.867,1.192,1.381,2.111,1.149C13.853,27.799,14.399,26.908,14.153,26.041L14.153,26.041z M21.721,19.274
	c0-0.897-0.772-1.625-1.724-1.625c-0.952,0-1.724,0.728-1.724,1.625v7.313c0,0.897,0.772,1.625,1.724,1.625
	c0.952,0,1.724-0.728,1.724-1.625V19.274L21.721,19.274z M30.144,17.828c-0.919-0.232-1.865,0.282-2.111,1.149l-2.008,7.064
	c-0.247,0.867,0.299,1.758,1.219,1.991c0.92,0.232,1.865-0.282,2.111-1.149l2.008-7.064C31.609,18.952,31.064,18.061,30.144,17.828
	L30.144,17.828z M26.437,12.664L19.74,5.912l-6.694,6.749c-0.842,0.848-2.206,0.848-3.048,0c-0.842-0.848-0.842-2.224,0-3.072
	l7.289-7.349C17.395,0.985,18.438,0,19.711,0c1.001,0,1.861,0.61,2.234,1.481c0.128,0.237,0.211,0.493,0.245,0.755l7.295,7.355
	c0.842,0.848,0.842,2.225,0,3.073C28.643,13.512,27.279,13.512,26.437,12.664L26.437,12.664z"/>
</svg>
