<?xml version="1.0" encoding="utf-8"?>
<!-- Generator: Adobe Illustrator 17.0.0, SVG Export Plug-In . SVG Version: 6.00 Build 0)  -->
<!DOCTYPE svg PUBLIC "-//W3C//DTD SVG 1.1//EN" "http://www.w3.org/Graphics/SVG/1.1/DTD/svg11.dtd">
<svg version="1.1" id="Слой_1" xmlns="http://www.w3.org/2000/svg" xmlns:xlink="http://www.w3.org/1999/xlink" x="0px" y="0px"
	 width="16px" height="12.963px" viewBox="0 0 16 12.963" enable-background="new 0 0 16 12.963" xml:space="preserve">
<path fill="#FFFFFF" d="M15.137,7.231c-0.016,0.146-0.045,0.295-0.086,0.445l-0.976,3.547c-0.28,1.015-1.342,1.739-2.376,1.739
	h-7.26c-1.033,0-2.087-0.724-2.354-1.739L1.154,7.677C1.12,7.548,1.096,7.419,1.08,7.293C0.467,7.179,0,6.601,0,5.905
	c0-0.778,0.583-1.409,1.302-1.409h1.756C3.03,4.891,3.165,5.294,3.463,5.594c0.546,0.55,1.43,0.55,1.975,0l1.088-1.097h2.638
	l1.027,1.035c0.546,0.55,1.43,0.55,1.975,0c0.282-0.285,0.418-0.662,0.408-1.035h2.122C15.417,4.497,16,5.128,16,5.905
	C16,6.516,15.64,7.036,15.137,7.231L15.137,7.231z M5.632,10.549L4.818,7.687c-0.1-0.351-0.483-0.559-0.855-0.465
	C3.59,7.316,3.37,7.677,3.469,8.029l0.813,2.862c0.1,0.351,0.483,0.559,0.855,0.465C5.51,11.261,5.731,10.9,5.632,10.549
	L5.632,10.549z M8.697,7.808c0-0.363-0.313-0.658-0.698-0.658c-0.386,0-0.698,0.295-0.698,0.658v2.962
	c0,0.363,0.313,0.658,0.698,0.658c0.386,0,0.698-0.295,0.698-0.658V7.808L8.697,7.808z M12.109,7.222
	c-0.372-0.094-0.755,0.114-0.855,0.465l-0.813,2.862c-0.1,0.351,0.121,0.712,0.494,0.807c0.373,0.094,0.755-0.114,0.855-0.465
	l0.813-2.862C12.703,7.677,12.482,7.316,12.109,7.222L12.109,7.222z M10.608,5.13L7.895,2.395L5.183,5.129
	c-0.341,0.344-0.894,0.344-1.235,0s-0.341-0.901,0-1.244l2.953-2.977C6.945,0.399,7.367,0,7.883,0c0.405,0,0.754,0.247,0.905,0.6
	C8.84,0.696,8.874,0.8,8.887,0.906l2.955,2.979c0.341,0.344,0.341,0.901,0,1.245C11.501,5.474,10.949,5.474,10.608,5.13L10.608,5.13
	z"/>
</svg>
