<?xml version="1.0" encoding="utf-8"?>
<!-- Generator: Adobe Illustrator 18.0.0, SVG Export Plug-In . SVG Version: 6.00 Build 0)  -->
<!DOCTYPE svg PUBLIC "-//W3C//DTD SVG 1.1//EN" "http://www.w3.org/Graphics/SVG/1.1/DTD/svg11.dtd">
<svg version="1.1" id="Слой_1" xmlns="http://www.w3.org/2000/svg" xmlns:xlink="http://www.w3.org/1999/xlink" x="0px" y="0px"
	 viewBox="-14 30 28 50" enable-background="new -14 30 28 50" xml:space="preserve">
<g>
	<g>
		<path fill="#FFFFFF" d="M-13.7,69.3c0-1.6,0.4-3.1,1-4.3c0.6-1.2,1.6-2.2,2.8-2.8c1.2-0.6,2.7-1,4.3-1s3.1,0.4,4.7,1l-0.8,1.8
			c-1.4-0.6-2.7-1-4.1-1c-1.8,0-3.3,0.6-4.3,1.8c-1,1.2-1.6,2.8-1.6,4.5c0,2.2,0.6,3.7,1.6,4.7c1,1,2.6,1.6,4.3,1.6
			c1,0,2.2-0.2,3.1-0.4v-4.7h-3.3v-1.8h5.3v7.7c-0.8,0.6-1.6,0.8-2.6,0.8c-0.8,0.2-1.8,0.2-2.9,0.2c-2.4,0-4.1-0.8-5.5-2.2
			C-13,73.8-13.7,71.8-13.7,69.3z"/>
		<path fill="#FFFFFF" d="M2.9,77.1V61.6h4.5c2.2,0,3.5,0.4,4.5,1s1.4,1.6,1.4,2.9c0,1-0.2,1.8-0.8,2.4c-0.6,0.6-1.2,1-2.2,1.2v0.2
			c1.2,0.2,2.2,0.6,2.6,1.2c0.4,0.6,0.8,1.4,0.8,2.6c0,1.4-0.4,2.6-1.4,3.3c-1,0.8-2.4,1.2-3.9,1.2L2.9,77.1L2.9,77.1z M4.9,68.1
			h2.9c1.2,0,2.2-0.2,2.7-0.6c0.6-0.4,0.8-1,0.8-2c0-0.8-0.4-1.4-1-1.8c-0.6-0.4-1.6-0.6-2.9-0.6H4.9V68.1L4.9,68.1z M4.9,75.5h3.1
			c1.2,0,2.2-0.2,2.7-0.8c0.6-0.6,1-1.2,1-2.2c0-1-0.4-1.6-1-2S9.2,70,7.9,70H4.9V75.5z"/>
	</g>
	<g>
		<polyline fill="#FFEC00" points="1.2,34.7 0.2,35.3 0.4,36.4 -0.4,35.7 -1.4,36.4 -1.2,35.3 -2.2,34.7 -0.8,34.7 -0.4,33.5 
			0,34.7 1.2,34.7 		"/>
		<polyline fill="#FFEC00" points="1.2,54.5 0.2,55.1 0.4,56.3 -0.4,55.7 -1.4,56.3 -1.2,55.1 -2.2,54.5 -0.8,54.5 -0.4,53.3 
			0,54.5 1.2,54.5 		"/>
		<polyline fill="#FFEC00" points="-8.8,44.5 -9.8,45.3 -9.4,46.3 -10.4,45.7 -11.4,46.3 -11,45.3 -12,44.5 -10.8,44.5 -10.4,43.3 
			-10,44.5 -8.8,44.5 		"/>
		<polyline fill="#FFEC00" points="-7.3,39.4 -8.4,40.2 -8.1,41.4 -9,40.6 -10,41.4 -9.6,40.2 -10.6,39.4 -9.4,39.4 -9,38.2 
			-8.6,39.4 -7.3,39.4 		"/>
		<polyline fill="#FFEC00" points="-3.9,35.9 -4.9,36.6 -4.5,37.8 -5.5,37 -6.5,37.8 -6.1,36.6 -7.1,35.9 -5.9,35.9 -5.5,34.7 
			-5.1,35.9 -3.9,35.9 		"/>
		<polyline fill="#FFEC00" points="6.1,35.9 4.9,36.6 5.3,37.8 4.3,37 3.3,37.8 3.7,36.6 2.8,35.9 3.9,35.9 4.3,34.7 4.7,35.9 
			6.1,35.9 		"/>
		<polyline fill="#FFEC00" points="9.6,39.4 8.6,40.2 8.8,41.4 8.1,40.6 7.1,41.4 7.3,40.2 6.3,39.4 7.7,39.4 8.1,38.2 8.4,39.4 
			9.6,39.4 		"/>
		<polyline fill="#FFEC00" points="-7.5,49.4 -8.4,50.2 -8.1,51.4 -9,50.6 -10,51.2 -9.6,50.2 -10.6,49.4 -9.4,49.4 -9,48.2 
			-8.6,49.4 -7.5,49.4 		"/>
		<polyline fill="#FFEC00" points="-3.9,53.1 -4.9,53.9 -4.5,54.9 -5.5,54.3 -6.5,54.9 -6.1,53.9 -7.1,53.1 -5.9,53.1 -5.5,52 
			-5.1,53.1 -3.9,53.1 		"/>
		<polyline fill="#FFEC00" points="6.1,53.1 5.1,53.9 5.5,54.9 4.5,54.3 3.5,54.9 3.9,53.9 2.8,53.1 4.1,53.1 4.5,52 4.9,53.1 
			6.1,53.1 		"/>
		<polyline fill="#FFEC00" points="9.6,49.4 8.6,50.2 9,51.4 8.1,50.6 7.1,51.2 7.5,50.2 6.5,49.4 7.7,49.4 8.1,48.2 8.4,49.4 
			9.6,49.4 		"/>
		<polyline fill="#FFEC00" points="11,44.5 10,45.3 10.2,46.3 9.4,45.7 8.4,46.3 8.6,45.3 7.7,44.5 9,44.5 9.4,43.3 9.8,44.5 
			11,44.5 		"/>
	</g>
</g>
</svg>
