<?xml version="1.0" encoding="utf-8"?>
<!-- Generator: Adobe Illustrator 17.0.0, SVG Export Plug-In . SVG Version: 6.00 Build 0)  -->
<!DOCTYPE svg PUBLIC "-//W3C//DTD SVG 1.1//EN" "http://www.w3.org/Graphics/SVG/1.1/DTD/svg11.dtd">
<svg version="1.1" id="Слой_1" xmlns="http://www.w3.org/2000/svg" xmlns:xlink="http://www.w3.org/1999/xlink" x="0px" y="0px"
	 width="37px" height="28px" viewBox="0 0 37 28" enable-background="new 0 0 37 28" xml:space="preserve">
<g>
	<path fill="#0495D4" d="M36.386,12.201c0.264,0.024,0.396,0.168,0.396,0.432s-0.132,0.408-0.396,0.432H15.692
		c0.744,0.36,1.476,0.78,2.195,1.26c0.72,0.48,1.236,0.996,1.548,1.548c0.456,0.936,0.516,1.907,0.18,2.915
		c-0.336,1.008-0.972,1.751-1.907,2.231c-0.072,0.024-0.144,0.036-0.216,0.036c-0.168,0-0.3-0.084-0.396-0.252
		c-0.096-0.24-0.024-0.432,0.216-0.576c0.72-0.384,1.212-0.96,1.476-1.728c0.264-0.768,0.216-1.512-0.144-2.231
		c-0.336-0.576-0.99-1.134-1.961-1.674c-0.972-0.54-1.865-0.978-2.681-1.314v14.324C13.976,27.868,13.832,28,13.568,28
		s-0.408-0.132-0.432-0.396V17.563c-0.168,0.36-0.36,0.648-0.576,0.864c-0.672,0.648-1.476,0.972-2.411,0.972
		s-1.734-0.336-2.393-1.008s-0.99-1.458-0.99-2.357c0-0.9,0.336-1.71,1.008-2.429c0.216-0.192,0.492-0.372,0.828-0.54H0.396
		C0.132,13.04,0,12.896,0,12.632s0.132-0.408,0.396-0.432h11.013c-0.744-0.36-1.476-0.78-2.195-1.26S7.978,9.957,7.666,9.429
		C7.21,8.47,7.15,7.492,7.486,6.496S8.47,4.763,9.429,4.283c0.24-0.096,0.42-0.024,0.54,0.216c0.12,0.24,0.06,0.432-0.18,0.576
		c-0.72,0.36-1.212,0.924-1.476,1.692S8.098,8.29,8.458,9.033c0.336,0.552,0.996,1.104,1.979,1.656
		c0.984,0.552,1.883,0.984,2.699,1.296V0.396C13.16,0.132,13.304,0,13.568,0S13.976,0.132,14,0.396v7.27
		c0.144-0.336,0.324-0.612,0.54-0.828c0.672-0.624,1.47-0.936,2.393-0.936c0.924,0,1.722,0.312,2.393,0.936
		c0.672,0.696,1.008,1.5,1.008,2.411s-0.336,1.716-1.008,2.411c-0.216,0.216-0.504,0.396-0.864,0.54h8.961
		C32.655,12.201,35.642,12.201,36.386,12.201z M2.159,0.828h8.781c0.264,0.024,0.396,0.174,0.396,0.45s-0.132,0.426-0.396,0.45
		H2.159C1.895,1.751,1.751,1.895,1.728,2.159v7.846c-0.024,0.264-0.174,0.396-0.45,0.396s-0.426-0.132-0.45-0.396V2.159
		c0.024-0.384,0.156-0.696,0.396-0.936S1.775,0.852,2.159,0.828z M1.296,14.864c0.264,0.024,0.408,0.168,0.432,0.432v10.545
		c0.024,0.264,0.168,0.408,0.432,0.432h8.781c0.264,0.024,0.396,0.174,0.396,0.45s-0.132,0.426-0.396,0.45H2.159
		c-0.384-0.024-0.696-0.156-0.936-0.396s-0.372-0.552-0.396-0.936V15.296C0.852,15.032,1.008,14.888,1.296,14.864z M11.949,17.815
		c0.336-0.408,0.6-1.08,0.792-2.015c0.192-0.936,0.312-1.835,0.36-2.699c-0.768,0.048-1.638,0.156-2.609,0.324
		c-0.972,0.168-1.674,0.444-2.105,0.828c-0.504,0.504-0.756,1.092-0.756,1.763s0.252,1.26,0.756,1.763
		c0.504,0.504,1.098,0.756,1.781,0.756S11.445,18.295,11.949,17.815z M15.152,7.486c-0.336,0.384-0.6,1.044-0.792,1.979
		c-0.192,0.936-0.312,1.835-0.36,2.699c0.768-0.024,1.638-0.126,2.609-0.306s1.674-0.45,2.105-0.81
		c0.504-0.528,0.756-1.128,0.756-1.799s-0.246-1.26-0.738-1.763S17.647,6.73,16.951,6.73S15.656,6.982,15.152,7.486z M15.763,1.26
		c0.024-0.264,0.168-0.408,0.432-0.432h18.427c0.384,0.024,0.696,0.156,0.936,0.396c0.24,0.24,0.372,0.552,0.396,0.936v7.846
		c-0.024,0.264-0.174,0.396-0.45,0.396s-0.426-0.132-0.45-0.396V2.159c-0.024-0.264-0.168-0.408-0.432-0.432H16.195
		C15.931,1.704,15.787,1.548,15.763,1.26z M35.486,14.864c0.288,0.024,0.444,0.168,0.468,0.432v10.545
		c-0.024,0.384-0.156,0.696-0.396,0.936c-0.24,0.24-0.552,0.372-0.936,0.396H16.195c-0.264-0.024-0.396-0.174-0.396-0.45
		s0.132-0.426,0.396-0.45h18.427c0.264-0.024,0.408-0.168,0.432-0.432V15.296C35.078,15.032,35.222,14.888,35.486,14.864z"/>
</g>
</svg>
