<?xml version="1.0" encoding="utf-8"?>
<!-- Generator: Adobe Illustrator 17.0.0, SVG Export Plug-In . SVG Version: 6.00 Build 0)  -->
<!DOCTYPE svg PUBLIC "-//W3C//DTD SVG 1.1//EN" "http://www.w3.org/Graphics/SVG/1.1/DTD/svg11.dtd">
<svg version="1.1" id="Слой_1" xmlns="http://www.w3.org/2000/svg" xmlns:xlink="http://www.w3.org/1999/xlink" x="0px" y="0px"
	 width="13px" height="9px" viewBox="0 0 13 9" enable-background="new 0 0 13 9" xml:space="preserve">
<g>
	<path fill="#231F20" d="M0,9V0h13v8.972V9H0z M12.973,8.972V8.944V8.972z M0.054,8.944h12.892l0-8.889H0.054V8.944z"/>
	<rect x="0.027" y="0.028" fill="#01247D" width="12.946" height="8.944"/>
	<polygon fill="#FFFFFF" points="12.973,3.158 7.795,3.158 7.795,0.028 5.206,0.028 5.206,3.158 0.027,3.158 0.027,5.842 
		5.206,5.842 5.206,8.972 7.795,8.972 7.795,5.842 12.973,5.842 	"/>
	<polygon fill="#FFFFFF" points="12.973,7.945 1.513,0.028 0.027,0.028 0.027,1.063 11.476,8.972 12.973,8.972 	"/>
	<polygon fill="#FFFFFF" points="0.027,7.945 11.487,0.028 12.973,0.028 12.973,1.063 1.524,8.972 0.027,8.972 	"/>
	<polygon fill="#CF142B" points="12.973,3.717 7.255,3.717 7.255,0.028 5.745,0.028 5.745,3.717 0.027,3.717 0.027,5.282 
		5.745,5.282 5.745,8.972 7.255,8.972 7.255,5.282 12.973,5.282 	"/>
	<polygon fill="#CF142B" points="12.973,8.946 12.973,8.24 9.494,5.842 8.469,5.842 	"/>
	<polygon fill="#CF142B" points="12.973,0.028 11.949,0.028 7.795,2.891 7.795,3.158 8.432,3.158 12.973,0.028 	"/>
	<polygon fill="#CF142B" points="4.533,5.842 0.027,8.947 0.027,8.972 1.016,8.972 5.206,6.084 5.206,5.842 	"/>
	<polygon fill="#CF142B" points="0.027,0.033 0.027,0.74 3.535,3.158 4.561,3.158 	"/>
</g>
</svg>
