<?xml version="1.0" encoding="utf-8"?>
<!-- Generator: Adobe Illustrator 17.0.0, SVG Export Plug-In . SVG Version: 6.00 Build 0)  -->
<!DOCTYPE svg PUBLIC "-//W3C//DTD SVG 1.1//EN" "http://www.w3.org/Graphics/SVG/1.1/DTD/svg11.dtd">
<svg version="1.1" id="Слой_1" xmlns="http://www.w3.org/2000/svg" xmlns:xlink="http://www.w3.org/1999/xlink" x="0px" y="0px"
	 width="38.4px" height="24px" viewBox="0 0 38.4 24" enable-background="new 0 0 38.4 24" xml:space="preserve">
<g>
	<path fill="#E73530" d="M19.2,15.039"/>
	<path fill="#1D1E1E" d="M38.4,22.72c0,0.707-0.573,1.28-1.28,1.28H1.28C0.573,24,0,23.427,0,22.72V1.28C0,0.573,0.573,0,1.28,0
		h35.84c0.707,0,1.28,0.573,1.28,1.28V22.72z"/>
	<g>
		<path fill="#005CB9" d="M25.071,10.212c0.192,0.159,0.594,0.493,0.594,1.13c0,0.619-0.351,0.912-0.703,1.188
			c-0.109,0.109-0.234,0.226-0.234,0.41c0,0.184,0.125,0.284,0.217,0.36l0.302,0.234c0.368,0.31,0.702,0.594,0.702,1.172
			c0,0.786-0.762,1.581-2.2,1.581c-1.213,0-1.799-0.577-1.799-1.197c0-0.301,0.15-0.727,0.644-1.021
			c0.518-0.318,1.221-0.359,1.598-0.385c-0.117-0.151-0.251-0.309-0.251-0.569c0-0.142,0.042-0.226,0.084-0.326
			c-0.092,0.008-0.184,0.017-0.268,0.017c-0.887,0-1.389-0.661-1.389-1.313c0-0.385,0.176-0.812,0.535-1.121
			c0.477-0.393,1.046-0.46,1.498-0.46h1.723l-0.535,0.301H25.071z M24.477,13.927c-0.067-0.009-0.109-0.009-0.192-0.009
			c-0.075,0-0.528,0.017-0.879,0.134c-0.184,0.067-0.719,0.267-0.719,0.862c0,0.594,0.577,1.021,1.473,1.021
			c0.803,0,1.23-0.385,1.23-0.904C25.389,14.604,25.113,14.379,24.477,13.927z M24.72,12.337c0.192-0.193,0.209-0.46,0.209-0.611
			c0-0.602-0.36-1.539-1.054-1.539c-0.218,0-0.452,0.109-0.586,0.276c-0.142,0.176-0.184,0.401-0.184,0.619
			c0,0.56,0.326,1.489,1.046,1.489C24.36,12.571,24.586,12.471,24.72,12.337z"/>
		<path fill="#FFC627" d="M19.804,13.793c-1.328,0-2.038-1.036-2.038-1.971c0-1.094,0.894-2.03,2.164-2.03
			c1.227,0,1.996,0.96,1.996,1.971C21.926,12.748,21.166,13.793,19.804,13.793z M20.848,13.116c0.201-0.267,0.251-0.601,0.251-0.927
			c0-0.735-0.351-2.138-1.387-2.138c-0.276,0-0.551,0.109-0.752,0.284c-0.326,0.292-0.385,0.66-0.385,1.019
			c0,0.827,0.409,2.188,1.42,2.188C20.322,13.542,20.656,13.383,20.848,13.116z"/>
		<path fill="#DD0031" d="M15.277,13.793c-1.328,0-2.038-1.036-2.038-1.971c0-1.094,0.894-2.03,2.164-2.03
			c1.228,0,1.996,0.96,1.996,1.971C17.398,12.748,16.638,13.793,15.277,13.793z M16.321,13.116c0.201-0.267,0.251-0.601,0.251-0.927
			c0-0.735-0.351-2.138-1.387-2.138c-0.276,0-0.551,0.109-0.752,0.284c-0.326,0.292-0.384,0.66-0.384,1.019
			c0,0.827,0.409,2.188,1.42,2.188C15.795,13.542,16.129,13.383,16.321,13.116z"/>
		<path fill="#005CB9" d="M12.6,13.662l-1.201,0.277c-0.487,0.076-0.924,0.143-1.385,0.143c-2.318,0-3.2-1.705-3.2-3.04
			c0-1.629,1.251-3.14,3.393-3.14c0.454,0,0.89,0.067,1.285,0.176c0.63,0.176,0.924,0.395,1.109,0.521l-0.697,0.663l-0.294,0.067
			l0.21-0.336c-0.285-0.277-0.806-0.789-1.797-0.789c-1.327,0-2.326,1.008-2.326,2.478c0,1.578,1.142,3.065,2.973,3.065
			c0.538,0,0.815-0.109,1.067-0.21v-1.352l-1.268,0.067l0.672-0.361h1.78l-0.218,0.21c-0.059,0.05-0.067,0.068-0.084,0.134
			c-0.009,0.076-0.017,0.319-0.017,0.403V13.662z"/>
		<path fill="#4E9D2D" d="M27.726,13.42c-0.278-0.025-0.336-0.076-0.336-0.403v-0.093V8.264c0.002-0.018,0.003-0.037,0.005-0.054
			c0.034-0.294,0.118-0.344,0.378-0.496h-1.201l-0.63,0.302h0.642V8.02l0-0.003v4.907v0.277c0,0.168-0.033,0.193-0.227,0.445h1.486
			l0.311-0.184C28.011,13.445,27.869,13.437,27.726,13.42z"/>
		<path fill="#DD0031" d="M31.143,13.497c-0.091,0.05-0.183,0.109-0.275,0.15c-0.276,0.125-0.559,0.158-0.809,0.158
			c-0.267,0-0.684-0.017-1.109-0.325c-0.592-0.417-0.85-1.134-0.85-1.76c0-1.292,1.051-1.926,1.91-1.926
			c0.3,0,0.609,0.075,0.859,0.234c0.417,0.275,0.525,0.633,0.583,0.825l-1.96,0.793l-0.643,0.05
			c0.208,1.059,0.926,1.676,1.718,1.676c0.425,0,0.734-0.15,1.018-0.292L31.143,13.497z M30.359,11.012
			c0.158-0.058,0.242-0.108,0.242-0.225c0-0.333-0.375-0.717-0.826-0.717c-0.334,0-0.959,0.259-0.959,1.159
			c0,0.142,0.017,0.292,0.025,0.442L30.359,11.012z"/>
	</g>
</g>
</svg>
