<?xml version="1.0" encoding="utf-8"?>
<!-- Generator: Adobe Illustrator 17.0.0, SVG Export Plug-In . SVG Version: 6.00 Build 0)  -->
<!DOCTYPE svg PUBLIC "-//W3C//DTD SVG 1.1//EN" "http://www.w3.org/Graphics/SVG/1.1/DTD/svg11.dtd">
<svg version="1.1" id="Слой_1" xmlns="http://www.w3.org/2000/svg" xmlns:xlink="http://www.w3.org/1999/xlink" x="0px" y="0px"
	 width="18px" height="14px" viewBox="0 0 18 14" enable-background="new 0 0 18 14" xml:space="preserve">
<g>
	<g>
		<path fill="#4FDB67" d="M14.485,1c0.269,0,0.498,0.095,0.686,0.283l1.374,1.374c0.188,0.189,0.283,0.418,0.283,0.686
			c0,0.27-0.095,0.499-0.283,0.687l-7.314,7.313l-1.374,1.374C7.67,12.906,7.441,13,7.172,13c-0.27,0-0.499-0.094-0.687-0.283
			l-1.374-1.374L1.454,7.687C1.266,7.498,1.172,7.27,1.172,7c0-0.27,0.094-0.499,0.283-0.687L2.829,4.94
			c0.188-0.189,0.417-0.283,0.686-0.283S4.014,4.751,4.202,4.94l2.97,2.98l6.626-6.637C13.986,1.095,14.215,1,14.485,1 M14.485,0
			c-0.534,0-1.016,0.199-1.393,0.574L7.173,6.504l-2.262-2.27c-0.378-0.378-0.86-0.577-1.395-0.577c-0.536,0-1.019,0.2-1.395,0.577
			L0.748,5.606C0.371,5.983,0.172,6.465,0.172,7c0,0.535,0.199,1.017,0.576,1.394l3.657,3.657l1.374,1.374
			C6.154,13.801,6.636,14,7.172,14c0.535,0,1.017-0.199,1.394-0.576l1.374-1.374l7.314-7.313c0.377-0.379,0.576-0.86,0.576-1.394
			c0-0.534-0.199-1.015-0.574-1.392l-1.376-1.376C15.5,0.199,15.018,0,14.485,0L14.485,0z"/>
	</g>
</g>
</svg>
