<?xml version="1.0" encoding="utf-8"?>
<!-- Generator: Adobe Illustrator 17.0.0, SVG Export Plug-In . SVG Version: 6.00 Build 0)  -->
<!DOCTYPE svg PUBLIC "-//W3C//DTD SVG 1.1//EN" "http://www.w3.org/Graphics/SVG/1.1/DTD/svg11.dtd">
<svg version="1.1" id="Logo" xmlns="http://www.w3.org/2000/svg" xmlns:xlink="http://www.w3.org/1999/xlink" x="0px" y="0px"
	 width="211.318px" height="30px" viewBox="0 0 211.318 30" enable-background="new 0 0 211.318 30" xml:space="preserve">
<path id="G" fill-rule="evenodd" clip-rule="evenodd" fill="#141414" d="M15.548,8.798c-2.91,0-5.278,1.811-5.278,6.053
	c0,3.987,1.854,6.1,4.494,6.339v0.202h5.3l-4.416,8.278C6.004,29.375,0,24.446,0,14.851C0,4.953,6.378,0.005,16.564,0.005L36.671,0
	v8.798H15.548z"/>
<path id="A" fill-rule="evenodd" clip-rule="evenodd" fill="#1A9FF9" d="M42.408,29.698l-1.637-3.181H26.022l4.288-8.484h6.096
	l-3.82-7.423l-0.014,0.027L27.198,0.005h10.845l15.278,29.693H42.408z"/>
<path id="G_part" fill-rule="evenodd" clip-rule="evenodd" fill="#F00E21" d="M16.507,12.466h8.083l-3.3,6.628h-8.041L16.507,12.466
	z"/>
<path id="Red_line" fill-rule="evenodd" clip-rule="evenodd" fill="#F00E21" d="M93.067,22.889H56.521l3.212,6.82l29.69,0
	L93.067,22.889z"/>
<g id="Genius_Automotive">
	<g>
		<g>
			<g>
				<path fill="#141414" d="M56.104,7.301v1.816h3.085v2.646c-0.603,0.209-1.185,0.363-1.748,0.464
					c-0.563,0.101-1.126,0.151-1.69,0.151c-1.869,0-3.421-0.496-4.657-1.489c-1.236-0.993-1.854-2.228-1.854-3.706
					c0-1.497,0.625-2.742,1.876-3.735c1.252-0.993,2.835-1.489,4.751-1.489c0.861,0,1.748,0.113,2.664,0.337
					c0.915,0.225,1.892,0.572,2.933,1.04V1.218c-0.962-0.365-1.903-0.638-2.822-0.82c-0.919-0.182-1.836-0.274-2.751-0.274
					c-1.345,0-2.561,0.169-3.648,0.508c-1.087,0.338-2.065,0.856-2.933,1.553c-0.821,0.645-1.455,1.398-1.9,2.26
					c-0.446,0.863-0.668,1.753-0.668,2.671c0,1.224,0.338,2.352,1.014,3.383c0.676,1.032,1.625,1.88,2.845,2.544
					c0.728,0.397,1.525,0.696,2.393,0.898c0.868,0.201,1.794,0.302,2.78,0.302c0.876,0,1.797-0.096,2.763-0.288
					c0.966-0.192,1.989-0.484,3.068-0.874V7.301H56.104z"/>
			</g>
		</g>
		<g>
			<g>
				<path fill="#141414" d="M73.771,11.237c-0.798,0.43-1.57,0.75-2.317,0.962c-0.747,0.212-1.464,0.317-2.152,0.317
					c-1.025,0-1.842-0.239-2.452-0.718c-0.61-0.478-0.946-1.144-1.009-1.997h8.118V9.538c0-1.452-0.458-2.604-1.373-3.457
					c-0.915-0.853-2.155-1.279-3.719-1.279c-1.58,0-2.861,0.42-3.842,1.26c-0.982,0.84-1.472,1.933-1.472,3.281
					c0,1.472,0.511,2.648,1.532,3.53c1.02,0.883,2.387,1.323,4.1,1.323c0.813,0,1.602-0.096,2.364-0.288
					c0.762-0.193,1.503-0.481,2.223-0.864V11.237z M66.839,6.896c0.508-0.368,1.177-0.552,2.006-0.552
					c0.75,0,1.376,0.199,1.877,0.596c0.501,0.397,0.786,0.924,0.856,1.582h-5.737C65.998,7.806,66.33,7.264,66.839,6.896z"/>
			</g>
		</g>
		<g>
			<g>
				<path fill="#141414" d="M78.136,14V7.497c0.399-0.41,0.807-0.705,1.226-0.883c0.419-0.179,0.905-0.269,1.461-0.269
					c0.782,0,1.359,0.175,1.73,0.523c0.371,0.348,0.557,0.887,0.557,1.616V14h2.159V8.024c0-0.989-0.338-1.767-1.015-2.334
					c-0.677-0.566-1.602-0.849-2.774-0.849c-0.618,0-1.195,0.099-1.73,0.298c-0.536,0.199-1.074,0.512-1.613,0.942V4.978h-2.159V14
					H78.136z"/>
			</g>
		</g>
		<g>
			<g>
				<path fill="#141414" d="M88.248,3.044c0.235,0.196,0.524,0.293,0.868,0.293c0.344,0,0.634-0.097,0.868-0.293
					c0.234-0.195,0.352-0.436,0.352-0.722s-0.117-0.527-0.352-0.723c-0.235-0.195-0.524-0.293-0.868-0.293
					c-0.344,0-0.634,0.097-0.868,0.293c-0.235,0.195-0.352,0.436-0.352,0.723S88.013,2.849,88.248,3.044z M90.195,14V4.978h-2.158
					V14H90.195z"/>
			</g>
		</g>
		<g>
			<g>
				<path fill="#141414" d="M100.12,14h2.159V4.978h-2.159v6.503c-0.399,0.416-0.808,0.714-1.226,0.894
					c-0.419,0.179-0.906,0.269-1.46,0.269c-0.782,0-1.359-0.174-1.73-0.523c-0.372-0.348-0.557-0.887-0.557-1.616V4.978h-2.183
					v5.986c0,0.983,0.34,1.757,1.021,2.324c0.68,0.567,1.611,0.85,2.792,0.85c0.618,0,1.195-0.099,1.73-0.298
					c0.535-0.198,1.073-0.513,1.613-0.942V14z"/>
			</g>
		</g>
		<g>
			<g>
				<path fill="#141414" d="M106.132,13.98c0.614,0.13,1.261,0.195,1.942,0.195c1.18,0,2.129-0.238,2.844-0.713
					c0.716-0.475,1.073-1.11,1.073-1.904c0-0.572-0.18-1.046-0.539-1.421c-0.36-0.374-1.131-0.809-2.312-1.304l-0.2-0.078
					c-1.509-0.619-2.264-1.155-2.264-1.611c0-0.247,0.123-0.436,0.37-0.566c0.246-0.13,0.597-0.195,1.05-0.195
					c0.493,0,1.016,0.073,1.567,0.22c0.551,0.147,1.158,0.373,1.824,0.679V5.525c-0.541-0.254-1.091-0.441-1.655-0.561
					c-0.563-0.121-1.149-0.181-1.759-0.181c-1.135,0-2.026,0.221-2.675,0.664c-0.65,0.443-0.974,1.042-0.974,1.797
					c0,0.579,0.188,1.069,0.563,1.469c0.375,0.4,1.067,0.815,2.077,1.245c0.188,0.085,0.454,0.199,0.797,0.342
					c1.181,0.488,1.772,0.921,1.772,1.299c0,0.299-0.158,0.535-0.475,0.708c-0.317,0.172-0.753,0.259-1.309,0.259
					c-0.501,0-1.051-0.094-1.654-0.283c-0.602-0.189-1.228-0.462-1.877-0.82v1.924C104.914,13.652,105.519,13.85,106.132,13.98z"/>
			</g>
		</g>
		<g>
			<g>
				<path fill="#141414" d="M120.729,29.798h2.159v-9.022h-2.159v6.502c-0.399,0.417-0.807,0.715-1.226,0.893
					c-0.418,0.179-0.905,0.269-1.461,0.269c-0.781,0-1.359-0.174-1.73-0.523c-0.371-0.348-0.557-0.886-0.557-1.616v-5.526h-2.182
					v5.985c0,0.983,0.34,1.758,1.02,2.324c0.682,0.566,1.612,0.85,2.793,0.85c0.618,0,1.194-0.1,1.73-0.298
					c0.535-0.198,1.073-0.512,1.613-0.942V29.798z"/>
			</g>
		</g>
		<g>
			<g>
				<path fill="#141414" d="M131.616,27.816c-0.297,0.15-0.602,0.26-0.914,0.331c-0.315,0.071-0.635,0.108-0.963,0.108
					c-0.61,0-1.027-0.11-1.249-0.328c-0.223-0.218-0.335-0.701-0.335-1.45v-4.14h3.391v-1.562h-3.391v-2.099h-0.246l-3.79,3.485
					v0.176h1.842v4.276c0,1.277,0.248,2.155,0.745,2.636c0.496,0.483,1.356,0.723,2.574,0.723c0.447,0,0.863-0.037,1.25-0.111
					c0.388-0.076,0.749-0.19,1.085-0.348V27.816z"/>
			</g>
		</g>
		<g>
			<g>
				<path fill="#141414" d="M135.945,23.148c0.681-0.592,1.502-0.888,2.464-0.888c0.962,0,1.783,0.296,2.464,0.888
					c0.68,0.593,1.021,1.302,1.021,2.129c0,0.834-0.342,1.549-1.027,2.143c-0.684,0.596-1.503,0.894-2.458,0.894
					c-0.962,0-1.783-0.297-2.464-0.89c-0.681-0.591-1.021-1.308-1.021-2.148C134.924,24.45,135.264,23.741,135.945,23.148z
					 M134.338,28.607c1.118,0.911,2.483,1.367,4.095,1.367c0.774,0,1.503-0.113,2.188-0.342c0.684-0.228,1.3-0.566,1.848-1.015
					c0.54-0.437,0.959-0.948,1.255-1.533c0.298-0.586,0.446-1.189,0.446-1.807c0-0.625-0.145-1.217-0.434-1.777
					c-0.289-0.559-0.712-1.074-1.267-1.542c-0.547-0.444-1.167-0.783-1.859-1.021c-0.692-0.238-1.418-0.357-2.176-0.357
					c-1.611,0-2.976,0.456-4.095,1.367c-1.118,0.911-1.678,2.021-1.678,3.33C132.66,26.586,133.219,27.696,134.338,28.607z"/>
			</g>
		</g>
		<g>
			<g>
				<path fill="#141414" d="M148.38,29.798v-6.504c0.399-0.41,0.807-0.704,1.226-0.883c0.418-0.179,0.904-0.269,1.46-0.269
					c0.782,0,1.359,0.175,1.73,0.522c0.372,0.349,0.557,0.887,0.557,1.616v5.517h2.112v-6.504c0.399-0.41,0.809-0.704,1.232-0.883
					c0.423-0.179,0.919-0.269,1.49-0.269c0.774,0,1.344,0.172,1.707,0.518c0.364,0.345,0.546,0.885,0.546,1.621v5.517h2.194v-5.976
					c0-0.989-0.342-1.768-1.027-2.334c-0.685-0.566-1.617-0.85-2.798-0.85c-0.657,0-1.277,0.117-1.86,0.352
					c-0.583,0.235-1.207,0.625-1.871,1.172c-0.368-0.528-0.819-0.914-1.355-1.157c-0.535-0.244-1.202-0.366-2-0.366
					c-0.618,0-1.194,0.099-1.73,0.298c-0.535,0.198-1.073,0.512-1.613,0.942v-1.102h-2.159v9.022H148.38z"/>
			</g>
		</g>
		<g>
			<g>
				<path fill="#141414" d="M167.877,23.148c0.681-0.592,1.502-0.888,2.464-0.888c0.962,0,1.783,0.296,2.464,0.888
					c0.681,0.593,1.02,1.302,1.02,2.129c0,0.834-0.343,1.549-1.026,2.143c-0.685,0.596-1.504,0.894-2.458,0.894
					c-0.962,0-1.783-0.297-2.464-0.89c-0.68-0.591-1.021-1.308-1.021-2.148C166.857,24.45,167.198,23.741,167.877,23.148z
					 M166.27,28.607c1.118,0.911,2.483,1.367,4.094,1.367c0.775,0,1.503-0.113,2.188-0.342c0.684-0.228,1.3-0.566,1.847-1.015
					c0.541-0.437,0.959-0.948,1.256-1.533c0.298-0.586,0.445-1.189,0.445-1.807c0-0.625-0.144-1.217-0.433-1.777
					c-0.29-0.559-0.712-1.074-1.268-1.542c-0.546-0.444-1.167-0.783-1.859-1.021c-0.692-0.238-1.417-0.357-2.176-0.357
					c-1.611,0-2.975,0.456-4.094,1.367c-1.118,0.911-1.678,2.021-1.678,3.33C164.593,26.586,165.152,27.696,166.27,28.607z"/>
			</g>
		</g>
		<g>
			<g>
				<path fill="#141414" d="M184.137,27.816c-0.297,0.15-0.603,0.26-0.915,0.331c-0.313,0.071-0.633,0.108-0.961,0.108
					c-0.61,0-1.027-0.11-1.25-0.328c-0.223-0.218-0.334-0.701-0.334-1.45v-4.14h3.39v-1.562h-3.39v-2.099h-0.246l-3.789,3.485v0.176
					h1.842v4.277c0,1.277,0.248,2.155,0.744,2.636c0.497,0.483,1.356,0.723,2.575,0.723c0.446,0,0.862-0.037,1.25-0.111
					c0.387-0.076,0.748-0.19,1.084-0.348V27.816z"/>
			</g>
		</g>
		<g>
			<g>
				<path fill="#141414" d="M186.167,18.842c0.235,0.195,0.524,0.293,0.868,0.293c0.345,0,0.634-0.098,0.869-0.293
					c0.235-0.195,0.352-0.436,0.352-0.722c0-0.286-0.117-0.527-0.352-0.722c-0.235-0.195-0.523-0.293-0.869-0.293
					c-0.343,0-0.633,0.099-0.868,0.293c-0.235,0.195-0.352,0.436-0.352,0.722C185.815,18.406,185.932,18.647,186.167,18.842z
					 M188.115,29.798v-9.022h-2.159v9.022H188.115z"/>
			</g>
		</g>
		<g>
			<g>
				<path fill="#141414" d="M195.47,29.974l4.997-9.197h-2.358l-3.121,5.985l-3.343-5.985h-2.405l5.22,9.197H195.47z"/>
			</g>
		</g>
		<g>
			<g>
				<path fill="#141414" d="M211.131,27.035c-0.799,0.43-1.57,0.75-2.318,0.962c-0.747,0.212-1.464,0.318-2.153,0.318
					c-1.025,0-1.842-0.24-2.452-0.718c-0.609-0.479-0.946-1.145-1.009-1.997h8.118v-0.264c0-1.452-0.457-2.604-1.373-3.457
					c-0.915-0.852-2.155-1.278-3.719-1.278c-1.58,0-2.86,0.419-3.841,1.26c-0.982,0.84-1.473,1.933-1.473,3.28
					c0,1.471,0.511,2.648,1.531,3.529c1.02,0.883,2.386,1.324,4.1,1.324c0.813,0,1.601-0.097,2.364-0.289
					c0.762-0.191,1.503-0.48,2.223-0.864V27.035z M204.197,22.694c0.508-0.367,1.177-0.552,2.007-0.552
					c0.75,0,1.376,0.199,1.877,0.595c0.501,0.398,0.786,0.925,0.857,1.582h-5.737C203.357,23.604,203.689,23.062,204.197,22.694z"/>
			</g>
		</g>
		<g>
			<g>
				<path fill="#141414" d="M96.689,30h2.384l2.025-3.996h6.914l2.16,3.996h2.374l-7.266-13.561h-1.63L96.689,30z M102.019,24.285
					l2.425-4.883l2.614,4.883H102.019z"/>
			</g>
		</g>
	</g>
</g>
</svg>
