<?xml version="1.0" encoding="utf-8"?>
<!-- Generator: Adobe Illustrator 17.0.0, SVG Export Plug-In . SVG Version: 6.00 Build 0)  -->
<!DOCTYPE svg PUBLIC "-//W3C//DTD SVG 1.1//EN" "http://www.w3.org/Graphics/SVG/1.1/DTD/svg11.dtd">
<svg version="1.1" id="Слой_1" xmlns="http://www.w3.org/2000/svg" xmlns:xlink="http://www.w3.org/1999/xlink" x="0px" y="0px"
	 width="38.4px" height="24px" viewBox="0 0 38.4 24" enable-background="new 0 0 38.4 24" xml:space="preserve">
<g>
	<path fill="#13457C" d="M38.4,22.72c0,0.707-0.573,1.28-1.28,1.28H1.28C0.573,24,0,23.427,0,22.72V1.28C0,0.573,0.573,0,1.28,0
		h35.84c0.707,0,1.28,0.573,1.28,1.28V22.72z"/>
	<g>
		<polygon fill="#EC1C2E" points="23.771,18.892 24.127,18.883 24.478,18.856 24.822,18.813 25.162,18.752 25.497,18.675 
			25.825,18.582 26.145,18.473 26.459,18.349 26.765,18.211 27.062,18.059 27.351,17.893 27.631,17.712 27.902,17.52 28.163,17.316 
			28.414,17.099 28.654,16.87 28.88,16.629 29.098,16.378 29.304,16.118 29.497,15.848 29.676,15.567 29.841,15.277 29.995,14.981 
			30.133,14.675 30.256,14.36 30.364,14.041 30.457,13.712 30.534,13.38 30.595,13.038 30.638,12.693 30.665,12.342 30.675,11.986 
			30.665,11.633 30.638,11.284 30.595,10.942 30.534,10.603 30.457,10.272 30.364,9.946 30.256,9.627 30.133,9.314 29.995,9.011 
			29.841,8.714 29.676,8.426 29.497,8.145 29.304,7.876 29.098,7.615 28.88,7.366 28.654,7.126 28.414,6.899 28.163,6.682 
			27.902,6.478 27.631,6.286 27.351,6.107 27.062,5.942 26.765,5.787 26.459,5.649 26.145,5.527 25.825,5.418 25.497,5.325 
			25.162,5.248 24.822,5.187 24.478,5.144 24.127,5.117 23.771,5.108 23.415,5.117 23.064,5.144 22.72,5.187 22.38,5.248 
			22.045,5.325 21.719,5.418 21.397,5.527 21.085,5.649 20.779,5.787 20.483,5.942 20.195,6.107 19.913,6.286 19.644,6.478 
			19.384,6.682 19.135,6.899 18.896,7.126 18.668,7.366 18.451,7.615 18.247,7.876 18.054,8.145 17.875,8.426 17.71,8.714 
			17.558,9.011 17.422,9.314 17.298,9.627 17.189,9.946 17.098,10.272 17.021,10.603 16.961,10.942 16.917,11.284 16.89,11.633 
			16.881,11.986 16.89,12.342 16.917,12.693 16.961,13.038 17.021,13.38 17.098,13.712 17.189,14.041 17.298,14.36 17.422,14.675 
			17.558,14.981 17.71,15.277 17.875,15.567 18.054,15.848 18.247,16.118 18.451,16.378 18.668,16.629 18.896,16.87 19.135,17.099 
			19.384,17.316 19.644,17.52 19.913,17.712 20.195,17.893 20.483,18.059 20.779,18.211 21.085,18.349 21.397,18.473 21.719,18.582 
			22.045,18.675 22.38,18.752 22.72,18.813 23.064,18.856 23.415,18.883 		"/>
		<polygon fill="#0084C4" points="14.629,18.892 14.985,18.883 15.336,18.856 15.681,18.813 16.02,18.752 16.356,18.675 
			16.682,18.582 17.004,18.473 17.316,18.349 17.622,18.211 17.918,18.059 18.206,17.893 18.487,17.712 18.756,17.52 19.017,17.316 
			19.266,17.099 19.506,16.87 19.732,16.629 19.95,16.378 20.154,16.118 20.346,15.848 20.526,15.567 20.691,15.277 20.843,14.981 
			20.98,14.675 21.103,14.36 21.211,14.041 21.302,13.712 21.38,13.38 21.441,13.038 21.483,12.693 21.511,12.342 21.52,11.986 
			21.511,11.633 21.483,11.284 21.441,10.942 21.38,10.603 21.302,10.272 21.211,9.946 21.103,9.627 20.98,9.314 20.843,9.011 
			20.691,8.714 20.526,8.426 20.346,8.145 20.154,7.876 19.95,7.615 19.732,7.366 19.506,7.126 19.266,6.899 19.017,6.682 
			18.756,6.478 18.487,6.286 18.206,6.107 17.918,5.942 17.622,5.787 17.316,5.649 17.004,5.527 16.682,5.418 16.356,5.325 
			16.02,5.248 15.681,5.187 15.336,5.144 14.985,5.117 14.629,5.108 14.274,5.117 13.923,5.144 13.579,5.187 13.239,5.248 
			12.904,5.325 12.575,5.418 12.256,5.527 11.941,5.649 11.635,5.787 11.339,5.942 11.049,6.107 10.77,6.286 10.498,6.478 
			10.238,6.682 9.986,6.899 9.748,7.126 9.52,7.366 9.302,7.615 9.097,7.876 8.904,8.145 8.725,8.426 8.56,8.714 8.405,9.011 
			8.267,9.314 8.145,9.627 8.036,9.946 7.944,10.272 7.867,10.603 7.806,10.942 7.763,11.284 7.735,11.633 7.726,11.986 
			7.735,12.342 7.763,12.693 7.806,13.038 7.867,13.38 7.944,13.712 8.036,14.041 8.145,14.36 8.267,14.675 8.405,14.981 
			8.56,15.277 8.725,15.567 8.904,15.848 9.097,16.118 9.302,16.378 9.52,16.629 9.748,16.87 9.986,17.099 10.238,17.316 
			10.498,17.52 10.77,17.712 11.049,17.893 11.339,18.059 11.635,18.211 11.941,18.349 12.256,18.473 12.575,18.582 12.904,18.675 
			13.239,18.752 13.579,18.813 13.923,18.856 14.274,18.883 		"/>
		<polygon fill="#EC1C2E" points="18.351,7.733 21.845,7.733 21.845,7.348 18.688,7.348 		"/>
		<polygon fill="#EC1C2E" points="17.803,8.548 21.845,8.548 21.845,8.166 18.047,8.166 		"/>
		<polygon fill="#EC1C2E" points="17.393,9.377 21.845,9.377 21.845,8.992 17.581,8.992 		"/>
		<polygon fill="#EC1C2E" points="17.126,10.193 21.845,10.193 21.845,9.81 17.244,9.81 		"/>
		<polygon fill="#EC1C2E" points="16.951,11.01 21.845,11.01 21.845,10.625 17.021,10.625 		"/>
		<polygon fill="#EC1C2E" points="16.915,12.594 21.845,12.594 21.845,12.208 16.881,12.208 		"/>
		<polygon fill="#EC1C2E" points="17.033,13.457 21.845,13.457 21.845,13.071 16.963,13.071 		"/>
		<polygon fill="#EC1C2E" points="17.266,14.157 21.845,14.157 21.845,13.771 17.148,13.771 		"/>
		<polygon fill="#EC1C2E" points="17.614,15.008 21.845,15.008 21.845,14.623 17.429,14.623 		"/>
		<polygon fill="#EC1C2E" points="18.106,15.871 21.845,15.871 21.845,15.486 17.848,15.486 		"/>
		<polygon fill="#EC1C2E" points="18.722,16.7 21.812,16.7 21.812,16.315 18.385,16.315 		"/>
		<g>
			<g>
				<polygon fill="#EC1C2E" points="29.54,16.22 29.56,16.159 29.594,16.102 29.637,16.052 29.687,16.011 29.743,15.98 
					29.805,15.959 29.871,15.952 29.938,15.959 30.002,15.98 30.058,16.011 30.108,16.052 30.149,16.102 30.181,16.159 
					30.201,16.22 30.131,16.22 30.117,16.177 30.092,16.129 30.061,16.088 30.022,16.056 29.976,16.032 29.924,16.016 
					29.871,16.011 29.816,16.016 29.764,16.032 29.719,16.056 29.677,16.088 29.646,16.129 29.621,16.177 29.607,16.22 				"/>
				<polygon fill="#EC1C2E" points="29.753,16.22 29.753,16.138 29.881,16.138 29.911,16.14 29.936,16.143 29.959,16.15 
					29.976,16.159 29.991,16.17 30.002,16.183 30.009,16.199 30.01,16.22 29.952,16.22 29.952,16.22 29.949,16.208 29.945,16.199 
					29.938,16.19 29.929,16.183 29.918,16.179 29.907,16.177 29.896,16.174 29.881,16.174 29.812,16.174 29.812,16.22 				"/>
				<polygon fill="#EC1C2E" points="29.535,16.279 29.54,16.222 29.54,16.22 29.607,16.22 29.605,16.231 29.601,16.279 				"/>
				<polygon fill="#EC1C2E" points="29.753,16.279 29.753,16.22 29.812,16.22 29.812,16.267 29.871,16.267 29.891,16.267 
					29.909,16.267 29.922,16.265 29.933,16.26 29.94,16.256 29.948,16.247 29.952,16.236 29.952,16.22 30.01,16.22 30.01,16.22 
					30.009,16.24 30.004,16.258 29.997,16.272 29.991,16.279 				"/>
				<polygon fill="#EC1C2E" points="30.138,16.279 30.133,16.231 30.131,16.22 30.201,16.22 30.201,16.222 30.208,16.279 				"/>
				<polygon fill="#EC1C2E" points="29.535,16.279 29.533,16.29 29.54,16.358 29.56,16.421 29.594,16.476 29.637,16.525 
					29.687,16.564 29.743,16.594 29.805,16.611 29.871,16.618 29.938,16.611 30.002,16.594 30.058,16.564 30.108,16.525 
					30.149,16.476 30.181,16.421 30.201,16.358 30.208,16.29 30.208,16.279 30.138,16.279 30.138,16.29 30.133,16.349 
					30.117,16.403 30.092,16.451 30.061,16.492 30.022,16.525 29.976,16.55 29.924,16.566 29.871,16.571 29.816,16.566 
					29.764,16.55 29.719,16.525 29.677,16.492 29.646,16.451 29.621,16.403 29.605,16.349 29.601,16.29 29.601,16.279 				"/>
				<polygon fill="#EC1C2E" points="29.753,16.279 29.753,16.419 29.812,16.419 29.812,16.304 29.871,16.304 29.94,16.419 
					30,16.419 29.916,16.304 29.936,16.301 29.957,16.299 29.972,16.292 29.986,16.283 29.991,16.279 				"/>
			</g>
		</g>
		<polygon fill="#FFFFFF" points="22.278,11.407 22.233,11.405 22.187,11.4 22.147,11.393 22.106,11.389 22.065,11.382 
			22.025,11.375 21.982,11.368 21.936,11.362 21.888,11.357 21.839,11.352 21.782,11.348 21.721,11.345 21.653,11.345 
			21.578,11.348 21.494,11.352 21.404,11.359 21.339,11.368 21.277,11.382 21.221,11.4 21.17,11.421 21.126,11.445 21.085,11.473 
			21.051,11.504 21.024,11.536 21.003,11.572 20.989,11.611 20.983,11.649 20.983,11.69 20.992,11.733 21.008,11.776 21.032,11.819 
			21.065,11.862 21.13,11.921 21.207,11.969 21.298,12.009 21.395,12.043 21.497,12.077 21.603,12.111 21.712,12.15 21.816,12.195 
			21.914,12.249 22.006,12.315 22.088,12.399 22.156,12.498 22.208,12.621 22.242,12.766 22.254,12.938 22.242,13.142 
			22.217,13.293 22.176,13.429 22.124,13.552 22.059,13.66 21.982,13.755 21.898,13.837 21.805,13.907 21.705,13.968 21.601,14.018 
			21.492,14.059 21.381,14.093 21.27,14.118 21.16,14.136 21.051,14.147 20.947,14.154 20.845,14.157 20.705,14.157 20.577,14.154 
			20.462,14.152 20.355,14.15 20.258,14.145 20.172,14.14 20.09,14.134 20.018,14.125 19.95,14.115 19.887,14.104 19.827,14.093 
			19.768,14.077 19.715,14.061 19.66,14.045 19.606,14.025 19.549,14.005 19.689,13.293 19.722,13.3 19.76,13.311 19.807,13.323 
			19.859,13.336 19.921,13.348 19.988,13.364 20.061,13.377 20.138,13.391 20.22,13.402 20.306,13.413 20.394,13.423 20.486,13.431 
			20.58,13.436 20.675,13.438 20.77,13.438 20.867,13.434 20.958,13.418 21.032,13.393 21.089,13.357 21.134,13.316 21.169,13.268 
			21.194,13.219 21.213,13.169 21.227,13.119 21.234,13.067 21.232,13.022 21.221,12.978 21.203,12.942 21.178,12.906 
			21.146,12.874 21.108,12.845 21.065,12.818 21.017,12.793 20.965,12.768 20.908,12.743 20.849,12.721 20.791,12.698 
			20.727,12.673 20.664,12.648 20.598,12.621 20.535,12.594 20.471,12.564 20.407,12.53 20.346,12.494 20.287,12.455 20.233,12.412 
			20.181,12.362 20.134,12.31 20.09,12.251 20.052,12.188 20.02,12.118 19.993,12.043 19.974,11.959 19.964,11.869 19.961,11.769 
			19.968,11.663 19.974,11.597 19.984,11.533 19.993,11.473 20.007,11.413 20.02,11.357 20.036,11.3 20.056,11.248 20.077,11.196 
			20.101,11.148 20.126,11.101 20.156,11.058 20.188,11.015 20.222,10.974 20.258,10.935 20.297,10.899 20.339,10.865 
			20.385,10.834 20.433,10.804 20.485,10.777 20.539,10.75 20.596,10.727 20.657,10.704 20.72,10.687 20.788,10.668 20.861,10.652 
			20.935,10.639 21.013,10.628 21.094,10.619 21.18,10.612 21.27,10.607 21.364,10.603 21.461,10.603 21.581,10.603 21.689,10.605 
			21.787,10.607 21.878,10.612 21.957,10.616 22.029,10.621 22.095,10.628 22.152,10.632 22.204,10.639 22.248,10.646 22.292,10.65 
			22.328,10.657 22.36,10.662 22.389,10.666 22.416,10.671 22.441,10.673 		"/>
		<g>
			<g>
				<polyline fill="none" stroke="#FFFFFF" stroke-width="0.215" points="22.278,11.407 22.278,11.407 22.233,11.405 22.187,11.4 
					22.147,11.393 22.106,11.389 22.065,11.382 22.025,11.375 21.982,11.368 21.936,11.362 21.888,11.357 21.839,11.352 
					21.782,11.348 21.721,11.345 21.653,11.345 21.578,11.348 21.494,11.352 21.404,11.359 21.404,11.359 21.339,11.368 
					21.277,11.382 21.221,11.4 21.17,11.421 21.126,11.445 21.085,11.473 21.051,11.504 21.024,11.536 21.003,11.572 20.989,11.611 
					20.983,11.649 20.983,11.69 20.992,11.733 21.008,11.776 21.032,11.819 21.065,11.862 21.065,11.862 21.13,11.921 
					21.207,11.969 21.298,12.009 21.395,12.043 21.497,12.077 21.603,12.111 21.712,12.15 21.816,12.195 21.914,12.249 
					22.006,12.315 22.088,12.399 22.156,12.498 22.208,12.621 22.242,12.766 22.254,12.938 22.242,13.142 22.242,13.142 
					22.217,13.293 22.176,13.429 22.124,13.552 22.059,13.66 21.982,13.755 21.898,13.837 21.805,13.907 21.705,13.968 
					21.601,14.018 21.492,14.059 21.381,14.093 21.27,14.118 21.16,14.136 21.051,14.147 20.947,14.154 20.845,14.157 
					20.845,14.157 20.705,14.157 20.577,14.154 20.462,14.152 20.355,14.15 20.258,14.145 20.172,14.14 20.09,14.134 20.018,14.125 
					19.95,14.115 19.887,14.104 19.827,14.093 19.768,14.077 19.715,14.061 19.66,14.045 19.606,14.025 19.549,14.005 
					19.689,13.293 19.689,13.293 19.722,13.3 19.76,13.311 19.807,13.323 19.859,13.336 19.921,13.348 19.988,13.364 20.061,13.377 
					20.138,13.391 20.22,13.402 20.306,13.413 20.394,13.423 20.486,13.431 20.58,13.436 20.675,13.438 20.77,13.438 20.867,13.434 
					20.867,13.434 20.958,13.418 21.032,13.393 21.089,13.357 21.134,13.316 21.169,13.268 21.194,13.219 21.213,13.169 
					21.227,13.119 21.227,13.119 21.234,13.067 21.232,13.022 21.221,12.978 21.203,12.942 21.178,12.906 21.146,12.874 
					21.108,12.845 21.065,12.818 21.017,12.793 20.965,12.768 20.908,12.743 20.849,12.721 20.791,12.698 20.727,12.673 
					20.664,12.648 20.598,12.621 20.535,12.594 20.471,12.564 20.407,12.53 20.346,12.494 20.287,12.455 20.233,12.412 
					20.181,12.362 20.134,12.31 20.09,12.251 20.052,12.188 20.02,12.118 19.993,12.043 19.974,11.959 19.964,11.869 19.961,11.769 
					19.968,11.663 19.968,11.663 19.974,11.597 19.984,11.533 19.993,11.473 20.007,11.413 20.02,11.357 20.036,11.3 20.056,11.248 
					20.077,11.196 20.101,11.148 20.126,11.101 20.156,11.058 20.188,11.015 20.222,10.974 20.258,10.935 20.297,10.899 
					20.339,10.865 20.385,10.834 20.433,10.804 20.485,10.777 20.539,10.75 20.596,10.727 20.657,10.704 20.72,10.687 
					20.788,10.668 20.861,10.652 20.935,10.639 21.013,10.628 21.094,10.619 21.18,10.612 21.27,10.607 21.364,10.603 
					21.461,10.603 21.461,10.603 21.581,10.603 21.689,10.605 21.787,10.607 21.878,10.612 21.957,10.616 22.029,10.621 
					22.095,10.628 22.152,10.632 22.204,10.639 22.248,10.646 22.292,10.65 22.328,10.657 22.36,10.662 22.389,10.666 
					22.416,10.671 22.441,10.673 22.278,11.407 				"/>
			</g>
		</g>
		<polygon fill="#FFFFFF" points="23.023,9.891 23.934,9.891 23.794,10.684 24.353,10.684 24.226,11.407 23.653,11.395 23.352,13.2 
			23.347,13.239 23.347,13.273 23.352,13.303 23.361,13.33 23.374,13.352 23.39,13.375 23.411,13.393 23.434,13.406 23.461,13.42 
			23.488,13.431 23.519,13.441 23.551,13.445 23.588,13.452 23.624,13.454 23.662,13.457 23.701,13.457 23.773,13.457 
			23.837,13.452 23.895,13.443 23.945,13.431 23.984,13.42 24.013,13.409 24.032,13.4 24.038,13.398 23.945,14.016 23.922,14.03 
			23.898,14.041 23.872,14.052 23.848,14.064 23.823,14.073 23.795,14.082 23.769,14.09 23.737,14.1 23.705,14.109 23.671,14.115 
			23.633,14.122 23.592,14.129 23.549,14.136 23.504,14.143 23.452,14.15 23.397,14.157 23.153,14.157 23.023,14.147 22.908,14.134 
			22.806,14.115 22.718,14.09 22.643,14.064 22.58,14.03 22.527,13.991 22.485,13.948 22.451,13.9 22.425,13.848 22.41,13.792 
			22.401,13.728 22.398,13.663 22.401,13.59 22.408,13.515 22.419,13.434 		"/>
		<g>
			<g>
				<polyline fill="none" stroke="#FFFFFF" stroke-width="0.215" points="23.023,9.891 23.934,9.891 23.794,10.684 24.353,10.684 
					24.226,11.407 23.653,11.395 23.352,13.2 23.352,13.2 23.347,13.239 23.347,13.273 23.352,13.303 23.361,13.33 23.374,13.352 
					23.39,13.375 23.411,13.393 23.434,13.406 23.461,13.42 23.488,13.431 23.519,13.441 23.551,13.445 23.588,13.452 
					23.624,13.454 23.662,13.457 23.701,13.457 23.701,13.457 23.773,13.457 23.837,13.452 23.895,13.443 23.945,13.431 
					23.984,13.42 24.013,13.409 24.032,13.4 24.038,13.398 23.945,14.016 23.945,14.016 23.922,14.03 23.898,14.041 23.872,14.052 
					23.848,14.064 23.823,14.073 23.795,14.082 23.769,14.09 23.737,14.1 23.705,14.109 23.671,14.115 23.633,14.122 23.592,14.129 
					23.549,14.136 23.504,14.143 23.452,14.15 23.397,14.157 23.153,14.157 23.153,14.157 23.023,14.147 22.908,14.134 
					22.806,14.115 22.718,14.09 22.643,14.064 22.58,14.03 22.527,13.991 22.485,13.948 22.451,13.9 22.425,13.848 22.41,13.792 
					22.401,13.728 22.398,13.663 22.401,13.59 22.408,13.515 22.419,13.434 23.023,9.891 				"/>
			</g>
		</g>
		<polygon fill="#FFFFFF" points="17.488,12.641 17.477,12.698 17.474,12.754 17.479,12.816 17.493,12.874 17.51,12.936 
			17.538,12.997 17.57,13.055 17.608,13.112 17.651,13.167 17.701,13.219 17.753,13.264 17.81,13.307 17.87,13.343 17.934,13.373 
			18.002,13.395 18.07,13.411 18.151,13.423 18.233,13.434 18.317,13.443 18.401,13.447 18.487,13.45 18.57,13.45 18.659,13.445 
			18.745,13.438 18.833,13.425 18.924,13.409 19.014,13.386 19.105,13.357 19.195,13.323 19.291,13.282 19.384,13.232 
			19.479,13.178 19.338,13.982 19.286,14.009 19.234,14.034 19.186,14.055 19.137,14.073 19.087,14.09 19.037,14.104 18.985,14.115 
			18.929,14.127 18.87,14.134 18.807,14.14 18.736,14.147 18.661,14.15 18.58,14.154 18.489,14.154 18.389,14.157 18.28,14.157 
			18.202,14.157 18.12,14.152 18.041,14.147 17.959,14.138 17.875,14.127 17.794,14.113 17.712,14.095 17.631,14.077 17.551,14.052 
			17.472,14.027 17.395,13.998 17.318,13.964 17.244,13.925 17.171,13.884 17.103,13.839 17.035,13.789 16.972,13.735 
			16.911,13.676 16.851,13.613 16.799,13.545 16.75,13.47 16.704,13.393 16.664,13.31 16.627,13.221 16.595,13.126 16.571,13.026 
			16.55,12.922 16.537,12.809 16.528,12.691 16.528,12.569 16.533,12.437 16.543,12.301 16.55,12.254 16.557,12.2 16.566,12.145 
			16.578,12.086 16.589,12.025 16.604,11.962 16.623,11.896 16.641,11.828 16.664,11.758 16.689,11.69 16.718,11.619 16.75,11.55 
			16.786,11.479 16.824,11.409 16.868,11.339 16.913,11.271 16.964,11.205 17.019,11.139 17.078,11.076 17.144,11.017 
			17.212,10.958 17.287,10.904 17.366,10.854 17.452,10.806 17.543,10.766 17.64,10.727 17.742,10.693 17.851,10.666 17.966,10.643 
			18.089,10.628 18.215,10.619 18.351,10.614 18.414,10.614 18.478,10.619 18.544,10.623 18.609,10.63 18.675,10.639 18.743,10.652 
			18.808,10.668 18.874,10.687 18.94,10.707 19.005,10.732 19.069,10.759 19.13,10.791 19.189,10.827 19.248,10.865 19.302,10.911 
			19.357,10.958 19.406,11.01 19.454,11.067 19.497,11.13 19.536,11.196 19.571,11.268 19.604,11.345 19.631,11.429 19.651,11.518 
			19.67,11.613 19.68,11.712 19.685,11.819 19.685,11.932 19.678,12.052 19.667,12.179 19.647,12.313 19.619,12.453 19.583,12.652 
			17.23,12.652 17.37,12.023 18.782,12.023 18.788,11.937 18.788,11.857 18.783,11.783 18.77,11.715 18.752,11.654 18.729,11.597 
			18.7,11.547 18.666,11.502 18.627,11.461 18.584,11.427 18.539,11.4 18.492,11.377 18.439,11.359 18.385,11.345 18.328,11.339 
			18.27,11.336 18.206,11.336 18.147,11.345 18.089,11.357 18.034,11.375 17.982,11.4 17.932,11.429 17.885,11.463 17.841,11.502 
			17.801,11.547 17.764,11.595 17.73,11.647 17.699,11.703 17.672,11.762 17.648,11.826 17.631,11.894 17.614,11.964 		"/>
		<g>
			<g>
				<polyline fill="none" stroke="#FFFFFF" stroke-width="0.215" points="17.488,12.641 17.488,12.641 17.477,12.698 17.474,12.754 
					17.479,12.816 17.493,12.874 17.51,12.936 17.538,12.997 17.57,13.055 17.608,13.112 17.651,13.167 17.701,13.219 
					17.753,13.264 17.81,13.307 17.87,13.343 17.934,13.373 18.002,13.395 18.07,13.411 18.07,13.411 18.151,13.423 18.233,13.434 
					18.317,13.443 18.401,13.447 18.487,13.45 18.57,13.45 18.659,13.445 18.745,13.438 18.833,13.425 18.924,13.409 19.014,13.386 
					19.105,13.357 19.195,13.323 19.291,13.282 19.384,13.232 19.479,13.178 19.338,13.982 19.338,13.982 19.286,14.009 
					19.234,14.034 19.186,14.055 19.137,14.073 19.087,14.09 19.037,14.104 18.985,14.115 18.929,14.127 18.87,14.134 18.807,14.14 
					18.736,14.147 18.661,14.15 18.58,14.154 18.489,14.154 18.389,14.157 18.28,14.157 18.28,14.157 18.202,14.157 18.12,14.152 
					18.041,14.147 17.959,14.138 17.875,14.127 17.794,14.113 17.712,14.095 17.631,14.077 17.551,14.052 17.472,14.027 
					17.395,13.998 17.318,13.964 17.244,13.925 17.171,13.884 17.103,13.839 17.035,13.789 16.972,13.735 16.911,13.676 
					16.851,13.613 16.799,13.545 16.75,13.47 16.704,13.393 16.664,13.31 16.627,13.221 16.595,13.126 16.571,13.026 16.55,12.922 
					16.537,12.809 16.528,12.691 16.528,12.569 16.533,12.437 16.543,12.301 16.543,12.301 16.55,12.254 16.557,12.2 16.566,12.145 
					16.578,12.086 16.589,12.025 16.604,11.962 16.623,11.896 16.641,11.828 16.664,11.758 16.689,11.69 16.718,11.619 16.75,11.55 
					16.786,11.479 16.824,11.409 16.868,11.339 16.913,11.271 16.964,11.205 17.019,11.139 17.078,11.076 17.144,11.017 
					17.212,10.958 17.287,10.904 17.366,10.854 17.452,10.806 17.543,10.766 17.64,10.727 17.742,10.693 17.851,10.666 
					17.966,10.643 18.089,10.628 18.215,10.619 18.351,10.614 18.351,10.614 18.414,10.614 18.478,10.619 18.544,10.623 
					18.609,10.63 18.675,10.639 18.743,10.652 18.808,10.668 18.874,10.687 18.94,10.707 19.005,10.732 19.069,10.759 19.13,10.791 
					19.189,10.827 19.248,10.865 19.302,10.911 19.357,10.958 19.406,11.01 19.454,11.067 19.497,11.13 19.536,11.196 
					19.571,11.268 19.604,11.345 19.631,11.429 19.651,11.518 19.67,11.613 19.68,11.712 19.685,11.819 19.685,11.932 
					19.678,12.052 19.667,12.179 19.647,12.313 19.619,12.453 19.583,12.652 17.23,12.652 17.37,12.023 18.782,12.023 
					18.782,12.023 18.788,11.937 18.788,11.857 18.783,11.783 18.77,11.715 18.752,11.654 18.729,11.597 18.7,11.547 18.666,11.502 
					18.627,11.461 18.584,11.427 18.539,11.4 18.492,11.377 18.439,11.359 18.385,11.345 18.328,11.339 18.27,11.336 18.27,11.336 
					18.206,11.336 18.147,11.345 18.089,11.357 18.034,11.375 17.982,11.4 17.932,11.429 17.885,11.463 17.841,11.502 
					17.801,11.547 17.764,11.595 17.73,11.647 17.699,11.703 17.672,11.762 17.648,11.826 17.631,11.894 17.614,11.964 
					17.488,12.641 				"/>
			</g>
		</g>
		<polygon fill="#FFFFFF" points="16.229,13.434 16.1,14.157 15.282,14.157 15.291,14.088 15.3,14.02 15.309,13.959 15.318,13.903 
			15.327,13.855 15.334,13.814 15.343,13.787 15.352,13.771 15.309,13.821 15.254,13.871 15.194,13.919 15.123,13.964 
			15.049,14.007 14.967,14.048 14.881,14.084 14.793,14.118 14.7,14.147 14.605,14.172 14.51,14.19 14.414,14.204 14.32,14.211 
			14.226,14.213 14.136,14.206 14.047,14.192 13.932,14.165 13.831,14.129 13.737,14.086 13.656,14.038 13.584,13.986 
			13.523,13.928 13.468,13.866 13.422,13.799 13.384,13.731 13.352,13.66 13.327,13.587 13.307,13.513 13.294,13.441 13.285,13.366 
			13.28,13.293 13.277,13.223 13.286,13.097 13.307,12.976 13.337,12.86 13.38,12.752 13.432,12.65 13.49,12.555 13.561,12.467 
			13.635,12.383 13.719,12.308 13.807,12.243 13.903,12.182 14.002,12.129 14.107,12.084 14.213,12.047 14.321,12.021 14.433,12 
			14.437,12 14.453,11.998 14.478,11.995 14.512,11.991 14.55,11.986 14.595,11.982 14.646,11.975 14.7,11.971 14.754,11.966 
			14.808,11.959 14.865,11.955 14.92,11.95 14.969,11.946 15.017,11.944 15.06,11.941 15.096,11.941 15.135,11.941 15.173,11.941 
			15.212,11.941 15.252,11.944 15.291,11.944 15.327,11.946 15.363,11.946 15.4,11.946 15.431,11.948 15.461,11.948 15.486,11.95 
			15.508,11.95 15.526,11.953 15.54,11.953 15.55,11.953 15.551,11.953 15.559,11.93 15.574,11.876 15.586,11.812 15.586,11.756 
			15.581,11.715 15.574,11.676 15.563,11.64 15.547,11.606 15.529,11.574 15.507,11.545 15.483,11.518 15.456,11.49 15.427,11.468 
			15.397,11.45 15.363,11.432 15.33,11.416 15.294,11.405 15.254,11.395 15.216,11.389 15.178,11.384 15.085,11.382 14.988,11.384 
			14.886,11.386 14.782,11.393 14.677,11.4 14.573,11.409 14.469,11.421 14.367,11.432 14.269,11.447 14.177,11.461 14.092,11.477 
			14.014,11.495 13.944,11.513 13.884,11.531 13.837,11.55 13.803,11.57 14.036,10.8 14.104,10.768 14.177,10.739 14.249,10.714 
			14.326,10.693 14.406,10.677 14.487,10.664 14.573,10.652 14.662,10.643 14.752,10.639 14.845,10.634 14.94,10.632 15.04,10.632 
			15.144,10.632 15.248,10.632 15.357,10.634 15.47,10.637 15.563,10.646 15.66,10.659 15.762,10.684 15.864,10.714 15.966,10.752 
			16.068,10.8 16.163,10.854 16.253,10.918 16.338,10.99 16.412,11.069 16.476,11.158 16.525,11.255 16.561,11.362 16.582,11.477 
			16.584,11.599 16.566,11.733 		"/>
		<g>
			<g>
				<polyline fill="none" stroke="#FFFFFF" stroke-width="0.215" points="16.229,13.434 16.1,14.157 15.282,14.157 15.282,14.157 
					15.291,14.088 15.3,14.02 15.309,13.959 15.318,13.903 15.327,13.855 15.334,13.814 15.343,13.787 15.352,13.771 15.352,13.771 
					15.309,13.821 15.254,13.871 15.194,13.919 15.123,13.964 15.049,14.007 14.967,14.048 14.881,14.084 14.793,14.118 
					14.7,14.147 14.605,14.172 14.51,14.19 14.414,14.204 14.32,14.211 14.226,14.213 14.136,14.206 14.047,14.192 14.047,14.192 
					13.932,14.165 13.831,14.129 13.737,14.086 13.656,14.038 13.584,13.986 13.523,13.928 13.468,13.866 13.422,13.799 
					13.384,13.731 13.352,13.66 13.327,13.587 13.307,13.513 13.294,13.441 13.285,13.366 13.28,13.293 13.277,13.223 
					13.277,13.223 13.286,13.097 13.307,12.976 13.337,12.86 13.38,12.752 13.432,12.65 13.49,12.555 13.561,12.467 13.635,12.383 
					13.719,12.308 13.807,12.243 13.903,12.182 14.002,12.129 14.107,12.084 14.213,12.047 14.321,12.021 14.433,12 14.433,12 
					14.437,12 14.453,11.998 14.478,11.995 14.512,11.991 14.55,11.986 14.595,11.982 14.646,11.975 14.7,11.971 14.754,11.966 
					14.808,11.959 14.865,11.955 14.92,11.95 14.969,11.946 15.017,11.944 15.06,11.941 15.096,11.941 15.096,11.941 15.135,11.941 
					15.173,11.941 15.212,11.941 15.252,11.944 15.291,11.944 15.327,11.946 15.363,11.946 15.4,11.946 15.431,11.948 
					15.461,11.948 15.486,11.95 15.508,11.95 15.526,11.953 15.54,11.953 15.55,11.953 15.551,11.953 15.551,11.953 15.559,11.93 
					15.574,11.876 15.586,11.812 15.586,11.756 15.586,11.756 15.581,11.715 15.574,11.676 15.563,11.64 15.547,11.606 
					15.529,11.574 15.507,11.545 15.483,11.518 15.456,11.49 15.427,11.468 15.397,11.45 15.363,11.432 15.33,11.416 15.294,11.405 
					15.254,11.395 15.216,11.389 15.178,11.384 15.178,11.384 15.085,11.382 14.988,11.384 14.886,11.386 14.782,11.393 
					14.677,11.4 14.573,11.409 14.469,11.421 14.367,11.432 14.269,11.447 14.177,11.461 14.092,11.477 14.014,11.495 
					13.944,11.513 13.884,11.531 13.837,11.55 13.803,11.57 14.036,10.8 14.036,10.8 14.104,10.768 14.177,10.739 14.249,10.714 
					14.326,10.693 14.406,10.677 14.487,10.664 14.573,10.652 14.662,10.643 14.752,10.639 14.845,10.634 14.94,10.632 
					15.04,10.632 15.144,10.632 15.248,10.632 15.357,10.634 15.47,10.637 15.47,10.637 15.563,10.646 15.66,10.659 15.762,10.684 
					15.864,10.714 15.966,10.752 16.068,10.8 16.163,10.854 16.253,10.918 16.338,10.99 16.412,11.069 16.476,11.158 16.525,11.255 
					16.561,11.362 16.582,11.477 16.584,11.599 16.566,11.733 16.229,13.434 				"/>
			</g>
		</g>
		<polygon fill="#0084C4" points="15.447,12.582 15.445,12.564 15.431,12.55 15.409,12.539 15.38,12.533 15.341,12.528 15.3,12.526 
			15.252,12.526 15.203,12.526 15.151,12.53 15.096,12.537 15.044,12.544 14.992,12.553 14.942,12.562 14.895,12.571 14.854,12.582 
			14.818,12.594 14.797,12.598 14.77,12.607 14.736,12.618 14.7,12.634 14.662,12.65 14.618,12.671 14.575,12.695 14.532,12.721 
			14.49,12.752 14.448,12.786 14.41,12.822 14.376,12.863 14.344,12.906 14.321,12.954 14.304,13.006 14.292,13.06 14.288,13.171 
			14.304,13.257 14.33,13.325 14.372,13.375 14.421,13.409 14.473,13.431 14.53,13.443 14.584,13.445 14.684,13.443 14.772,13.434 
			14.856,13.418 14.931,13.398 14.999,13.375 15.06,13.348 15.114,13.316 15.162,13.282 15.205,13.248 15.242,13.21 15.273,13.173 
			15.3,13.135 15.323,13.097 15.341,13.06 15.354,13.024 15.366,12.99 15.377,12.94 15.388,12.888 15.4,12.833 15.411,12.777 
			15.42,12.723 15.429,12.673 15.438,12.625 		"/>
		<polygon fill="#FFFFFF" points="9.393,14.157 8.508,14.157 9.253,9.891 10.793,9.891 10.945,12.431 11.993,9.891 13.593,9.891 
			12.845,14.157 11.96,14.157 12.519,10.963 12.485,10.963 11.167,14.157 10.175,14.157 10.166,14.023 10.145,13.667 10.115,13.164 
			10.081,12.587 10.048,12.004 10.018,11.49 9.998,11.119 9.989,10.963 9.986,10.963 9.977,10.963 9.968,10.963 9.957,10.963 
			9.948,10.963 9.943,10.963 9.943,10.963 9.953,10.963 		"/>
		<g>
			<g>
				<polyline fill="none" stroke="#FFFFFF" stroke-width="0.215" points="9.393,14.157 8.508,14.157 9.253,9.891 10.793,9.891 
					10.945,12.431 11.993,9.891 13.593,9.891 12.845,14.157 11.96,14.157 12.519,10.963 12.485,10.963 11.167,14.157 10.175,14.157 
					10.175,14.157 10.166,14.023 10.145,13.667 10.115,13.164 10.081,12.587 10.048,12.004 10.018,11.49 9.998,11.119 9.989,10.963 
					9.989,10.963 9.986,10.963 9.977,10.963 9.968,10.963 9.957,10.963 9.948,10.963 9.943,10.963 9.943,10.963 9.953,10.963 
					9.393,14.157 				"/>
			</g>
		</g>
		<polygon fill="#FFFFFF" points="24.19,14.157 25.111,14.157 25.111,14.157 25.427,12.315 25.44,12.243 25.456,12.172 
			25.474,12.102 25.497,12.037 25.522,11.971 25.553,11.909 25.592,11.851 25.635,11.794 25.687,11.744 25.746,11.699 
			25.816,11.658 25.894,11.622 25.984,11.592 26.085,11.57 26.199,11.556 26.326,11.547 26.337,11.547 26.351,11.55 26.369,11.552 
			26.387,11.552 26.402,11.554 26.416,11.556 26.425,11.558 26.43,11.558 26.432,11.545 26.442,11.506 26.453,11.447 26.471,11.373 
			26.493,11.289 26.518,11.198 26.548,11.108 26.582,11.022 26.607,10.958 26.636,10.897 26.665,10.836 26.697,10.78 26.725,10.732 
			26.747,10.693 26.763,10.668 26.767,10.659 26.763,10.659 26.752,10.655 26.735,10.652 26.713,10.648 26.69,10.643 26.663,10.641 
			26.639,10.637 26.616,10.637 26.516,10.643 26.425,10.655 26.342,10.673 26.264,10.693 26.192,10.72 26.126,10.75 26.063,10.786 
			26.007,10.825 25.95,10.868 25.898,10.915 25.85,10.965 25.8,11.019 25.752,11.076 25.708,11.137 25.66,11.201 25.613,11.266 
			25.719,10.684 24.797,10.673 24.19,14.157 		"/>
		<g>
			<g>
				<polyline fill="none" stroke="#FFFFFF" stroke-width="0.215" points="24.19,14.157 25.111,14.157 25.111,14.157 25.427,12.315 
					25.427,12.315 25.44,12.243 25.456,12.172 25.474,12.102 25.497,12.037 25.522,11.971 25.553,11.909 25.592,11.851 
					25.635,11.794 25.687,11.744 25.746,11.699 25.816,11.658 25.894,11.622 25.984,11.592 26.085,11.57 26.199,11.556 
					26.326,11.547 26.326,11.547 26.337,11.547 26.351,11.55 26.369,11.552 26.387,11.552 26.402,11.554 26.416,11.556 
					26.425,11.558 26.43,11.558 26.43,11.558 26.432,11.545 26.442,11.506 26.453,11.447 26.471,11.373 26.493,11.289 
					26.518,11.198 26.548,11.108 26.582,11.022 26.582,11.022 26.607,10.958 26.636,10.897 26.665,10.836 26.697,10.78 
					26.725,10.732 26.747,10.693 26.763,10.668 26.767,10.659 26.767,10.659 26.763,10.659 26.752,10.655 26.735,10.652 
					26.713,10.648 26.69,10.643 26.663,10.641 26.639,10.637 26.616,10.637 26.616,10.637 26.516,10.643 26.425,10.655 
					26.342,10.673 26.264,10.693 26.192,10.72 26.126,10.75 26.063,10.786 26.007,10.825 25.95,10.868 25.898,10.915 25.85,10.965 
					25.8,11.019 25.752,11.076 25.708,11.137 25.66,11.201 25.613,11.266 25.719,10.684 24.797,10.673 24.19,14.157 24.19,14.157 
									"/>
			</g>
		</g>
		<polygon fill="#FFFFFF" points="28.178,10.637 28.281,10.639 28.38,10.646 28.477,10.655 28.572,10.668 28.663,10.687 
			28.751,10.709 28.835,10.734 28.919,10.763 28.998,10.797 29.073,10.834 29.148,10.872 29.216,10.915 29.284,10.963 
			29.347,11.012 29.406,11.065 29.463,11.121 29.517,11.18 29.567,11.244 29.612,11.307 29.655,11.375 29.695,11.445 29.73,11.52 
			29.764,11.595 29.791,11.674 29.816,11.753 29.836,11.837 29.855,11.923 29.868,12.011 29.877,12.099 29.881,12.193 
			29.884,12.288 29.881,12.383 29.875,12.498 29.861,12.61 29.845,12.716 29.825,12.82 29.802,12.92 29.773,13.015 29.741,13.108 
			29.707,13.196 29.667,13.28 29.626,13.361 29.578,13.438 29.531,13.511 29.478,13.581 29.421,13.647 29.363,13.708 29.302,13.767 
			29.238,13.821 29.173,13.873 29.103,13.921 29.032,13.964 28.957,14.005 28.88,14.041 28.804,14.075 28.722,14.104 28.641,14.131 
			28.555,14.154 28.468,14.172 28.382,14.188 28.292,14.199 28.201,14.208 28.108,14.213 28.016,14.215 27.922,14.213 27.83,14.208 
			27.742,14.199 27.653,14.186 27.567,14.17 27.48,14.152 27.399,14.129 27.32,14.102 27.241,14.073 27.166,14.038 27.094,14.002 
			27.023,13.962 26.956,13.919 26.892,13.871 26.829,13.821 26.77,13.767 26.715,13.71 26.661,13.649 26.613,13.586 26.566,13.518 
			26.525,13.447 26.484,13.373 26.45,13.296 26.419,13.216 26.392,13.133 26.366,13.044 26.346,12.954 26.33,12.86 26.319,12.763 
			26.312,12.664 26.31,12.56 26.312,12.453 26.319,12.345 26.33,12.24 26.346,12.138 26.366,12.041 26.389,11.946 26.416,11.853 
			26.445,11.764 26.48,11.679 26.516,11.595 26.557,11.516 26.602,11.441 26.649,11.366 26.7,11.298 26.754,11.23 26.81,11.169 
			26.869,11.108 26.933,11.051 26.998,10.999 27.067,10.949 27.137,10.904 27.211,10.863 27.288,10.823 27.367,10.788 
			27.447,10.757 27.531,10.73 27.616,10.704 27.705,10.684 27.796,10.666 27.888,10.655 27.983,10.643 28.081,10.639 		"/>
		<g>
			<g>
				<polyline fill="none" stroke="#FFFFFF" stroke-width="0.215" points="28.178,10.637 28.178,10.637 28.281,10.639 28.38,10.646 
					28.477,10.655 28.572,10.668 28.663,10.687 28.751,10.709 28.835,10.734 28.919,10.763 28.998,10.797 29.073,10.834 
					29.148,10.872 29.216,10.915 29.284,10.963 29.347,11.012 29.406,11.065 29.463,11.121 29.517,11.18 29.567,11.244 
					29.612,11.307 29.655,11.375 29.695,11.445 29.73,11.52 29.764,11.595 29.791,11.674 29.816,11.753 29.836,11.837 
					29.855,11.923 29.868,12.011 29.877,12.099 29.881,12.193 29.884,12.288 29.881,12.383 29.881,12.383 29.875,12.498 
					29.861,12.61 29.845,12.716 29.825,12.82 29.802,12.92 29.773,13.015 29.741,13.108 29.707,13.196 29.667,13.28 29.626,13.361 
					29.578,13.438 29.531,13.511 29.478,13.581 29.421,13.647 29.363,13.708 29.302,13.767 29.238,13.821 29.173,13.873 
					29.103,13.921 29.032,13.964 28.957,14.005 28.88,14.041 28.804,14.075 28.722,14.104 28.641,14.131 28.555,14.154 
					28.468,14.172 28.382,14.188 28.292,14.199 28.201,14.208 28.108,14.213 28.016,14.215 28.016,14.215 27.922,14.213 
					27.83,14.208 27.742,14.199 27.653,14.186 27.567,14.17 27.48,14.152 27.399,14.129 27.32,14.102 27.241,14.073 27.166,14.038 
					27.094,14.002 27.023,13.962 26.956,13.919 26.892,13.871 26.829,13.821 26.77,13.767 26.715,13.71 26.661,13.649 
					26.613,13.586 26.566,13.518 26.525,13.447 26.484,13.373 26.45,13.296 26.419,13.216 26.392,13.133 26.366,13.044 
					26.346,12.954 26.33,12.86 26.319,12.763 26.312,12.664 26.31,12.56 26.312,12.453 26.312,12.453 26.319,12.345 26.33,12.24 
					26.346,12.138 26.366,12.041 26.389,11.946 26.416,11.853 26.445,11.764 26.48,11.679 26.516,11.595 26.557,11.516 
					26.602,11.441 26.649,11.366 26.7,11.298 26.754,11.23 26.81,11.169 26.869,11.108 26.933,11.051 26.998,10.999 27.067,10.949 
					27.137,10.904 27.211,10.863 27.288,10.823 27.367,10.788 27.447,10.757 27.531,10.73 27.616,10.704 27.705,10.684 
					27.796,10.666 27.888,10.655 27.983,10.643 28.081,10.639 28.178,10.637 				"/>
			</g>
		</g>
		<polygon fill="#FFFFFF" points="29.533,13.982 29.8,13.982 29.8,14.016 29.695,14.016 29.695,14.238 29.637,14.238 29.637,14.016 
			29.533,14.016 		"/>
		<g>
			<g>
				<polyline fill="none" stroke="#FFFFFF" stroke-width="0.215" points="29.533,13.982 29.8,13.982 29.8,14.016 29.695,14.016 
					29.695,14.238 29.637,14.238 29.637,14.016 29.533,14.016 29.533,13.982 				"/>
			</g>
		</g>
		<polygon fill="#FFFFFF" points="29.834,13.982 29.916,13.982 30.01,14.179 30.01,14.179 30.104,13.982 30.186,13.982 
			30.186,14.238 30.126,14.238 30.126,14.041 30.126,14.041 30.033,14.238 29.986,14.238 29.893,14.041 29.893,14.041 
			29.893,14.238 29.834,14.238 		"/>
		<g>
			<g>
				<polyline fill="none" stroke="#FFFFFF" stroke-width="0.215" points="29.834,13.982 29.916,13.982 30.01,14.179 30.01,14.179 
					30.104,13.982 30.186,13.982 30.186,14.238 30.126,14.238 30.126,14.041 30.126,14.041 30.033,14.238 29.986,14.238 
					29.893,14.041 29.893,14.041 29.893,14.238 29.834,14.238 29.834,13.982 				"/>
			</g>
		</g>
		<polygon fill="#EC1C2E" points="27.456,12.301 27.442,12.428 27.435,12.546 27.435,12.652 27.442,12.752 27.456,12.843 
			27.476,12.922 27.501,12.994 27.533,13.06 27.571,13.116 27.614,13.164 27.662,13.205 27.714,13.237 27.771,13.261 27.834,13.28 
			27.9,13.289 27.97,13.293 28.047,13.291 28.122,13.282 28.192,13.266 28.26,13.241 28.324,13.21 28.385,13.169 28.441,13.121 
			28.495,13.064 28.543,13.001 28.589,12.928 28.632,12.847 28.667,12.759 28.702,12.662 28.731,12.555 28.754,12.439 
			28.774,12.315 28.786,12.217 28.792,12.125 28.792,12.034 28.786,11.948 28.774,11.869 28.756,11.792 28.731,11.721 
			28.702,11.656 28.666,11.597 28.624,11.547 28.577,11.502 28.525,11.466 28.466,11.436 28.403,11.418 28.335,11.407 28.26,11.407 
			28.167,11.413 28.081,11.429 28.001,11.456 27.927,11.49 27.859,11.536 27.796,11.586 27.739,11.642 27.689,11.706 27.642,11.773 
			27.601,11.846 27.564,11.918 27.535,11.995 27.508,12.072 27.485,12.15 27.47,12.227 		"/>
	</g>
</g>
</svg>
