<?xml version="1.0" encoding="utf-8"?>
<!-- Generator: Adobe Illustrator 17.0.0, SVG Export Plug-In . SVG Version: 6.00 Build 0)  -->
<!DOCTYPE svg PUBLIC "-//W3C//DTD SVG 1.1//EN" "http://www.w3.org/Graphics/SVG/1.1/DTD/svg11.dtd">
<svg version="1.1" id="Слой_1" xmlns="http://www.w3.org/2000/svg" xmlns:xlink="http://www.w3.org/1999/xlink" x="0px" y="0px"
	 width="38.4px" height="24px" viewBox="0 0 38.4 24" enable-background="new 0 0 38.4 24" xml:space="preserve">
<g>
	<path fill="#13457C" d="M38.4,22.72c0,0.707-0.573,1.28-1.28,1.28H1.28C0.573,24,0,23.427,0,22.72V1.28C0,0.573,0.573,0,1.28,0
		h35.84c0.707,0,1.28,0.573,1.28,1.28V22.72z"/>
	<g>
		<polygon fill-rule="evenodd" clip-rule="evenodd" fill="#FBB231" points="23.808,18.889 24.164,18.88 24.515,18.855 
			24.858,18.811 25.201,18.75 25.533,18.673 25.861,18.58 26.181,18.471 26.494,18.348 26.801,18.209 27.099,18.058 27.387,17.89 
			27.668,17.711 27.938,17.519 28.198,17.314 28.449,17.098 28.688,16.868 28.919,16.628 29.134,16.377 29.34,16.117 29.532,15.848 
			29.711,15.567 29.878,15.278 30.029,14.981 30.168,14.674 30.291,14.36 30.401,14.039 30.494,13.712 30.571,13.38 30.631,13.038 
			30.675,12.694 30.701,12.343 30.71,11.988 30.701,11.634 30.675,11.286 30.631,10.942 30.571,10.605 30.494,10.273 30.401,9.947 
			30.291,9.627 30.168,9.315 30.029,9.011 29.878,8.713 29.711,8.427 29.532,8.146 29.34,7.877 29.134,7.619 28.919,7.368 
			28.688,7.128 28.449,6.9 28.198,6.684 27.938,6.48 27.668,6.287 27.387,6.108 27.099,5.943 26.801,5.792 26.494,5.652 
			26.181,5.529 25.861,5.42 25.533,5.327 25.201,5.251 24.858,5.19 24.515,5.146 24.164,5.12 23.808,5.111 23.455,5.12 
			23.104,5.146 22.76,5.19 22.421,5.251 22.088,5.327 21.761,5.42 21.442,5.529 21.129,5.652 20.824,5.792 20.529,5.943 
			20.241,6.108 19.962,6.287 19.693,6.48 19.432,6.684 19.183,6.9 18.944,7.128 18.716,7.368 18.501,7.619 18.296,7.877 
			18.105,8.146 17.926,8.427 17.761,8.713 17.608,9.011 17.471,9.315 17.348,9.627 17.241,9.947 17.148,10.273 17.071,10.605 
			17.01,10.942 16.967,11.286 16.941,11.634 16.932,11.988 16.941,12.343 16.967,12.694 17.01,13.038 17.071,13.38 17.148,13.712 
			17.241,14.039 17.348,14.36 17.471,14.674 17.608,14.981 17.761,15.278 17.926,15.567 18.105,15.848 18.296,16.117 18.501,16.377 
			18.716,16.628 18.944,16.868 19.183,17.098 19.432,17.314 19.693,17.519 19.962,17.711 20.241,17.89 20.529,18.058 20.824,18.209 
			21.129,18.348 21.442,18.471 21.761,18.58 22.088,18.673 22.421,18.75 22.76,18.811 23.104,18.855 23.455,18.88 23.808,18.889 
			23.808,18.889 		"/>
		<polygon fill-rule="evenodd" clip-rule="evenodd" fill="#EC1C2E" points="14.592,18.889 14.944,18.88 15.295,18.855 15.64,18.811 
			15.979,18.75 16.311,18.673 16.638,18.58 16.957,18.471 17.271,18.348 17.575,18.209 17.871,18.058 18.158,17.89 18.438,17.711 
			18.707,17.519 18.968,17.314 19.216,17.098 19.455,16.868 19.683,16.628 19.9,16.377 20.104,16.117 20.294,15.848 20.473,15.567 
			20.638,15.278 20.792,14.981 20.929,14.674 21.052,14.36 21.159,14.039 21.252,13.712 21.329,13.38 21.389,13.038 21.433,12.694 
			21.459,12.343 21.468,11.988 21.459,11.634 21.433,11.286 21.389,10.942 21.329,10.605 21.252,10.273 21.159,9.947 21.052,9.627 
			20.929,9.315 20.792,9.011 20.638,8.713 20.473,8.427 20.294,8.146 20.104,7.877 19.9,7.619 19.683,7.368 19.455,7.128 
			19.216,6.9 18.968,6.684 18.707,6.48 18.438,6.287 18.158,6.108 17.871,5.943 17.575,5.792 17.271,5.652 16.957,5.529 
			16.638,5.42 16.311,5.327 15.979,5.251 15.64,5.19 15.295,5.146 14.944,5.12 14.592,5.111 14.236,5.12 13.885,5.146 13.541,5.19 
			13.199,5.251 12.867,5.327 12.54,5.42 12.218,5.529 11.905,5.652 11.598,5.792 11.301,5.943 11.013,6.108 10.731,6.287 
			10.462,6.48 10.202,6.684 9.95,6.9 9.711,7.128 9.481,7.368 9.265,7.619 9.061,7.877 8.868,8.146 8.689,8.427 8.521,8.713 
			8.371,9.011 8.231,9.315 8.108,9.627 7.999,9.947 7.905,10.273 7.829,10.605 7.769,10.942 7.724,11.286 7.699,11.634 7.69,11.988 
			7.699,12.343 7.724,12.694 7.769,13.038 7.829,13.38 7.905,13.712 7.999,14.039 8.108,14.36 8.231,14.674 8.371,14.981 
			8.521,15.278 8.689,15.567 8.868,15.848 9.061,16.117 9.265,16.377 9.481,16.628 9.711,16.868 9.95,17.098 10.202,17.314 
			10.462,17.519 10.731,17.711 11.013,17.89 11.301,18.058 11.598,18.209 11.905,18.348 12.218,18.471 12.54,18.58 12.867,18.673 
			13.199,18.75 13.541,18.811 13.885,18.855 14.236,18.88 14.592,18.889 14.592,18.889 		"/>
		<polygon fill-rule="evenodd" clip-rule="evenodd" fill="#FBB231" points="18.393,7.753 22.054,7.753 22.054,7.379 18.709,7.379 
			18.393,7.753 18.393,7.753 		"/>
		<polygon fill-rule="evenodd" clip-rule="evenodd" fill="#FBB231" points="17.845,8.585 22.054,8.585 22.054,8.211 18.066,8.211 
			17.845,8.585 17.845,8.585 		"/>
		<polygon fill-rule="evenodd" clip-rule="evenodd" fill="#FBB231" points="17.436,9.415 22.054,9.415 22.054,9.041 17.599,9.041 
			17.436,9.415 17.436,9.415 		"/>
		<polygon fill-rule="evenodd" clip-rule="evenodd" fill="#FBB231" points="17.155,10.247 22.054,10.247 22.054,9.873 17.271,9.873 
			17.155,10.247 17.155,10.247 		"/>
		<polygon fill-rule="evenodd" clip-rule="evenodd" fill="#FBB231" points="17.318,14.267 22.065,14.267 22.065,13.893 
			17.201,13.893 17.318,14.267 17.318,14.267 		"/>
		<polygon fill-rule="evenodd" clip-rule="evenodd" fill="#FBB231" points="17.668,15.099 22.065,15.099 22.065,14.725 
			17.494,14.725 17.668,15.099 17.668,15.099 		"/>
		<polygon fill-rule="evenodd" clip-rule="evenodd" fill="#FBB231" points="18.161,15.929 22.065,15.929 22.065,15.555 
			17.926,15.555 18.161,15.929 18.161,15.929 		"/>
		<polygon fill-rule="evenodd" clip-rule="evenodd" fill="#FBB231" points="18.84,16.761 22.065,16.761 22.065,16.384 
			18.512,16.384 18.84,16.761 18.84,16.761 		"/>
		<polygon fill-rule="evenodd" clip-rule="evenodd" fill="#FBB231" points="16.99,11.077 22.054,11.077 22.054,10.702 
			17.062,10.702 16.99,11.077 16.99,11.077 		"/>
		<polygon fill-rule="evenodd" clip-rule="evenodd" fill="#FBB231" points="20.076,13.438 22.007,13.438 22.007,13.063 
			20.145,13.063 20.076,13.438 20.076,13.438 		"/>
		<polygon fill-rule="evenodd" clip-rule="evenodd" fill="#FBB231" points="20.229,12.608 22.007,12.608 22.007,12.231 
			20.299,12.231 20.229,12.608 20.229,12.608 		"/>
		<polygon fill-rule="evenodd" clip-rule="evenodd" fill="#FBB231" points="16.862,12.231 17.364,12.231 17.364,12.608 
			16.885,12.608 16.862,12.231 16.862,12.231 		"/>
		<polygon fill-rule="evenodd" clip-rule="evenodd" fill="#FFFFFF" points="15.925,11.778 15.893,11.776 15.86,11.771 15.83,11.767 
			15.8,11.762 15.772,11.758 15.742,11.753 15.712,11.748 15.679,11.743 15.646,11.739 15.609,11.737 15.568,11.734 15.524,11.732 
			15.475,11.732 15.421,11.734 15.361,11.739 15.294,11.743 15.247,11.751 15.203,11.758 15.163,11.771 15.128,11.785 
			15.096,11.802 15.066,11.82 15.043,11.844 15.022,11.864 15.007,11.89 14.995,11.915 14.991,11.943 14.991,11.971 14.998,12.002 
			15.007,12.032 15.026,12.062 15.049,12.092 15.096,12.136 15.152,12.171 15.217,12.201 15.287,12.227 15.361,12.25 15.438,12.276 
			15.514,12.304 15.589,12.334 15.658,12.373 15.723,12.422 15.782,12.48 15.83,12.552 15.867,12.64 15.89,12.745 15.9,12.871 
			15.89,13.017 15.874,13.126 15.846,13.222 15.809,13.31 15.762,13.386 15.709,13.454 15.649,13.512 15.584,13.563 15.512,13.608 
			15.438,13.642 15.361,13.672 15.282,13.696 15.2,13.714 15.122,13.728 15.044,13.735 14.968,13.74 14.896,13.742 14.796,13.742 
			14.703,13.74 14.622,13.74 14.545,13.738 14.475,13.735 14.412,13.73 14.357,13.726 14.304,13.719 14.254,13.714 14.21,13.705 
			14.167,13.698 14.127,13.686 14.087,13.677 14.05,13.663 14.013,13.649 13.973,13.635 14.078,13.122 14.099,13.126 14.125,13.133 
			14.157,13.142 14.196,13.152 14.238,13.161 14.284,13.17 14.336,13.182 14.391,13.191 14.449,13.2 14.51,13.21 14.573,13.217 
			14.638,13.224 14.705,13.226 14.773,13.228 14.84,13.228 14.907,13.226 14.975,13.212 15.029,13.193 15.071,13.168 15.103,13.136 
			15.126,13.103 15.144,13.065 15.156,13.029 15.166,12.994 15.17,12.926 15.149,12.868 15.11,12.822 15.052,12.782 14.982,12.748 
			14.9,12.713 14.81,12.68 14.719,12.643 14.626,12.601 14.538,12.552 14.457,12.492 14.382,12.42 14.324,12.331 14.283,12.227 
			14.262,12.102 14.264,11.953 14.275,11.862 14.292,11.776 14.315,11.697 14.343,11.623 14.38,11.553 14.422,11.493 14.471,11.434 
			14.529,11.384 14.596,11.339 14.671,11.302 14.754,11.267 14.848,11.242 14.952,11.22 15.066,11.204 15.191,11.195 15.328,11.193 
			15.414,11.193 15.493,11.195 15.565,11.198 15.63,11.2 15.688,11.204 15.742,11.209 15.788,11.214 15.83,11.218 15.87,11.223 
			15.902,11.23 15.933,11.235 15.96,11.239 15.983,11.244 16.005,11.246 16.026,11.251 16.044,11.253 15.925,11.778 15.925,11.778 
					"/>
		<polyline fill="none" stroke="#FFFFFF" stroke-width="0.216" stroke-miterlimit="2.6131" points="15.925,11.778 15.925,11.778 
			15.893,11.776 15.86,11.771 15.83,11.767 15.8,11.762 15.772,11.758 15.742,11.753 15.712,11.748 15.679,11.743 15.646,11.739 
			15.609,11.737 15.568,11.734 15.524,11.732 15.475,11.732 15.421,11.734 15.361,11.739 15.294,11.743 15.294,11.743 
			15.247,11.751 15.203,11.758 15.163,11.771 15.128,11.785 15.096,11.802 15.066,11.82 15.043,11.844 15.022,11.864 15.007,11.89 
			14.995,11.915 14.991,11.943 14.991,11.971 14.998,12.002 15.007,12.032 15.026,12.062 15.049,12.092 15.049,12.092 
			15.096,12.136 15.152,12.171 15.217,12.201 15.287,12.227 15.361,12.25 15.438,12.276 15.514,12.304 15.589,12.334 15.658,12.373 
			15.723,12.422 15.782,12.48 15.83,12.552 15.867,12.64 15.89,12.745 15.9,12.871 15.89,13.017 15.89,13.017 15.874,13.126 
			15.846,13.222 15.809,13.31 15.762,13.386 15.709,13.454 15.649,13.512 15.584,13.563 15.512,13.608 15.438,13.642 15.361,13.672 
			15.282,13.696 15.2,13.714 15.122,13.728 15.044,13.735 14.968,13.74 14.896,13.742 14.896,13.742 14.796,13.742 14.703,13.74 
			14.622,13.74 14.545,13.738 14.475,13.735 14.412,13.73 14.357,13.726 14.304,13.719 14.254,13.714 14.21,13.705 14.167,13.698 
			14.127,13.686 14.087,13.677 14.05,13.663 14.013,13.649 13.973,13.635 14.078,13.122 14.078,13.122 14.099,13.126 14.125,13.133 
			14.157,13.142 14.196,13.152 14.238,13.161 14.284,13.17 14.336,13.182 14.391,13.191 14.449,13.2 14.51,13.21 14.573,13.217 
			14.638,13.224 14.705,13.226 14.773,13.228 14.84,13.228 14.907,13.226 14.907,13.226 14.975,13.212 15.029,13.193 15.071,13.168 
			15.103,13.136 15.126,13.103 15.144,13.065 15.156,13.029 15.166,12.994 15.166,12.994 15.17,12.926 15.149,12.868 15.11,12.822 
			15.052,12.782 14.982,12.748 14.9,12.713 14.81,12.68 14.719,12.643 14.626,12.601 14.538,12.552 14.457,12.492 14.382,12.42 
			14.324,12.331 14.283,12.227 14.262,12.102 14.264,11.953 14.264,11.953 14.275,11.862 14.292,11.776 14.315,11.697 
			14.343,11.623 14.38,11.553 14.422,11.493 14.471,11.434 14.529,11.384 14.596,11.339 14.671,11.302 14.754,11.267 14.848,11.242 
			14.952,11.22 15.066,11.204 15.191,11.195 15.328,11.193 15.328,11.193 15.414,11.193 15.493,11.195 15.565,11.198 15.63,11.2 
			15.688,11.204 15.742,11.209 15.788,11.214 15.83,11.218 15.87,11.223 15.902,11.23 15.933,11.235 15.96,11.239 15.983,11.244 
			16.005,11.246 16.026,11.251 16.044,11.253 15.925,11.778 		"/>
		<polygon fill-rule="evenodd" clip-rule="evenodd" fill="#FFFFFF" points="16.476,10.679 17.12,10.679 17.025,11.242 
			17.413,11.242 17.329,11.767 16.92,11.755 16.697,13.052 16.695,13.098 16.706,13.138 16.729,13.168 16.76,13.193 16.802,13.21 
			16.848,13.224 16.899,13.233 16.955,13.238 17.006,13.236 17.053,13.231 17.094,13.224 17.132,13.215 17.162,13.205 
			17.183,13.198 17.196,13.193 17.201,13.191 17.12,13.624 17.104,13.635 17.088,13.644 17.071,13.654 17.055,13.663 17.039,13.67 
			17.02,13.677 16.999,13.684 16.978,13.691 16.955,13.698 16.932,13.703 16.904,13.707 16.876,13.712 16.845,13.717 16.811,13.721 
			16.774,13.726 16.734,13.73 16.558,13.73 16.465,13.723 16.383,13.714 16.309,13.7 16.246,13.684 16.192,13.663 16.149,13.64 
			16.109,13.612 16.079,13.582 16.055,13.549 16.039,13.51 16.027,13.47 16.021,13.426 16.018,13.377 16.018,13.326 16.026,13.273 
			16.032,13.215 16.476,10.679 16.476,10.679 		"/>
		<polyline fill="none" stroke="#FFFFFF" stroke-width="0.216" stroke-miterlimit="2.6131" points="16.476,10.679 17.12,10.679 
			17.025,11.242 17.413,11.242 17.329,11.767 16.92,11.755 16.697,13.052 16.697,13.052 16.695,13.098 16.706,13.138 16.729,13.168 
			16.76,13.193 16.802,13.21 16.848,13.224 16.899,13.233 16.955,13.238 16.955,13.238 17.006,13.236 17.053,13.231 17.094,13.224 
			17.132,13.215 17.162,13.205 17.183,13.198 17.196,13.193 17.201,13.191 17.12,13.624 17.12,13.624 17.104,13.635 17.088,13.644 
			17.071,13.654 17.055,13.663 17.039,13.67 17.02,13.677 16.999,13.684 16.978,13.691 16.955,13.698 16.932,13.703 16.904,13.707 
			16.876,13.712 16.845,13.717 16.811,13.721 16.774,13.726 16.734,13.73 16.558,13.73 16.558,13.73 16.465,13.723 16.383,13.714 
			16.309,13.7 16.246,13.684 16.192,13.663 16.149,13.64 16.109,13.612 16.079,13.582 16.055,13.549 16.039,13.51 16.027,13.47 
			16.021,13.426 16.018,13.377 16.018,13.326 16.026,13.273 16.032,13.215 16.476,10.679 		"/>
		<polyline fill="none" stroke="#FFFFFF" stroke-width="0.216" stroke-miterlimit="2.6131" points="17.926,12.643 17.926,12.643 
			17.92,12.682 17.918,12.724 17.921,12.768 17.931,12.812 17.947,12.857 17.966,12.899 17.991,12.943 18.019,12.982 18.052,13.022 
			18.087,13.057 18.124,13.091 18.166,13.119 18.207,13.145 18.254,13.166 18.3,13.182 18.347,13.191 18.347,13.191 18.408,13.2 
			18.465,13.208 18.526,13.215 18.587,13.219 18.646,13.222 18.709,13.222 18.77,13.219 18.832,13.215 18.895,13.205 18.959,13.193 
			19.023,13.18 19.086,13.159 19.151,13.133 19.219,13.105 19.283,13.068 19.351,13.029 19.258,13.6 19.258,13.6 19.221,13.619 
			19.183,13.638 19.146,13.651 19.112,13.666 19.077,13.677 19.039,13.689 19.002,13.698 18.963,13.705 18.921,13.712 
			18.874,13.717 18.826,13.721 18.772,13.726 18.712,13.728 18.649,13.728 18.577,13.73 18.501,13.73 18.501,13.73 18.386,13.728 
			18.27,13.717 18.154,13.7 18.038,13.672 17.924,13.638 17.815,13.593 17.71,13.535 17.613,13.468 17.522,13.389 17.443,13.294 
			17.376,13.187 17.32,13.063 17.28,12.926 17.254,12.77 17.248,12.599 17.259,12.408 17.259,12.408 17.269,12.334 17.283,12.248 
			17.301,12.157 17.327,12.059 17.362,11.96 17.403,11.86 17.457,11.758 17.522,11.66 17.596,11.567 17.687,11.479 17.789,11.4 
			17.906,11.33 18.04,11.272 18.191,11.23 18.359,11.202 18.547,11.193 18.547,11.193 18.637,11.195 18.733,11.204 18.828,11.22 
			18.923,11.244 19.017,11.279 19.107,11.321 19.191,11.376 19.267,11.441 19.337,11.521 19.395,11.614 19.442,11.72 19.474,11.844 
			19.493,11.983 19.495,12.141 19.479,12.317 19.444,12.513 19.432,12.655 17.738,12.655 17.845,12.197 18.863,12.197 
			18.863,12.197 18.868,12.139 18.865,12.083 18.86,12.032 18.852,11.985 18.835,11.941 18.819,11.901 18.795,11.867 18.772,11.834 
			18.744,11.806 18.714,11.783 18.679,11.762 18.644,11.743 18.608,11.73 18.57,11.72 18.53,11.713 18.489,11.709 18.489,11.709 
			18.444,11.711 18.403,11.718 18.364,11.728 18.324,11.741 18.284,11.76 18.249,11.781 18.214,11.806 18.185,11.834 18.154,11.867 
			18.126,11.901 18.101,11.939 18.08,11.979 18.059,12.02 18.042,12.067 18.029,12.113 18.019,12.162 17.926,12.643 		"/>
		<polygon fill-rule="evenodd" clip-rule="evenodd" fill="#FFFFFF" points="23.469,11.381 23.438,11.365 23.408,11.351 
			23.376,11.334 23.341,11.318 23.306,11.304 23.267,11.29 23.227,11.276 23.185,11.263 23.141,11.251 23.097,11.242 23.048,11.232 
			22.999,11.225 22.946,11.22 22.892,11.216 22.837,11.216 22.779,11.216 22.721,11.216 22.66,11.22 22.598,11.228 22.532,11.239 
			22.467,11.258 22.402,11.283 22.338,11.316 22.272,11.358 22.209,11.409 22.149,11.469 22.091,11.544 22.035,11.63 21.984,11.732 
			21.935,11.848 21.891,11.979 21.854,12.127 21.84,12.21 21.83,12.292 21.826,12.373 21.828,12.452 21.835,12.531 21.851,12.606 
			21.872,12.675 21.898,12.745 21.933,12.808 21.975,12.868 22.024,12.922 22.079,12.971 22.142,13.012 22.214,13.047 
			22.293,13.077 22.382,13.098 22.412,13.105 22.446,13.112 22.488,13.117 22.535,13.122 22.586,13.126 22.639,13.126 
			22.698,13.126 22.756,13.122 22.816,13.114 22.876,13.103 22.934,13.087 22.992,13.068 23.05,13.042 23.104,13.012 23.153,12.975 
			23.199,12.933 23.095,13.554 23.081,13.566 23.066,13.58 23.048,13.596 23.027,13.609 23.002,13.628 22.969,13.644 22.932,13.661 
			22.89,13.674 22.837,13.691 22.776,13.703 22.706,13.712 22.625,13.721 22.535,13.726 22.43,13.728 22.312,13.726 22.181,13.719 
			22.074,13.707 21.967,13.684 21.86,13.649 21.754,13.603 21.652,13.547 21.554,13.477 21.461,13.396 21.375,13.303 21.298,13.198 
			21.233,13.082 21.178,12.952 21.136,12.81 21.108,12.655 21.099,12.489 21.103,12.308 21.129,12.115 21.148,12.02 21.169,11.927 
			21.191,11.837 21.215,11.751 21.24,11.669 21.27,11.588 21.301,11.511 21.333,11.439 21.368,11.367 21.403,11.3 21.442,11.235 
			21.484,11.174 21.526,11.116 21.572,11.06 21.619,11.009 21.668,10.961 21.721,10.914 21.775,10.87 21.83,10.83 21.889,10.793 
			21.951,10.758 22.014,10.728 22.079,10.7 22.147,10.674 22.219,10.651 22.29,10.633 22.365,10.616 22.444,10.603 22.523,10.591 
			22.607,10.582 22.69,10.577 22.779,10.574 22.853,10.577 22.925,10.582 22.995,10.589 23.065,10.598 23.13,10.607 23.193,10.621 
			23.252,10.633 23.309,10.647 23.362,10.661 23.408,10.674 23.453,10.689 23.49,10.702 23.522,10.714 23.55,10.723 23.571,10.733 
			23.585,10.738 23.469,11.381 23.469,11.381 		"/>
		<polyline fill="none" stroke="#FFFFFF" stroke-width="0.216" stroke-miterlimit="2.6131" points="23.469,11.381 23.469,11.381 
			23.438,11.365 23.408,11.351 23.376,11.334 23.341,11.318 23.306,11.304 23.267,11.29 23.227,11.276 23.185,11.263 23.141,11.251 
			23.097,11.242 23.048,11.232 22.999,11.225 22.946,11.22 22.892,11.216 22.837,11.216 22.779,11.216 22.779,11.216 22.721,11.216 
			22.66,11.22 22.598,11.228 22.532,11.239 22.467,11.258 22.402,11.283 22.338,11.316 22.272,11.358 22.209,11.409 22.149,11.469 
			22.091,11.544 22.035,11.63 21.984,11.732 21.935,11.848 21.891,11.979 21.854,12.127 21.854,12.127 21.84,12.21 21.83,12.292 
			21.826,12.373 21.828,12.452 21.835,12.531 21.851,12.606 21.872,12.675 21.898,12.745 21.933,12.808 21.975,12.868 
			22.024,12.922 22.079,12.971 22.142,13.012 22.214,13.047 22.293,13.077 22.382,13.098 22.382,13.098 22.412,13.105 
			22.446,13.112 22.488,13.117 22.535,13.122 22.586,13.126 22.639,13.126 22.698,13.126 22.756,13.122 22.816,13.114 
			22.876,13.103 22.934,13.087 22.992,13.068 23.05,13.042 23.104,13.012 23.153,12.975 23.199,12.933 23.095,13.554 23.095,13.554 
			23.081,13.566 23.066,13.58 23.048,13.596 23.027,13.609 23.002,13.628 22.969,13.644 22.932,13.661 22.89,13.674 22.837,13.691 
			22.776,13.703 22.706,13.712 22.625,13.721 22.535,13.726 22.43,13.728 22.312,13.726 22.181,13.719 22.181,13.719 22.074,13.707 
			21.967,13.684 21.86,13.649 21.754,13.603 21.652,13.547 21.554,13.477 21.461,13.396 21.375,13.303 21.298,13.198 21.233,13.082 
			21.178,12.952 21.136,12.81 21.108,12.655 21.099,12.489 21.103,12.308 21.129,12.115 21.129,12.115 21.148,12.02 21.169,11.927 
			21.191,11.837 21.215,11.751 21.24,11.669 21.27,11.588 21.301,11.511 21.333,11.439 21.368,11.367 21.403,11.3 21.442,11.235 
			21.484,11.174 21.526,11.116 21.572,11.06 21.619,11.009 21.668,10.961 21.721,10.914 21.775,10.87 21.83,10.83 21.889,10.793 
			21.951,10.758 22.014,10.728 22.079,10.7 22.147,10.674 22.219,10.651 22.29,10.633 22.365,10.616 22.444,10.603 22.523,10.591 
			22.607,10.582 22.69,10.577 22.779,10.574 22.779,10.574 22.853,10.577 22.925,10.582 22.995,10.589 23.065,10.598 23.13,10.607 
			23.193,10.621 23.252,10.633 23.309,10.647 23.362,10.661 23.408,10.674 23.453,10.689 23.49,10.702 23.522,10.714 23.55,10.723 
			23.571,10.733 23.585,10.738 23.469,11.381 		"/>
		<polygon fill-rule="evenodd" clip-rule="evenodd" fill="#FFFFFF" points="29.19,13.73 28.547,13.73 28.593,13.473 28.593,13.449 
			28.556,13.496 28.517,13.537 28.477,13.575 28.435,13.608 28.393,13.638 28.351,13.663 28.309,13.684 28.265,13.705 
			28.221,13.721 28.177,13.733 28.133,13.744 28.086,13.751 28.04,13.758 27.995,13.763 27.949,13.765 27.903,13.765 27.782,13.756 
			27.671,13.73 27.568,13.691 27.475,13.638 27.391,13.57 27.317,13.491 27.252,13.405 27.196,13.308 27.15,13.203 27.113,13.094 
			27.087,12.98 27.069,12.861 27.062,12.743 27.064,12.622 27.076,12.504 27.097,12.385 27.131,12.248 27.174,12.118 27.222,11.999 
			27.28,11.888 27.341,11.783 27.41,11.69 27.482,11.607 27.559,11.53 27.64,11.462 27.726,11.404 27.815,11.353 27.903,11.314 
			27.995,11.281 28.089,11.26 28.182,11.246 28.277,11.242 28.345,11.244 28.409,11.251 28.47,11.263 28.526,11.279 28.579,11.298 
			28.626,11.318 28.672,11.344 28.714,11.37 28.751,11.397 28.786,11.428 28.816,11.458 28.844,11.488 28.867,11.518 28.889,11.548 
			28.907,11.576 28.921,11.604 28.921,11.604 29.084,10.691 29.716,10.691 29.19,13.73 29.19,13.73 		"/>
		<polyline fill="none" stroke="#FFFFFF" stroke-width="0.216" stroke-miterlimit="2.6131" points="29.19,13.73 28.547,13.73 
			28.593,13.473 28.593,13.449 28.593,13.449 28.556,13.496 28.517,13.537 28.477,13.575 28.435,13.608 28.393,13.638 
			28.351,13.663 28.309,13.684 28.265,13.705 28.221,13.721 28.177,13.733 28.133,13.744 28.086,13.751 28.04,13.758 27.995,13.763 
			27.949,13.765 27.903,13.765 27.903,13.765 27.782,13.756 27.671,13.73 27.568,13.691 27.475,13.638 27.391,13.57 27.317,13.491 
			27.252,13.405 27.196,13.308 27.15,13.203 27.113,13.094 27.087,12.98 27.069,12.861 27.062,12.743 27.064,12.622 27.076,12.504 
			27.097,12.385 27.097,12.385 27.131,12.248 27.174,12.118 27.222,11.999 27.28,11.888 27.341,11.783 27.41,11.69 27.482,11.607 
			27.559,11.53 27.64,11.462 27.726,11.404 27.815,11.353 27.903,11.314 27.995,11.281 28.089,11.26 28.182,11.246 28.277,11.242 
			28.277,11.242 28.345,11.244 28.409,11.251 28.47,11.263 28.526,11.279 28.579,11.298 28.626,11.318 28.672,11.344 28.714,11.37 
			28.751,11.397 28.786,11.428 28.816,11.458 28.844,11.488 28.867,11.518 28.889,11.548 28.907,11.576 28.921,11.604 
			28.921,11.604 29.084,10.691 29.716,10.691 29.19,13.73 		"/>
		<polygon fill-rule="evenodd" clip-rule="evenodd" fill="#FBB231" points="28.138,13.168 28.203,13.164 28.263,13.15 
			28.319,13.133 28.373,13.108 28.421,13.08 28.468,13.045 28.511,13.006 28.551,12.963 28.586,12.917 28.618,12.866 28.649,12.812 
			28.675,12.757 28.697,12.698 28.716,12.638 28.733,12.575 28.744,12.513 28.755,12.448 28.763,12.381 28.763,12.317 28.76,12.253 
			28.754,12.192 28.744,12.134 28.728,12.078 28.709,12.025 28.686,11.979 28.658,11.934 28.628,11.897 28.593,11.864 
			28.554,11.837 28.511,11.818 28.468,11.806 28.419,11.802 28.356,11.806 28.298,11.816 28.245,11.834 28.191,11.857 
			28.144,11.888 28.098,11.925 28.059,11.964 28.019,12.009 27.984,12.059 27.952,12.113 27.921,12.169 27.895,12.229 
			27.873,12.292 27.854,12.355 27.836,12.422 27.821,12.489 27.809,12.592 27.815,12.703 27.831,12.817 27.861,12.926 
			27.907,13.022 27.968,13.098 28.044,13.15 28.138,13.168 28.138,13.168 		"/>
		<polygon fill-rule="evenodd" clip-rule="evenodd" fill="#FFFFFF" points="13.866,13.215 13.773,13.73 13.188,13.73 13.204,13.635 
			13.216,13.549 13.225,13.484 13.234,13.449 13.202,13.486 13.164,13.524 13.121,13.559 13.072,13.591 13.016,13.624 
			12.958,13.651 12.897,13.679 12.835,13.703 12.767,13.723 12.7,13.74 12.633,13.754 12.563,13.763 12.495,13.768 12.428,13.77 
			12.363,13.763 12.3,13.754 12.218,13.733 12.144,13.709 12.079,13.679 12.021,13.644 11.97,13.608 11.924,13.566 11.887,13.521 
			11.854,13.475 11.826,13.426 11.803,13.375 11.784,13.324 11.771,13.273 11.761,13.219 11.754,13.166 11.749,13.114 
			11.749,13.063 11.756,12.973 11.771,12.887 11.793,12.806 11.824,12.726 11.861,12.652 11.903,12.585 11.952,12.52 12.007,12.462 
			12.065,12.408 12.131,12.359 12.198,12.315 12.267,12.278 12.342,12.246 12.419,12.22 12.498,12.199 12.579,12.185 12.584,12.185 
			12.595,12.183 12.611,12.18 12.637,12.178 12.665,12.173 12.697,12.171 12.732,12.166 12.772,12.162 12.812,12.157 12.851,12.153 
			12.893,12.15 12.93,12.146 12.967,12.143 13.002,12.141 13.034,12.139 13.06,12.139 13.114,12.139 13.17,12.141 13.221,12.143 
			13.271,12.143 13.313,12.146 13.346,12.148 13.369,12.15 13.376,12.15 13.381,12.134 13.395,12.092 13.407,12.043 13.411,11.999 
			13.402,11.948 13.381,11.901 13.353,11.86 13.316,11.825 13.271,11.795 13.223,11.774 13.167,11.76 13.106,11.755 13.041,11.753 
			12.971,11.751 12.9,11.751 12.825,11.753 12.749,11.758 12.674,11.764 12.6,11.771 12.528,11.781 12.458,11.79 12.391,11.802 
			12.33,11.813 12.275,11.825 12.223,11.839 12.182,11.853 12.149,11.869 12.123,11.883 12.288,11.323 12.34,11.302 12.391,11.283 
			12.447,11.267 12.502,11.255 12.558,11.244 12.618,11.235 12.679,11.225 12.742,11.22 12.807,11.216 12.874,11.214 12.944,11.211 
			13.016,11.211 13.09,11.211 13.167,11.211 13.248,11.214 13.329,11.216 13.395,11.22 13.465,11.232 13.537,11.249 13.61,11.27 
			13.682,11.298 13.753,11.33 13.822,11.37 13.887,11.413 13.945,11.465 13.997,11.521 14.043,11.583 14.078,11.653 14.101,11.728 
			14.115,11.806 14.115,11.895 14.101,11.988 13.866,13.215 13.866,13.215 		"/>
		<polyline fill="none" stroke="#FFFFFF" stroke-width="0.216" stroke-miterlimit="2.6131" points="13.866,13.215 13.773,13.73 
			13.188,13.73 13.188,13.73 13.204,13.635 13.216,13.549 13.225,13.484 13.234,13.449 13.234,13.449 13.202,13.486 13.164,13.524 
			13.121,13.559 13.072,13.591 13.016,13.624 12.958,13.651 12.897,13.679 12.835,13.703 12.767,13.723 12.7,13.74 12.633,13.754 
			12.563,13.763 12.495,13.768 12.428,13.77 12.363,13.763 12.3,13.754 12.3,13.754 12.218,13.733 12.144,13.709 12.079,13.679 
			12.021,13.644 11.97,13.608 11.924,13.566 11.887,13.521 11.854,13.475 11.826,13.426 11.803,13.375 11.784,13.324 11.771,13.273 
			11.761,13.219 11.754,13.166 11.749,13.114 11.749,13.063 11.749,13.063 11.756,12.973 11.771,12.887 11.793,12.806 
			11.824,12.726 11.861,12.652 11.903,12.585 11.952,12.52 12.007,12.462 12.065,12.408 12.131,12.359 12.198,12.315 12.267,12.278 
			12.342,12.246 12.419,12.22 12.498,12.199 12.579,12.185 12.579,12.185 12.584,12.185 12.595,12.183 12.611,12.18 12.637,12.178 
			12.665,12.173 12.697,12.171 12.732,12.166 12.772,12.162 12.812,12.157 12.851,12.153 12.893,12.15 12.93,12.146 12.967,12.143 
			13.002,12.141 13.034,12.139 13.06,12.139 13.06,12.139 13.114,12.139 13.17,12.141 13.221,12.143 13.271,12.143 13.313,12.146 
			13.346,12.148 13.369,12.15 13.376,12.15 13.376,12.15 13.381,12.134 13.395,12.092 13.407,12.043 13.411,11.999 13.411,11.999 
			13.402,11.948 13.381,11.901 13.353,11.86 13.316,11.825 13.271,11.795 13.223,11.774 13.167,11.76 13.106,11.755 13.106,11.755 
			13.041,11.753 12.971,11.751 12.9,11.751 12.825,11.753 12.749,11.758 12.674,11.764 12.6,11.771 12.528,11.781 12.458,11.79 
			12.391,11.802 12.33,11.813 12.275,11.825 12.223,11.839 12.182,11.853 12.149,11.869 12.123,11.883 12.288,11.323 12.288,11.323 
			12.34,11.302 12.391,11.283 12.447,11.267 12.502,11.255 12.558,11.244 12.618,11.235 12.679,11.225 12.742,11.22 12.807,11.216 
			12.874,11.214 12.944,11.211 13.016,11.211 13.09,11.211 13.167,11.211 13.248,11.214 13.329,11.216 13.329,11.216 13.395,11.22 
			13.465,11.232 13.537,11.249 13.61,11.27 13.682,11.298 13.753,11.33 13.822,11.37 13.887,11.413 13.945,11.465 13.997,11.521 
			14.043,11.583 14.078,11.653 14.101,11.728 14.115,11.806 14.115,11.895 14.101,11.988 13.866,13.215 		"/>
		<polygon fill-rule="evenodd" clip-rule="evenodd" fill="#EC1C2E" points="13.307,12.608 13.304,12.596 13.295,12.585 
			13.281,12.578 13.258,12.573 13.232,12.569 13.202,12.566 13.167,12.566 13.132,12.566 13.094,12.569 13.055,12.573 
			13.018,12.578 12.981,12.583 12.946,12.587 12.913,12.594 12.886,12.601 12.86,12.608 12.844,12.613 12.825,12.62 12.8,12.629 
			12.774,12.64 12.744,12.655 12.714,12.671 12.681,12.687 12.651,12.706 12.618,12.729 12.589,12.752 12.56,12.78 12.535,12.808 
			12.511,12.838 12.495,12.871 12.481,12.908 12.474,12.945 12.472,13.024 12.484,13.087 12.507,13.133 12.537,13.168 
			12.572,13.191 12.611,13.205 12.648,13.212 12.686,13.215 12.756,13.212 12.819,13.205 12.879,13.196 12.932,13.182 
			12.979,13.166 13.023,13.145 13.062,13.124 13.097,13.098 13.128,13.075 13.155,13.047 13.179,13.022 13.197,12.994 
			13.213,12.966 13.227,12.938 13.239,12.912 13.246,12.887 13.265,12.82 13.281,12.743 13.295,12.669 13.307,12.608 13.307,12.608 
					"/>
		<polygon fill-rule="evenodd" clip-rule="evenodd" fill="#FFFFFF" points="8.977,13.73 8.345,13.73 8.872,10.679 9.972,10.679 
			10.076,12.489 10.836,10.679 11.984,10.679 11.445,13.73 10.813,13.73 11.212,11.451 11.187,11.451 10.241,13.73 9.528,13.73 
			9.524,13.635 9.507,13.382 9.486,13.022 9.463,12.608 9.439,12.192 9.418,11.828 9.402,11.563 9.397,11.451 9.391,11.451 
			9.377,11.451 9.363,11.451 9.363,11.451 8.977,13.73 8.977,13.73 		"/>
		<polyline fill="none" stroke="#FFFFFF" stroke-width="0.216" stroke-miterlimit="2.6131" points="8.977,13.73 8.345,13.73 
			8.872,10.679 9.972,10.679 10.076,12.489 10.836,10.679 11.984,10.679 11.445,13.73 10.813,13.73 11.212,11.451 11.187,11.451 
			10.241,13.73 9.528,13.73 9.528,13.73 9.524,13.635 9.507,13.382 9.486,13.022 9.463,12.608 9.439,12.192 9.418,11.828 
			9.402,11.563 9.397,11.451 9.397,11.451 9.391,11.451 9.377,11.451 9.363,11.451 9.363,11.451 8.977,13.73 		"/>
		<polygon fill-rule="evenodd" clip-rule="evenodd" fill="#FFFFFF" points="25.4,13.215 25.305,13.73 24.722,13.73 24.726,13.635 
			24.729,13.552 24.729,13.489 24.734,13.461 24.703,13.496 24.668,13.531 24.626,13.563 24.58,13.596 24.531,13.626 24.475,13.654 
			24.417,13.682 24.359,13.705 24.296,13.723 24.231,13.742 24.166,13.754 24.101,13.763 24.033,13.768 23.969,13.77 23.905,13.763 
			23.843,13.754 23.759,13.733 23.685,13.709 23.62,13.679 23.56,13.644 23.508,13.608 23.464,13.566 23.427,13.521 23.394,13.475 
			23.367,13.426 23.346,13.375 23.327,13.324 23.316,13.273 23.306,13.219 23.299,13.166 23.294,13.114 23.294,13.063 
			23.299,12.973 23.313,12.887 23.334,12.806 23.364,12.726 23.399,12.652 23.444,12.585 23.492,12.52 23.545,12.462 23.606,12.408 
			23.669,12.359 23.736,12.315 23.808,12.278 23.88,12.246 23.957,12.22 24.033,12.199 24.112,12.185 24.117,12.185 24.129,12.183 
			24.145,12.18 24.168,12.178 24.198,12.173 24.231,12.171 24.266,12.166 24.303,12.162 24.342,12.157 24.384,12.153 24.424,12.15 
			24.464,12.146 24.501,12.143 24.533,12.141 24.565,12.139 24.591,12.139 24.647,12.139 24.703,12.141 24.756,12.143 
			24.808,12.143 24.851,12.146 24.889,12.148 24.91,12.15 24.919,12.15 24.924,12.134 24.931,12.092 24.937,12.043 24.942,11.999 
			24.933,11.948 24.915,11.901 24.884,11.86 24.849,11.825 24.808,11.795 24.759,11.774 24.707,11.76 24.652,11.755 24.586,11.753 
			24.517,11.751 24.445,11.751 24.371,11.753 24.293,11.758 24.219,11.764 24.145,11.771 24.073,11.781 24.003,11.79 23.936,11.802 
			23.876,11.813 23.82,11.825 23.768,11.839 23.727,11.853 23.694,11.869 23.669,11.883 23.832,11.323 23.883,11.302 23.936,11.283 
			23.989,11.267 24.045,11.255 24.103,11.244 24.161,11.235 24.222,11.225 24.284,11.22 24.35,11.216 24.417,11.214 24.484,11.211 
			24.556,11.211 24.628,11.211 24.703,11.211 24.782,11.214 24.861,11.216 24.926,11.22 24.996,11.232 25.068,11.249 25.143,11.27 
			25.214,11.298 25.286,11.33 25.356,11.37 25.421,11.413 25.479,11.465 25.533,11.521 25.579,11.583 25.614,11.653 25.639,11.728 
			25.656,11.806 25.656,11.895 25.644,11.988 25.4,13.215 25.4,13.215 		"/>
		<polygon fill-rule="evenodd" clip-rule="evenodd" fill="#FFFFFF" points="25.305,13.747 25.319,13.733 25.414,13.217 
			25.386,13.212 25.291,13.728 25.305,13.714 25.305,13.747 25.317,13.744 25.319,13.733 25.305,13.747 25.305,13.747 		"/>
		<polygon fill-rule="evenodd" clip-rule="evenodd" fill="#FFFFFF" points="24.707,13.73 24.722,13.747 25.305,13.747 
			25.305,13.714 24.722,13.714 24.735,13.73 24.707,13.73 24.705,13.747 24.722,13.747 24.707,13.73 24.707,13.73 		"/>
		<polygon fill-rule="evenodd" clip-rule="evenodd" fill="#FFFFFF" points="24.745,13.47 24.724,13.452 24.714,13.489 
			24.712,13.552 24.712,13.635 24.707,13.73 24.735,13.73 24.74,13.635 24.745,13.552 24.742,13.489 24.742,13.47 24.722,13.452 
			24.745,13.47 24.745,13.47 		"/>
		<polygon fill-rule="evenodd" clip-rule="evenodd" fill="#FFFFFF" points="23.841,13.768 23.841,13.768 23.905,13.777 
			23.969,13.784 24.033,13.782 24.101,13.777 24.168,13.768 24.234,13.756 24.298,13.738 24.363,13.719 24.421,13.696 
			24.482,13.668 24.537,13.64 24.586,13.608 24.635,13.575 24.677,13.542 24.714,13.505 24.745,13.47 24.722,13.452 24.691,13.486 
			24.659,13.519 24.617,13.552 24.573,13.584 24.524,13.612 24.468,13.64 24.412,13.668 24.354,13.691 24.293,13.709 24.229,13.728 
			24.164,13.74 24.101,13.749 24.033,13.754 23.969,13.756 23.905,13.749 23.845,13.74 23.845,13.74 23.841,13.768 23.841,13.768 		
			"/>
		<polygon fill-rule="evenodd" clip-rule="evenodd" fill="#FFFFFF" points="23.278,13.063 23.278,13.063 23.281,13.114 
			23.285,13.166 23.292,13.222 23.301,13.275 23.313,13.326 23.332,13.38 23.353,13.433 23.383,13.482 23.416,13.531 23.453,13.575 
			23.499,13.619 23.553,13.656 23.613,13.693 23.681,13.723 23.756,13.747 23.841,13.768 23.845,13.74 23.762,13.719 23.69,13.696 
			23.627,13.666 23.566,13.633 23.517,13.596 23.475,13.556 23.438,13.512 23.406,13.468 23.381,13.419 23.359,13.37 23.341,13.322 
			23.33,13.27 23.32,13.217 23.313,13.166 23.309,13.114 23.311,13.063 23.311,13.063 23.278,13.063 23.278,13.063 		"/>
		<polygon fill-rule="evenodd" clip-rule="evenodd" fill="#FFFFFF" points="24.112,12.171 24.112,12.171 24.032,12.185 
			23.953,12.206 23.876,12.231 23.801,12.264 23.729,12.301 23.659,12.348 23.597,12.397 23.536,12.452 23.48,12.51 23.432,12.575 
			23.385,12.645 23.35,12.722 23.32,12.801 23.299,12.884 23.285,12.973 23.278,13.063 23.311,13.063 23.313,12.973 23.327,12.889 
			23.348,12.81 23.378,12.731 23.413,12.659 23.455,12.594 23.504,12.529 23.555,12.471 23.615,12.42 23.678,12.371 23.743,12.329 
			23.815,12.292 23.884,12.26 23.962,12.234 24.036,12.213 24.112,12.199 24.112,12.199 24.112,12.171 24.112,12.171 		"/>
		<polygon fill-rule="evenodd" clip-rule="evenodd" fill="#FFFFFF" points="24.591,12.122 24.591,12.122 24.565,12.122 
			24.533,12.127 24.501,12.13 24.464,12.132 24.424,12.136 24.384,12.139 24.342,12.143 24.303,12.148 24.266,12.153 24.231,12.157 
			24.198,12.159 24.168,12.164 24.145,12.166 24.127,12.169 24.117,12.171 24.112,12.171 24.112,12.199 24.117,12.199 
			24.131,12.197 24.145,12.195 24.168,12.192 24.198,12.188 24.231,12.185 24.266,12.18 24.303,12.176 24.342,12.171 24.384,12.166 
			24.424,12.164 24.464,12.159 24.501,12.157 24.533,12.155 24.565,12.155 24.591,12.155 24.591,12.155 24.591,12.122 
			24.591,12.122 		"/>
		<polygon fill-rule="evenodd" clip-rule="evenodd" fill="#FFFFFF" points="24.905,12.148 24.919,12.136 24.91,12.136 
			24.889,12.134 24.851,12.132 24.808,12.127 24.756,12.127 24.703,12.127 24.647,12.122 24.591,12.122 24.591,12.155 
			24.647,12.155 24.703,12.155 24.756,12.159 24.808,12.159 24.851,12.159 24.889,12.162 24.91,12.164 24.919,12.164 24.933,12.153 
			24.919,12.164 24.931,12.166 24.933,12.153 24.905,12.148 24.905,12.148 		"/>
		<polygon fill-rule="evenodd" clip-rule="evenodd" fill="#FFFFFF" points="24.928,11.999 24.926,11.999 24.924,12.043 
			24.916,12.09 24.91,12.132 24.905,12.148 24.933,12.153 24.937,12.136 24.945,12.094 24.952,12.043 24.959,11.999 24.956,11.999 
			24.928,11.999 24.928,11.999 		"/>
		<polygon fill-rule="evenodd" clip-rule="evenodd" fill="#FFFFFF" points="24.652,11.769 24.652,11.771 24.705,11.774 
			24.754,11.788 24.8,11.809 24.84,11.837 24.872,11.869 24.9,11.908 24.919,11.95 24.928,11.999 24.956,11.999 24.947,11.946 
			24.928,11.895 24.896,11.851 24.858,11.813 24.814,11.781 24.763,11.76 24.71,11.746 24.652,11.739 24.652,11.741 24.652,11.769 
			24.652,11.769 		"/>
		<polygon fill-rule="evenodd" clip-rule="evenodd" fill="#FFFFFF" points="23.655,11.881 23.678,11.895 23.701,11.883 
			23.731,11.867 23.771,11.853 23.822,11.839 23.878,11.828 23.938,11.816 24.006,11.804 24.073,11.795 24.145,11.785 
			24.219,11.778 24.293,11.771 24.371,11.767 24.445,11.767 24.517,11.767 24.586,11.767 24.652,11.769 24.652,11.741 
			24.586,11.739 24.517,11.734 24.445,11.734 24.371,11.739 24.293,11.743 24.219,11.751 24.145,11.758 24.073,11.767 
			24.001,11.776 23.933,11.788 23.873,11.799 23.817,11.811 23.767,11.825 23.722,11.839 23.687,11.855 23.659,11.871 
			23.683,11.885 23.655,11.881 23.655,11.881 		"/>
		<polygon fill-rule="evenodd" clip-rule="evenodd" fill="#FFFFFF" points="23.827,11.309 23.817,11.321 23.655,11.881 
			23.683,11.885 23.845,11.325 23.836,11.337 23.827,11.309 23.82,11.311 23.817,11.321 23.827,11.309 23.827,11.309 		"/>
		<polygon fill-rule="evenodd" clip-rule="evenodd" fill="#FFFFFF" points="24.861,11.202 24.861,11.202 24.782,11.198 
			24.703,11.195 24.628,11.195 24.556,11.195 24.484,11.195 24.417,11.2 24.35,11.202 24.284,11.207 24.222,11.211 24.159,11.22 
			24.101,11.23 24.043,11.242 23.987,11.253 23.931,11.27 23.878,11.288 23.827,11.309 23.836,11.337 23.887,11.316 23.941,11.298 
			23.991,11.281 24.048,11.27 24.106,11.258 24.164,11.249 24.222,11.239 24.284,11.235 24.35,11.23 24.417,11.228 24.484,11.228 
			24.556,11.228 24.628,11.228 24.703,11.228 24.782,11.23 24.861,11.23 24.861,11.23 24.861,11.202 24.861,11.202 		"/>
		<polygon fill-rule="evenodd" clip-rule="evenodd" fill="#FFFFFF" points="25.658,11.99 25.658,11.99 25.67,11.895 25.67,11.806 
			25.654,11.725 25.628,11.648 25.591,11.576 25.544,11.511 25.488,11.453 25.43,11.402 25.363,11.358 25.293,11.316 25.219,11.283 
			25.147,11.255 25.07,11.235 24.998,11.218 24.926,11.207 24.861,11.202 24.861,11.23 24.926,11.235 24.993,11.246 25.065,11.263 
			25.138,11.283 25.209,11.311 25.279,11.344 25.349,11.381 25.412,11.425 25.47,11.476 25.52,11.53 25.567,11.59 25.6,11.658 
			25.626,11.73 25.642,11.806 25.642,11.895 25.63,11.985 25.63,11.985 25.658,11.99 25.658,11.99 		"/>
		<polygon fill-rule="evenodd" clip-rule="evenodd" fill="#FFFFFF" points="25.414,13.217 25.414,13.217 25.658,11.99 25.63,11.985 
			25.386,13.212 25.386,13.212 25.414,13.217 25.414,13.217 		"/>
		<polygon fill-rule="evenodd" clip-rule="evenodd" fill="#FBB231" points="24.838,12.608 24.833,12.594 24.824,12.583 
			24.808,12.575 24.784,12.569 24.759,12.566 24.729,12.564 24.693,12.564 24.659,12.566 24.621,12.571 24.585,12.575 24.548,12.58 
			24.512,12.585 24.478,12.592 24.447,12.596 24.417,12.603 24.394,12.608 24.378,12.61 24.359,12.617 24.336,12.624 24.31,12.634 
			24.28,12.647 24.252,12.662 24.219,12.678 24.189,12.698 24.159,12.72 24.129,12.745 24.103,12.77 24.078,12.801 24.057,12.833 
			24.041,12.868 24.027,12.906 24.02,12.945 24.017,13.024 24.029,13.087 24.048,13.133 24.075,13.168 24.11,13.191 24.15,13.205 
			24.189,13.212 24.229,13.215 24.298,13.212 24.363,13.205 24.424,13.193 24.478,13.177 24.528,13.159 24.573,13.138 
			24.615,13.114 24.652,13.087 24.684,13.061 24.712,13.031 24.738,13.003 24.759,12.973 24.775,12.945 24.786,12.917 
			24.796,12.889 24.803,12.864 24.812,12.798 24.824,12.731 24.833,12.666 24.838,12.608 24.838,12.608 		"/>
		<polygon fill-rule="evenodd" clip-rule="evenodd" fill="#FFFFFF" points="29.625,13.412 29.63,13.359 29.648,13.296 29.681,13.24 
			29.72,13.191 29.769,13.152 29.824,13.124 29.885,13.105 29.95,13.098 30.016,13.105 30.076,13.124 30.132,13.152 30.18,13.191 
			30.22,13.24 30.252,13.296 30.271,13.359 30.276,13.412 30.206,13.412 30.204,13.37 30.19,13.319 30.166,13.273 30.136,13.233 
			30.099,13.2 30.055,13.177 30.004,13.161 29.95,13.156 29.897,13.161 29.846,13.177 29.801,13.2 29.764,13.233 29.734,13.273 
			29.711,13.319 29.697,13.37 29.692,13.412 29.625,13.412 29.625,13.412 		"/>
		<polygon fill-rule="evenodd" clip-rule="evenodd" fill="#FFFFFF" points="29.834,13.412 29.834,13.273 29.962,13.273 
			29.99,13.275 30.016,13.28 30.034,13.287 30.05,13.296 30.062,13.31 30.071,13.324 30.076,13.34 30.078,13.356 30.076,13.377 
			30.071,13.393 30.064,13.408 30.059,13.412 29.962,13.412 29.971,13.41 29.987,13.408 30.001,13.403 30.013,13.398 30.022,13.391 
			30.027,13.384 30.032,13.373 30.032,13.356 30.029,13.345 30.025,13.335 30.017,13.331 30.01,13.326 29.999,13.324 29.987,13.322 
			29.976,13.322 29.962,13.322 29.892,13.322 29.892,13.412 29.834,13.412 29.834,13.412 		"/>
		<polygon fill-rule="evenodd" clip-rule="evenodd" fill="#FFFFFF" points="29.625,13.412 29.623,13.426 29.63,13.493 
			29.648,13.556 29.681,13.612 29.72,13.658 29.769,13.698 29.824,13.728 29.885,13.747 29.95,13.754 30.016,13.747 30.076,13.728 
			30.132,13.698 30.18,13.658 30.22,13.612 30.252,13.556 30.271,13.493 30.278,13.426 30.276,13.412 30.206,13.412 30.208,13.426 
			30.204,13.482 30.19,13.533 30.166,13.577 30.136,13.616 30.099,13.649 30.055,13.674 30.004,13.691 29.95,13.696 29.897,13.691 
			29.846,13.674 29.801,13.649 29.764,13.616 29.734,13.577 29.711,13.533 29.697,13.482 29.692,13.426 29.692,13.412 
			29.625,13.412 29.625,13.412 		"/>
		<polygon fill-rule="evenodd" clip-rule="evenodd" fill="#FFFFFF" points="29.834,13.412 29.834,13.554 29.892,13.554 
			29.892,13.438 29.95,13.438 30.02,13.554 30.066,13.554 29.997,13.438 30.013,13.438 30.029,13.433 30.043,13.428 30.055,13.419 
			30.059,13.412 29.962,13.412 29.95,13.415 29.892,13.415 29.892,13.412 29.834,13.412 29.834,13.412 		"/>
		<path fill="none" stroke="#FFFFFF" stroke-width="0.216" stroke-miterlimit="2.6131" d="M29.623,13.426L29.623,13.426l0.007-0.067
			l0.019-0.063l0.033-0.056l0.039-0.049l0.048-0.039l0.056-0.028l0.06-0.019l0.065-0.007l0,0l0.066,0.007l0.06,0.019l0.056,0.028
			l0.048,0.039l0.039,0.049l0.032,0.056l0.019,0.063l0.007,0.067l0,0l-0.007,0.067l-0.019,0.063l-0.032,0.056l-0.039,0.047
			l-0.048,0.039l-0.056,0.031l-0.06,0.018l-0.066,0.007l0,0l-0.065-0.007l-0.06-0.018l-0.056-0.031l-0.048-0.039l-0.039-0.047
			l-0.033-0.056l-0.019-0.063L29.623,13.426 M29.892,13.554h-0.058v-0.281h0.128l0,0l0.028,0.002l0.026,0.005l0.018,0.007
			l0.017,0.009l0.011,0.014l0.009,0.014l0.005,0.016l0.002,0.016l0,0l-0.002,0.021l-0.005,0.016l-0.007,0.014l-0.009,0.012
			l-0.012,0.009l-0.014,0.005l-0.016,0.005h-0.017l0.069,0.116H30.02l-0.07-0.116h-0.058V13.554 M29.95,13.415L29.95,13.415
			l0.021-0.005l0.016-0.002l0.014-0.005l0.012-0.005l0.009-0.007l0.005-0.007l0.005-0.011v-0.016l0,0l-0.003-0.012l-0.004-0.009
			l-0.008-0.004l-0.007-0.005l-0.011-0.002l-0.012-0.002h-0.011h-0.014h-0.07v0.093H29.95 M29.95,13.696L29.95,13.696l0.054-0.005
			l0.051-0.016l0.044-0.025l0.037-0.033l0.03-0.039l0.023-0.044l0.014-0.051l0.005-0.056l0,0l-0.005-0.056l-0.014-0.051
			l-0.023-0.046l-0.03-0.04L30.099,13.2l-0.044-0.023l-0.051-0.016l-0.054-0.005l0,0l-0.053,0.005l-0.051,0.016L29.801,13.2
			l-0.037,0.032l-0.03,0.04l-0.023,0.046l-0.014,0.051l-0.005,0.056l0,0l0.005,0.056l0.014,0.051l0.023,0.044l0.03,0.039
			l0.037,0.033l0.045,0.025l0.051,0.016L29.95,13.696"/>
		<polygon fill-rule="evenodd" clip-rule="evenodd" fill="#FFFFFF" points="25.574,13.73 26.23,13.73 26.23,13.73 26.465,12.408 
			26.474,12.357 26.487,12.306 26.502,12.255 26.52,12.204 26.544,12.153 26.571,12.104 26.602,12.057 26.639,12.013 26.68,11.974 
			26.727,11.936 26.78,11.901 26.841,11.873 26.908,11.851 26.982,11.832 27.064,11.818 27.155,11.813 27.188,11.813 27.205,11.813 
			27.213,11.813 27.213,11.813 27.317,11.216 27.252,11.22 27.189,11.228 27.131,11.239 27.076,11.255 27.024,11.274 26.976,11.298 
			26.929,11.323 26.886,11.351 26.843,11.384 26.804,11.416 26.767,11.453 26.729,11.49 26.694,11.53 26.66,11.574 26.625,11.616 
			26.592,11.662 26.662,11.242 26.009,11.242 25.574,13.73 25.574,13.73 25.574,13.73 		"/>
		<polyline fill="none" stroke="#FFFFFF" stroke-width="0.216" stroke-miterlimit="2.6131" points="25.574,13.73 26.23,13.73 
			26.23,13.73 26.465,12.408 26.465,12.408 26.474,12.357 26.487,12.306 26.502,12.255 26.52,12.204 26.544,12.153 26.571,12.104 
			26.602,12.057 26.639,12.013 26.68,11.974 26.727,11.936 26.78,11.901 26.841,11.873 26.908,11.851 26.982,11.832 27.064,11.818 
			27.155,11.813 27.155,11.813 27.188,11.813 27.205,11.813 27.213,11.813 27.213,11.813 27.317,11.216 27.317,11.216 27.252,11.22 
			27.189,11.228 27.131,11.239 27.076,11.255 27.024,11.274 26.976,11.298 26.929,11.323 26.886,11.351 26.843,11.384 
			26.804,11.416 26.767,11.453 26.729,11.49 26.694,11.53 26.66,11.574 26.625,11.616 26.592,11.662 26.662,11.242 26.009,11.242 
			25.574,13.73 25.574,13.73 		"/>
		<polygon fill-rule="evenodd" clip-rule="evenodd" fill="#FFFFFF" points="19.421,13.73 20.076,13.73 20.087,13.73 20.311,12.408 
			20.32,12.357 20.331,12.308 20.343,12.26 20.36,12.213 20.378,12.166 20.401,12.122 20.429,12.081 20.462,12.041 20.499,12.006 
			20.541,11.971 20.592,11.943 20.648,11.918 20.713,11.897 20.785,11.879 20.864,11.867 20.954,11.86 20.961,11.86 20.971,11.862 
			20.982,11.864 20.994,11.864 21.006,11.867 21.015,11.869 21.021,11.871 21.024,11.871 21.027,11.862 21.033,11.834 
			21.042,11.792 21.054,11.741 21.07,11.681 21.087,11.616 21.108,11.551 21.129,11.485 21.148,11.441 21.171,11.397 21.194,11.353 
			21.217,11.314 21.238,11.279 21.254,11.251 21.265,11.235 21.27,11.228 21.268,11.228 21.259,11.225 21.247,11.223 21.231,11.22 
			21.215,11.22 21.196,11.218 21.18,11.216 21.164,11.216 21.091,11.22 21.027,11.228 20.966,11.239 20.91,11.253 20.856,11.272 
			20.808,11.295 20.764,11.318 20.722,11.346 20.682,11.376 20.645,11.411 20.611,11.446 20.575,11.485 20.541,11.525 20.508,11.57 
			20.473,11.616 20.438,11.662 20.522,11.242 19.855,11.242 19.421,13.73 19.421,13.73 19.421,13.73 		"/>
		<polyline fill="none" stroke="#FFFFFF" stroke-width="0.216" stroke-miterlimit="2.6131" points="19.421,13.73 20.076,13.73 
			20.087,13.73 20.311,12.408 20.311,12.408 20.32,12.357 20.331,12.308 20.343,12.26 20.36,12.213 20.378,12.166 20.401,12.122 
			20.429,12.081 20.462,12.041 20.499,12.006 20.541,11.971 20.592,11.943 20.648,11.918 20.713,11.897 20.785,11.879 
			20.864,11.867 20.954,11.86 20.954,11.86 20.961,11.86 20.971,11.862 20.982,11.864 20.994,11.864 21.006,11.867 21.015,11.869 
			21.021,11.871 21.024,11.871 21.024,11.871 21.027,11.862 21.033,11.834 21.042,11.792 21.054,11.741 21.07,11.681 21.087,11.616 
			21.108,11.551 21.129,11.485 21.129,11.485 21.148,11.441 21.171,11.397 21.194,11.353 21.217,11.314 21.238,11.279 
			21.254,11.251 21.265,11.235 21.27,11.228 21.27,11.228 21.268,11.228 21.259,11.225 21.247,11.223 21.231,11.22 21.215,11.22 
			21.196,11.218 21.18,11.216 21.164,11.216 21.164,11.216 21.091,11.22 21.027,11.228 20.966,11.239 20.91,11.253 20.856,11.272 
			20.808,11.295 20.764,11.318 20.722,11.346 20.682,11.376 20.645,11.411 20.611,11.446 20.575,11.485 20.541,11.525 20.508,11.57 
			20.473,11.616 20.438,11.662 20.522,11.242 19.855,11.242 19.421,13.73 19.421,13.73 		"/>
		<polygon fill-rule="evenodd" clip-rule="evenodd" fill="#FBB231" points="29.63,16.175 29.63,16.166 29.648,16.106 29.681,16.052 
			29.72,16.006 29.769,15.969 29.824,15.94 29.885,15.924 29.95,15.917 30.016,15.924 30.076,15.94 30.132,15.969 30.18,16.006 
			30.22,16.052 30.252,16.106 30.271,16.166 30.271,16.175 30.204,16.175 30.19,16.127 30.166,16.082 30.136,16.043 30.099,16.01 
			30.055,15.985 30.004,15.969 29.95,15.964 29.897,15.969 29.846,15.985 29.801,16.01 29.764,16.043 29.734,16.082 29.711,16.127 
			29.697,16.175 29.63,16.175 29.63,16.175 		"/>
		<polygon fill-rule="evenodd" clip-rule="evenodd" fill="#FBB231" points="29.834,16.175 29.834,16.094 29.962,16.094 
			29.99,16.094 30.016,16.099 30.034,16.103 30.05,16.112 30.062,16.124 30.071,16.138 30.076,16.154 30.078,16.175 30.032,16.175 
			30.032,16.164 30.029,16.152 30.025,16.143 30.017,16.138 30.01,16.133 29.999,16.131 29.987,16.129 29.976,16.129 29.962,16.129 
			29.892,16.129 29.892,16.175 29.834,16.175 29.834,16.175 		"/>
		<polygon fill-rule="evenodd" clip-rule="evenodd" fill="#FBB231" points="29.623,16.226 29.63,16.175 29.697,16.175 
			29.697,16.177 29.692,16.226 29.623,16.226 29.623,16.226 		"/>
		<polygon fill-rule="evenodd" clip-rule="evenodd" fill="#FBB231" points="29.834,16.226 29.834,16.175 29.892,16.175 
			29.892,16.222 29.95,16.222 29.971,16.217 29.987,16.215 30.001,16.21 30.013,16.205 30.022,16.199 30.027,16.191 30.032,16.18 
			30.032,16.175 30.078,16.175 30.078,16.175 30.076,16.191 30.071,16.205 30.064,16.217 30.055,16.226 29.834,16.226 
			29.834,16.226 		"/>
		<polygon fill-rule="evenodd" clip-rule="evenodd" fill="#FBB231" points="30.208,16.226 30.204,16.177 30.204,16.175 
			30.271,16.175 30.278,16.226 30.208,16.226 30.208,16.226 		"/>
		<polygon fill-rule="evenodd" clip-rule="evenodd" fill="#FBB231" points="29.623,16.226 29.623,16.233 29.63,16.301 
			29.648,16.363 29.681,16.419 29.72,16.468 29.769,16.508 29.824,16.535 29.885,16.554 29.95,16.561 30.016,16.554 30.076,16.535 
			30.132,16.508 30.18,16.468 30.22,16.419 30.252,16.363 30.271,16.301 30.278,16.233 30.278,16.226 30.208,16.226 30.208,16.233 
			30.204,16.289 30.19,16.34 30.166,16.384 30.136,16.423 30.099,16.457 30.055,16.482 30.004,16.498 29.95,16.503 29.897,16.498 
			29.846,16.482 29.801,16.457 29.764,16.423 29.734,16.384 29.711,16.34 29.697,16.289 29.692,16.233 29.692,16.226 29.623,16.226 
			29.623,16.226 		"/>
		<polygon fill-rule="evenodd" clip-rule="evenodd" fill="#FBB231" points="29.834,16.226 29.834,16.361 29.892,16.361 
			29.892,16.245 29.95,16.245 30.02,16.361 30.066,16.361 29.997,16.245 30.013,16.245 30.029,16.24 30.043,16.236 30.055,16.226 
			30.055,16.226 29.834,16.226 29.834,16.226 		"/>
		<path fill-rule="evenodd" clip-rule="evenodd" fill="#FFFFFF" d="M19.493,11.983l-0.019-0.139l-0.032-0.123l-0.047-0.107
			l-0.058-0.093l-0.07-0.079l-0.077-0.065l-0.084-0.056l-0.09-0.042l-0.093-0.035l-0.096-0.023l-0.094-0.016l-0.096-0.009
			l-0.09-0.003l-0.188,0.01l-0.167,0.028l-0.151,0.042l-0.135,0.058l-0.117,0.07l-0.102,0.079l-0.09,0.088l-0.075,0.093
			l-0.065,0.098l-0.054,0.102l-0.041,0.1l-0.035,0.099l-0.026,0.098l-0.019,0.09l-0.014,0.086l-0.01,0.074l-0.011,0.19l0.007,0.172
			l0.026,0.156l0.039,0.137l0.056,0.123l0.067,0.107l0.079,0.095l0.091,0.079l0.097,0.068l0.105,0.058l0.109,0.045l0.114,0.035
			l0.117,0.028l0.116,0.016l0.116,0.012l0.114,0.002h0.077l0.072-0.002h0.063l0.06-0.003l0.054-0.004l0.048-0.005l0.047-0.005
			l0.042-0.007l0.039-0.007l0.037-0.009l0.038-0.012l0.035-0.011l0.035-0.014l0.037-0.014l0.038-0.019l0.037-0.018l0.093-0.572
			l-0.068,0.04l-0.065,0.037l-0.068,0.028l-0.065,0.025l-0.063,0.021l-0.065,0.014l-0.063,0.012l-0.063,0.009l-0.062,0.005
			l-0.061,0.002h-0.063l-0.06-0.002l-0.061-0.005l-0.06-0.007L18.408,13.2l-0.061-0.009L18.3,13.182l-0.046-0.016l-0.047-0.021
			l-0.041-0.026l-0.042-0.028l-0.037-0.035l-0.035-0.035l-0.033-0.04l-0.028-0.039l-0.025-0.044l-0.019-0.042l-0.017-0.044
			l-0.01-0.044l-0.004-0.044l0.002-0.039l0.005-0.03h1.507l0.012-0.142l0.035-0.196l0.016-0.177L19.493,11.983z M18.863,12.197
			h-0.849l0.001-0.002l-0.001,0l0.006-0.032l0.01-0.049l0.014-0.046l0.016-0.046l0.021-0.042l0.022-0.04l0.025-0.038l0.028-0.035
			l0.03-0.032l0.029-0.028l0.035-0.026l0.035-0.021l0.04-0.019l0.039-0.014l0.039-0.01l0.041-0.007l0.045-0.002l0.041,0.005
			l0.039,0.007l0.038,0.009l0.036,0.014l0.035,0.019l0.035,0.021l0.03,0.023l0.028,0.028l0.023,0.032l0.023,0.035l0.016,0.04
			l0.017,0.044l0.009,0.046l0.005,0.051l0.002,0.056L18.863,12.197z"/>
	</g>
</g>
</svg>
