<?xml version="1.0" encoding="utf-8"?>
<!-- Generator: Adobe Illustrator 17.0.0, SVG Export Plug-In . SVG Version: 6.00 Build 0)  -->
<!DOCTYPE svg PUBLIC "-//W3C//DTD SVG 1.1//EN" "http://www.w3.org/Graphics/SVG/1.1/DTD/svg11.dtd">
<svg version="1.1" id="Слой_1" xmlns="http://www.w3.org/2000/svg" xmlns:xlink="http://www.w3.org/1999/xlink" x="0px" y="0px"
	 width="14px" height="14px" viewBox="0 0 14 14" enable-background="new 0 0 14 14" xml:space="preserve">
<g>
	<g>
		<path fill="#FE1111" d="M10.656,1c0.27,0,0.499,0.094,0.687,0.283l1.374,1.374c0.189,0.189,0.283,0.418,0.283,0.687
			s-0.094,0.499-0.283,0.687L9.747,7l2.969,2.969c0.189,0.189,0.283,0.418,0.283,0.686c0,0.271-0.094,0.499-0.283,0.688
			l-1.374,1.374C11.154,12.906,10.925,13,10.656,13c-0.269,0-0.498-0.094-0.686-0.283L7,9.748l-2.969,2.969
			C3.842,12.906,3.613,13,3.343,13s-0.498-0.094-0.686-0.283l-1.374-1.374c-0.189-0.189-0.283-0.417-0.283-0.688
			c0-0.268,0.094-0.498,0.283-0.686L4.253,7L1.284,4.031C1.094,3.842,1.001,3.613,1.001,3.343s0.094-0.498,0.283-0.687l1.374-1.374
			C2.846,1.094,3.074,1,3.343,1s0.499,0.094,0.687,0.283L7,4.252l2.969-2.969C10.158,1.094,10.387,1,10.656,1 M10.656,0
			c-0.535,0-1.017,0.199-1.393,0.576L7,2.838L4.738,0.576C4.361,0.199,3.879,0,3.343,0C2.808,0,2.327,0.199,1.95,0.576L0.576,1.949
			C0.2,2.326,0.001,2.808,0.001,3.343c0,0.537,0.2,1.02,0.577,1.396L2.839,7L0.577,9.262C0.2,9.636,0.001,10.119,0.001,10.655
			c0,0.537,0.2,1.02,0.577,1.396l1.372,1.373C2.327,13.801,2.808,14,3.343,14c0.535,0,1.018-0.199,1.394-0.576L7,11.162l2.262,2.262
			C9.639,13.801,10.121,14,10.656,14c0.535,0,1.018-0.199,1.394-0.576l1.374-1.374c0.376-0.376,0.575-0.859,0.575-1.395
			c0-0.535-0.199-1.017-0.576-1.394L11.161,7l2.262-2.262c0.377-0.377,0.576-0.859,0.576-1.394c0-0.534-0.199-1.016-0.574-1.393
			L12.05,0.576C11.673,0.199,11.191,0,10.656,0L10.656,0z"/>
	</g>
</g>
</svg>
