<?xml version="1.0" encoding="utf-8"?>
<!-- Generator: Adobe Illustrator 17.0.0, SVG Export Plug-In . SVG Version: 6.00 Build 0)  -->
<!DOCTYPE svg PUBLIC "-//W3C//DTD SVG 1.1//EN" "http://www.w3.org/Graphics/SVG/1.1/DTD/svg11.dtd">
<svg version="1.1" id="Слой_1" xmlns="http://www.w3.org/2000/svg" xmlns:xlink="http://www.w3.org/1999/xlink" x="0px" y="0px"
	 width="38.4px" height="24px" viewBox="0 0 38.4 24" enable-background="new 0 0 38.4 24" xml:space="preserve">
<g>
	<path fill="#1C3663" d="M38.4,22.72c0,0.707-0.573,1.28-1.28,1.28H1.28C0.573,24,0,23.427,0,22.72V1.28C0,0.573,0.573,0,1.28,0
		h35.84c0.707,0,1.28,0.573,1.28,1.28V22.72z"/>
	<g>
		<path fill="#FFFFFF" d="M18.563,10.544c-0.136,0-0.316,0.111-0.401,0.245c0,0-0.916,1.571-1.006,1.727
			c-0.05,0.085-0.099,0.031-0.107,0c-0.007-0.038-0.283-1.717-0.283-1.717c-0.031-0.135-0.173-0.251-0.349-0.25l-0.571,0.001
			c-0.138,0-0.224,0.11-0.193,0.244c0,0,0.436,2.475,0.521,3.057c0.042,0.322-0.005,0.379-0.005,0.379l-0.566,0.987
			c-0.083,0.133-0.038,0.243,0.099,0.243l0.662,0c0.137,0,0.319-0.109,0.401-0.243l2.546-4.307c0,0,0.243-0.368,0.019-0.365
			C19.178,10.546,18.563,10.544,18.563,10.544"/>
		<path fill="#FFFFFF" d="M10.525,11.419c-0.193,0.141-0.46,0.212-0.807,0.212H9.562c-0.138,0-0.225-0.11-0.195-0.244l0.193-0.829
			c0.029-0.134,0.167-0.245,0.305-0.243l0.209-0.002c0.245,0,0.43,0.042,0.555,0.125c0.124,0.081,0.186,0.209,0.184,0.381
			C10.817,11.078,10.719,11.278,10.525,11.419 M11.905,10.141c-0.08-0.155-0.199-0.281-0.35-0.376
			C11.397,9.668,11.214,9.601,11,9.56c-0.215-0.038-0.466-0.057-0.755-0.06L8.911,9.502c-0.139,0.002-0.274,0.11-0.306,0.243
			l-0.899,3.912c-0.032,0.134,0.056,0.244,0.193,0.244h0.639c0.138,0,0.276-0.108,0.306-0.244l0.221-0.95
			c0.029-0.133,0.166-0.243,0.304-0.243h0.183c0.781-0.001,1.388-0.161,1.824-0.481c0.435-0.319,0.653-0.743,0.652-1.267
			C12.028,10.487,11.989,10.295,11.905,10.141"/>
		<path fill="#FFFFFF" d="M14.986,10.7c-0.243-0.135-0.622-0.204-1.141-0.204c-0.257,0-0.515,0.02-0.774,0.061
			c-0.191,0.029-0.209,0.034-0.328,0.06c-0.243,0.053-0.28,0.296-0.28,0.296l-0.078,0.321c-0.044,0.206,0.073,0.197,0.124,0.181
			c0.106-0.032,0.164-0.063,0.38-0.113c0.207-0.047,0.426-0.082,0.6-0.081c0.256,0,0.451,0.028,0.58,0.082
			c0.13,0.057,0.193,0.153,0.193,0.29c0.001,0.033,0.001,0.064-0.01,0.09c-0.011,0.026-0.031,0.05-0.093,0.058
			c-0.364,0.022-0.626,0.055-0.942,0.101c-0.312,0.044-0.584,0.119-0.811,0.223c-0.243,0.108-0.425,0.252-0.55,0.435
			c-0.123,0.183-0.184,0.406-0.184,0.667c0,0.248,0.089,0.449,0.261,0.606c0.174,0.155,0.4,0.231,0.674,0.231
			c0.171-0.001,0.305-0.014,0.401-0.038c0.095-0.024,0.199-0.058,0.308-0.105c0.082-0.034,0.17-0.084,0.264-0.146
			c0.093-0.062,0.158-0.106,0.241-0.161l0.002,0.005l-0.023,0.103c0,0.001-0.001,0.002-0.001,0.003l0.001,0.002
			c-0.027,0.124,0.047,0.227,0.17,0.239l0.002,0.002h0.011l0.001,0.001c0.081,0,0.361-0.001,0.492-0.001h0.091
			c0.006,0,0.007-0.002,0.009-0.003c0.126-0.016,0.245-0.117,0.274-0.24l0.467-2.015c0.01-0.047,0.019-0.102,0.024-0.165
			c0.006-0.064,0.013-0.116,0.011-0.154C15.351,11.047,15.228,10.836,14.986,10.7z M13.855,13.101
			c-0.08,0.05-0.163,0.093-0.251,0.129c-0.118,0.047-0.23,0.072-0.334,0.072c-0.158,0-0.281-0.022-0.364-0.07
			c-0.083-0.046-0.126-0.125-0.125-0.238c0-0.131,0.031-0.232,0.093-0.312c0.063-0.077,0.157-0.138,0.272-0.184
			c0.116-0.039,0.258-0.071,0.422-0.094c0.146-0.019,0.434-0.051,0.471-0.052c0.037,0,0.062-0.021,0.045,0.077
			c-0.007,0.043-0.09,0.385-0.129,0.54C13.945,13.015,13.884,13.083,13.855,13.101z"/>
		<path fill="#FFFFFF" d="M26.594,10.703c-0.242-0.135-0.622-0.204-1.141-0.204c-0.257,0-0.515,0.02-0.774,0.061
			c-0.191,0.029-0.21,0.034-0.328,0.059c-0.244,0.053-0.281,0.296-0.281,0.296l-0.078,0.321c-0.044,0.205,0.073,0.197,0.125,0.181
			c0.106-0.032,0.164-0.064,0.38-0.113c0.207-0.047,0.426-0.082,0.6-0.081c0.256,0,0.45,0.028,0.58,0.082
			c0.13,0.057,0.193,0.152,0.193,0.29c0.001,0.033,0.001,0.064-0.01,0.091c-0.011,0.025-0.031,0.05-0.092,0.058
			c-0.365,0.022-0.628,0.055-0.944,0.101c-0.311,0.044-0.584,0.119-0.811,0.223c-0.243,0.108-0.424,0.252-0.549,0.434
			c-0.122,0.184-0.183,0.406-0.184,0.668c0,0.247,0.089,0.449,0.261,0.606c0.174,0.155,0.4,0.231,0.674,0.231
			c0.171-0.001,0.305-0.014,0.401-0.038c0.094-0.024,0.199-0.058,0.308-0.105c0.081-0.034,0.17-0.084,0.263-0.146
			c0.093-0.062,0.158-0.106,0.241-0.161l0.003,0.005l-0.023,0.103c0,0.001-0.001,0.002-0.001,0.002l0.001,0.002
			c-0.027,0.124,0.048,0.227,0.17,0.24l0.002,0.002h0.01l0.001,0.001c0.082,0,0.361,0,0.492-0.001h0.091
			c0.006,0,0.007-0.002,0.008-0.003c0.126-0.015,0.246-0.117,0.274-0.24l0.466-2.014c0.011-0.047,0.02-0.102,0.025-0.165
			c0.006-0.064,0.013-0.116,0.011-0.154C26.959,11.05,26.837,10.839,26.594,10.703z M25.463,13.104
			c-0.079,0.05-0.163,0.093-0.251,0.13c-0.118,0.047-0.23,0.072-0.334,0.072c-0.158,0-0.282-0.023-0.364-0.071
			c-0.083-0.046-0.126-0.125-0.124-0.238c0-0.131,0.03-0.233,0.093-0.312c0.063-0.077,0.157-0.138,0.273-0.184
			c0.115-0.039,0.257-0.071,0.421-0.094c0.146-0.018,0.434-0.052,0.471-0.052c0.036,0,0.061-0.02,0.045,0.078
			c-0.008,0.043-0.091,0.384-0.129,0.539C25.554,13.018,25.492,13.086,25.463,13.104z"/>
		<path fill="#FFFFFF" d="M22.131,11.435c-0.192,0.139-0.46,0.209-0.806,0.209h-0.159c-0.138,0.001-0.227-0.11-0.194-0.243
			l0.191-0.83c0.029-0.132,0.169-0.243,0.304-0.242l0.21-0.001c0.246,0.001,0.429,0.042,0.555,0.124
			c0.124,0.083,0.185,0.211,0.186,0.381C22.42,11.093,22.324,11.293,22.131,11.435 M23.511,10.155c-0.08-0.155-0.2-0.28-0.352-0.377
			c-0.156-0.097-0.341-0.165-0.556-0.204c-0.212-0.037-0.464-0.059-0.752-0.059l-1.337,0c-0.138,0.002-0.273,0.111-0.305,0.244
			l-0.899,3.913c-0.033,0.133,0.056,0.244,0.191,0.243l0.642-0.001c0.136,0.001,0.274-0.109,0.307-0.242l0.217-0.949
			c0.03-0.133,0.169-0.245,0.307-0.243h0.182c0.782,0,1.39-0.161,1.824-0.481c0.434-0.322,0.652-0.744,0.652-1.268
			C23.631,10.502,23.592,10.309,23.511,10.155"/>
		<g>
			<g>
				<path fill="#FFFFFF" d="M28.993,9.791L28.991,9.79c0.029-0.132-0.056-0.242-0.192-0.242h-0.572c0,0,0,0-0.001,0l-0.001,0
					c-0.117,0-0.224,0.087-0.274,0.195c-0.008,0.018-0.027,0.029-0.032,0.048c0,0-0.012,0.056-0.033,0.151l-0.787,3.568
					c-0.019,0.084-0.033,0.144-0.037,0.158l0.002,0.003c-0.025,0.118,0.048,0.208,0.162,0.226l0.01,0.014h0.021h0.572h0.001
					c0.117,0,0.224-0.087,0.274-0.195c0.008-0.018,0.028-0.03,0.032-0.049L28.993,9.791z"/>
			</g>
		</g>
		<g>
			<path fill="#FFFFFF" d="M29.667,10.337c-0.02,0.005-0.041,0.01-0.065,0.013c-0.023,0.004-0.044,0.005-0.062,0.005
				c-0.063,0-0.112-0.017-0.145-0.051c-0.033-0.034-0.05-0.089-0.05-0.164V9.809h-0.071V9.72h0.071V9.542h0.105V9.72h0.216v0.088
				H29.45v0.283c0,0.033,0.001,0.058,0.002,0.076c0.002,0.019,0.007,0.036,0.016,0.052c0.008,0.015,0.019,0.026,0.033,0.033
				c0.015,0.007,0.036,0.01,0.066,0.01c0.017,0,0.035-0.003,0.054-0.008c0.018-0.005,0.031-0.009,0.039-0.013h0.006V10.337z"/>
			<path fill="#FFFFFF" d="M30.701,10.343h-0.105V9.988c0-0.026-0.001-0.052-0.004-0.077c-0.003-0.025-0.008-0.045-0.016-0.06
				c-0.009-0.016-0.021-0.028-0.037-0.036c-0.016-0.008-0.038-0.013-0.069-0.013c-0.029,0-0.059,0.007-0.089,0.022
				c-0.029,0.014-0.058,0.033-0.088,0.056c0.001,0.009,0.002,0.018,0.003,0.03c0.001,0.011,0.001,0.022,0.001,0.033v0.399h-0.105
				V9.988c0-0.027-0.001-0.054-0.004-0.078c-0.002-0.025-0.008-0.045-0.015-0.059c-0.01-0.016-0.021-0.028-0.037-0.036
				C30.123,9.807,30.1,9.803,30.07,9.803c-0.029,0-0.057,0.007-0.086,0.022c-0.029,0.014-0.057,0.032-0.086,0.054v0.465h-0.105V9.72
				h0.105v0.069c0.033-0.027,0.066-0.048,0.098-0.063c0.032-0.015,0.067-0.023,0.103-0.023c0.042,0,0.078,0.009,0.108,0.027
				c0.029,0.018,0.051,0.042,0.066,0.074c0.042-0.036,0.081-0.062,0.116-0.077c0.035-0.016,0.072-0.024,0.112-0.024
				c0.068,0,0.119,0.021,0.151,0.062c0.033,0.042,0.049,0.1,0.049,0.173V10.343z"/>
		</g>
	</g>
</g>
</svg>
