<?xml version="1.0" encoding="utf-8"?>
<!-- Generator: Adobe Illustrator 17.0.0, SVG Export Plug-In . SVG Version: 6.00 Build 0)  -->
<!DOCTYPE svg PUBLIC "-//W3C//DTD SVG 1.1//EN" "http://www.w3.org/Graphics/SVG/1.1/DTD/svg11.dtd">
<svg version="1.1" id="Слой_1" xmlns="http://www.w3.org/2000/svg" xmlns:xlink="http://www.w3.org/1999/xlink" x="0px" y="0px"
	 width="30px" height="28px" viewBox="0 0 30 28" enable-background="new 0 0 30 28" xml:space="preserve">
<g>
	<path fill="#0495D4" d="M22.438,1.752h1.752c1.417,0.038,2.503,0.249,3.259,0.632s1.278,0.804,1.565,1.264
		c0.383,0.517,0.608,1.115,0.675,1.795c0.067,0.68-0.024,1.393-0.273,2.139c-0.383,0.996-1.096,2.135-2.139,3.417
		s-1.986,2.25-2.829,2.901c-0.077,0.077-0.172,0.115-0.287,0.115s-0.215-0.053-0.302-0.158c-0.086-0.105-0.124-0.22-0.115-0.345
		c0.01-0.124,0.062-0.225,0.158-0.302c0.766-0.594,1.651-1.498,2.656-2.714c1.005-1.216,1.68-2.283,2.025-3.202
		c0.211-0.613,0.292-1.187,0.244-1.723s-0.225-1.015-0.531-1.436C27.569,3.14,26.2,2.642,24.19,2.642h-1.321v8.299
		c-0.249,2.968-1.402,5.284-3.461,6.95c-2.058,1.666-3.537,2.652-4.437,2.958C14.99,20.907,15,20.955,15,20.993v2.183
		c0,0.134-0.043,0.244-0.129,0.33c-0.086,0.086-0.191,0.129-0.316,0.129c-0.124,0-0.225-0.043-0.302-0.129
		c-0.077-0.086-0.115-0.196-0.115-0.33v-2.183c0-0.057,0.01-0.105,0.029-0.144c-0.823-0.325-2.149-1.321-3.977-2.987
		s-2.848-3.973-3.058-6.921V2.642H5.81c-2.01,0-3.379,0.498-4.107,1.493c-0.306,0.421-0.483,0.9-0.531,1.436s0.034,1.11,0.244,1.723
		C1.838,8.405,2.522,9.52,3.47,10.64s1.824,1.977,2.628,2.57c0.096,0.077,0.148,0.177,0.158,0.302
		c0.01,0.124-0.029,0.239-0.115,0.345c-0.086,0.105-0.187,0.158-0.302,0.158c-0.115,0-0.211-0.038-0.287-0.115
		c-0.862-0.651-1.795-1.565-2.8-2.743S1.024,8.788,0.584,7.582c-0.249-0.747-0.34-1.46-0.273-2.139s0.292-1.278,0.675-1.795
		c0.287-0.459,0.809-0.881,1.565-1.264S4.394,1.79,5.81,1.752h8.328C18.982,1.752,21.749,1.752,22.438,1.752z M22.438,0.89H7.562
		c-0.115,0-0.215-0.043-0.302-0.129S7.131,0.57,7.131,0.445s0.043-0.23,0.129-0.316S7.447,0,7.562,0h14.876
		c0.115,0,0.215,0.043,0.302,0.129c0.086,0.086,0.129,0.191,0.129,0.316s-0.043,0.23-0.129,0.316
		C22.653,0.847,22.553,0.89,22.438,0.89z M22.007,10.942V2.642H7.993v8.299c0.211,2.661,1.173,4.772,2.886,6.332
		s2.944,2.494,3.69,2.8c0.823-0.287,2.206-1.211,4.15-2.771C20.662,15.742,21.758,13.622,22.007,10.942z M9.745,24.496h9.621
		c0.517,0.019,0.938,0.196,1.264,0.531s0.488,0.761,0.488,1.278v1.264c0,0.115-0.043,0.215-0.129,0.302
		C20.902,27.957,20.801,28,20.686,28H8.452c-0.134,0-0.244-0.043-0.33-0.129c-0.086-0.086-0.129-0.187-0.129-0.302v-1.321
		c0.019-0.517,0.191-0.933,0.517-1.249C8.835,24.683,9.247,24.516,9.745,24.496z M20.255,26.306
		c-0.019-0.268-0.105-0.488-0.258-0.661s-0.364-0.258-0.632-0.258H9.745c-0.249,0-0.455,0.077-0.617,0.23
		c-0.163,0.153-0.244,0.364-0.244,0.632v0.89h11.372v-0.431C20.255,26.478,20.255,26.344,20.255,26.306z"/>
</g>
</svg>
