<?xml version="1.0" encoding="utf-8"?>
<!-- Generator: Adobe Illustrator 17.0.0, SVG Export Plug-In . SVG Version: 6.00 Build 0)  -->
<!DOCTYPE svg PUBLIC "-//W3C//DTD SVG 1.1//EN" "http://www.w3.org/Graphics/SVG/1.1/DTD/svg11.dtd">
<svg version="1.1" id="Слой_1" xmlns="http://www.w3.org/2000/svg" xmlns:xlink="http://www.w3.org/1999/xlink" x="0px" y="0px"
	 width="38.4px" height="24px" viewBox="0 0 38.4 24" enable-background="new 0 0 38.4 24" xml:space="preserve">
<path fill="#C92F92" d="M38.4,22.72c0,0.707-0.573,1.28-1.28,1.28H1.28C0.573,24,0,23.427,0,22.72V1.28C0,0.573,0.573,0,1.28,0
	h35.84c0.707,0,1.28,0.573,1.28,1.28V22.72z"/>
<g>
	<path fill="#FFFFFF" d="M20.702,9.748c0.864,1.327,0.489,3.104-0.839,3.969c-1.327,0.865-3.104,0.49-3.969-0.838l0.824-0.554
		c0.561,0.862,1.716,1.106,2.578,0.544c0.862-0.561,1.106-1.715,0.544-2.577L20.702,9.748z"/>
	<path d="M22.62,8.53c-0.866-1.327-2.643-1.699-3.97-0.834c-1.326,0.866-1.699,2.644-0.834,3.97l0.839-0.532
		c-0.562-0.861-0.32-2.015,0.541-2.578c0.862-0.563,2.016-0.32,2.578,0.541L22.62,8.53z"/>
	<path fill="#FFFFFF" d="M13.752,10.592c0-3.008,2.439-5.447,5.447-5.447c3.009,0,5.447,2.439,5.447,5.447
		c0,3.009-2.438,5.447-5.447,5.447C16.191,16.039,13.752,13.601,13.752,10.592z M19.199,15.658c2.798,0,5.066-2.269,5.066-5.066
		s-2.268-5.066-5.066-5.066c-2.798,0-5.066,2.268-5.066,5.066S16.401,15.658,19.199,15.658z"/>
	<path fill="#FFFFFF" d="M19.826,17.198h0.349l-0.288,1.29h0.938l-0.066,0.291h-1.286L19.826,17.198z"/>
	<path fill="#FFFFFF" d="M15.9,18.297c0.07,0.134,0.355,0.298,0.636,0.289c0.297-0.009,0.403-0.094,0.423-0.236
		c0.008-0.056,0.03-0.185-0.216-0.214l-0.401-0.044c-0.425-0.056-0.493-0.228-0.483-0.44c0.013-0.291,0.377-0.515,0.767-0.52
		c0.344-0.005,0.636,0.071,0.772,0.257l-0.242,0.146c-0.2-0.158-0.38-0.17-0.594-0.157c-0.149,0.01-0.351,0.069-0.382,0.214
		c-0.022,0.102-0.016,0.166,0.199,0.191l0.506,0.066c0.233,0.027,0.428,0.246,0.41,0.434c-0.028,0.274-0.267,0.598-0.839,0.57
		c-0.438-0.021-0.695-0.192-0.813-0.406L15.9,18.297z"/>
	<path fill="#FFFFFF" d="M17.59,17.981c0.068-0.476,0.51-0.863,0.986-0.863c0.477,0,0.808,0.387,0.74,0.863
		c-0.068,0.477-0.509,0.864-0.987,0.864C17.853,18.845,17.521,18.458,17.59,17.981z M18.372,18.542c0.31,0,0.597-0.251,0.642-0.561
		c0.044-0.309-0.171-0.561-0.481-0.561c-0.31,0-0.596,0.252-0.64,0.561C17.848,18.291,18.062,18.542,18.372,18.542z"/>
	<path fill="#FFFFFF" d="M21.029,17.981c0.068-0.476,0.509-0.863,0.986-0.863c0.477,0,0.808,0.387,0.74,0.863
		c-0.068,0.477-0.509,0.864-0.986,0.864C21.293,18.845,20.961,18.458,21.029,17.981z M21.812,18.542c0.31,0,0.597-0.251,0.641-0.561
		c0.045-0.309-0.171-0.561-0.481-0.561c-0.31,0-0.597,0.252-0.641,0.561C21.287,18.291,21.502,18.542,21.812,18.542z"/>
</g>
</svg>
