<?xml version="1.0" encoding="utf-8"?>
<!-- Generator: Adobe Illustrator 17.0.0, SVG Export Plug-In . SVG Version: 6.00 Build 0)  -->
<!DOCTYPE svg PUBLIC "-//W3C//DTD SVG 1.1//EN" "http://www.w3.org/Graphics/SVG/1.1/DTD/svg11.dtd">
<svg version="1.1" id="Слой_1" xmlns="http://www.w3.org/2000/svg" xmlns:xlink="http://www.w3.org/1999/xlink" x="0px" y="0px"
	 width="15px" height="14px" viewBox="0 0 15 14" enable-background="new 0 0 15 14" xml:space="preserve">
<g>
	<g>
		<path fill="#F1C411" d="M7.5,1c0.152,0,0.275,0.103,0.371,0.31L9.572,4.75l3.796,0.551c0.282,0.046,0.423,0.162,0.423,0.348
			c0,0.11-0.065,0.232-0.196,0.363L10.85,8.689l0.65,3.781c0.005,0.035,0.008,0.086,0.008,0.151c0,0.106-0.026,0.196-0.079,0.269
			C11.376,12.964,11.298,13,11.198,13c-0.096,0-0.197-0.03-0.303-0.09L7.5,11.124L4.105,12.91C3.994,12.97,3.893,13,3.803,13
			c-0.106,0-0.185-0.036-0.238-0.109c-0.053-0.073-0.079-0.163-0.079-0.269c0-0.03,0.005-0.081,0.015-0.151L4.15,8.689L1.398,6.013
			C1.272,5.877,1.209,5.756,1.209,5.65c0-0.186,0.141-0.302,0.423-0.348L5.429,4.75L7.129,1.31C7.225,1.103,7.349,1,7.5,1 M7.5,0
			C7.24,0,6.594,0.087,6.222,0.89L4.765,3.836L1.489,4.312C0.539,4.468,0.209,5.13,0.209,5.65c0,0.367,0.154,0.718,0.457,1.044
			l2.41,2.344l-0.561,3.262c-0.024,0.166-0.029,0.263-0.029,0.321c0,0.317,0.094,0.614,0.271,0.857C2.996,13.81,3.378,14,3.803,14
			c0.26,0,0.522-0.071,0.781-0.212L7.5,12.254l2.93,1.541C10.656,13.925,10.925,14,11.198,14c0.42,0,0.798-0.19,1.039-0.521
			c0.177-0.244,0.271-0.54,0.271-0.857c0-0.125-0.008-0.223-0.017-0.291l-0.566-3.293l2.368-2.309
			c0.334-0.333,0.498-0.693,0.498-1.079c0-0.52-0.33-1.182-1.262-1.335l-3.294-0.479l-1.469-2.97C8.406,0.087,7.76,0,7.5,0L7.5,0z"
			/>
	</g>
</g>
</svg>
