<?xml version="1.0" encoding="utf-8"?>
<!-- Generator: Adobe Illustrator 17.0.0, SVG Export Plug-In . SVG Version: 6.00 Build 0)  -->
<!DOCTYPE svg PUBLIC "-//W3C//DTD SVG 1.1//EN" "http://www.w3.org/Graphics/SVG/1.1/DTD/svg11.dtd">
<svg version="1.1" id="Слой_1" xmlns="http://www.w3.org/2000/svg" xmlns:xlink="http://www.w3.org/1999/xlink" x="0px" y="0px"
	 width="17px" height="14px" viewBox="0 0 17 14" enable-background="new 0 0 17 14" xml:space="preserve">
<g>
	<g>
		<g>
			<path fill="#323A45" d="M15.318,1c0.148,0,0.276,0.053,0.383,0.162c0.108,0.108,0.162,0.236,0.162,0.384v8.726
				c0,0.086-0.011,0.162-0.034,0.226c-0.023,0.066-0.061,0.118-0.115,0.158c-0.054,0.04-0.101,0.072-0.14,0.098
				c-0.04,0.025-0.107,0.042-0.201,0.051c-0.093,0.009-0.157,0.014-0.191,0.017c-0.017,0.001-0.044,0.002-0.08,0.002
				s-0.082-0.001-0.137-0.002c-0.111-0.004-0.175-0.005-0.191-0.005c0,0.603-0.213,1.117-0.639,1.542
				c-0.426,0.426-0.94,0.64-1.542,0.64c-0.603,0-1.117-0.214-1.543-0.64c-0.426-0.425-0.639-0.94-0.639-1.542H7.137
				c0,0.603-0.213,1.117-0.639,1.542C6.071,12.786,5.557,13,4.955,13c-0.603,0-1.117-0.214-1.543-0.64
				c-0.426-0.425-0.639-0.94-0.639-1.542H2.227c-0.017,0-0.081,0.001-0.191,0.005c-0.056,0.001-0.101,0.002-0.138,0.002
				s-0.063-0.001-0.08-0.002c-0.034-0.004-0.098-0.009-0.192-0.017c-0.094-0.009-0.16-0.026-0.2-0.051
				c-0.04-0.026-0.087-0.058-0.14-0.098c-0.054-0.04-0.093-0.092-0.115-0.158c-0.023-0.065-0.034-0.14-0.034-0.226
				c0-0.147,0.053-0.275,0.162-0.383c0.108-0.108,0.236-0.162,0.383-0.162V6.999c0-0.045-0.001-0.144-0.004-0.298
				c-0.003-0.153-0.003-0.261,0-0.323c0.002-0.063,0.009-0.16,0.021-0.295C1.71,5.95,1.729,5.845,1.754,5.768
				C1.78,5.692,1.82,5.605,1.874,5.508c0.054-0.096,0.118-0.181,0.192-0.255l1.687-1.688c0.108-0.108,0.252-0.199,0.431-0.273
				c0.179-0.073,0.345-0.111,0.498-0.111h1.363V1.546c0-0.148,0.054-0.276,0.162-0.384C6.315,1.053,6.443,1,6.591,1H15.318
				 M2.773,6.454h3.273V4.273H4.699c-0.074,0-0.136,0.026-0.187,0.077L2.849,6.011C2.798,6.062,2.773,6.124,2.773,6.199V6.454
				 M12.591,11.909c0.295,0,0.551-0.108,0.767-0.324c0.216-0.215,0.324-0.471,0.324-0.767c0-0.295-0.108-0.551-0.324-0.767
				c-0.216-0.216-0.472-0.323-0.767-0.323c-0.296,0-0.551,0.107-0.767,0.323c-0.216,0.216-0.324,0.472-0.324,0.767
				c0,0.296,0.108,0.552,0.324,0.767C12.04,11.801,12.295,11.909,12.591,11.909 M4.955,11.909c0.295,0,0.551-0.108,0.767-0.324
				c0.216-0.215,0.324-0.471,0.324-0.767c0-0.295-0.108-0.551-0.324-0.767C5.505,9.834,5.25,9.727,4.955,9.727
				c-0.296,0-0.551,0.107-0.767,0.323c-0.216,0.216-0.324,0.472-0.324,0.767c0,0.296,0.108,0.552,0.324,0.767
				C4.403,11.801,4.659,11.909,4.955,11.909 M15.318,0H6.591c-0.412,0-0.8,0.162-1.093,0.456C5.203,0.752,5.045,1.13,5.045,1.546
				v0.636H4.682c-0.282,0-0.577,0.062-0.878,0.185C3.499,2.494,3.245,2.658,3.046,2.858L1.358,4.546
				C1.224,4.68,1.103,4.839,1.003,5.016C0.916,5.172,0.852,5.312,0.806,5.449C0.754,5.608,0.72,5.786,0.702,6
				C0.689,6.152,0.681,6.265,0.679,6.339C0.675,6.404,0.674,6.535,0.678,6.721l0.004,0.278v2.098
				C0.651,9.125,0.62,9.153,0.591,9.182c-0.293,0.293-0.454,0.68-0.454,1.09c0,0.201,0.031,0.39,0.092,0.561
				c0.083,0.245,0.245,0.467,0.465,0.628c0.067,0.05,0.131,0.094,0.184,0.129c0.195,0.122,0.404,0.187,0.657,0.211l0.115,0.01
				l0.061,0.006c0.069,0.006,0.119,0.008,0.188,0.008l0.033,0c0.152,0.462,0.413,0.883,0.774,1.244C3.315,13.677,4.093,14,4.955,14
				c0.861,0,1.639-0.323,2.25-0.933c0.363-0.362,0.624-0.785,0.776-1.25h1.584c0.152,0.465,0.413,0.887,0.776,1.25
				c0.61,0.61,1.388,0.932,2.25,0.932c0.861,0,1.639-0.323,2.25-0.933c0.373-0.372,0.639-0.808,0.789-1.288
				c0.181-0.033,0.338-0.091,0.474-0.177c0.071-0.046,0.132-0.089,0.203-0.141c0.216-0.159,0.377-0.378,0.467-0.634
				c0.059-0.166,0.09-0.355,0.09-0.556V1.546c0-0.416-0.157-0.793-0.455-1.091C16.118,0.162,15.73,0,15.318,0L15.318,0z"/>
		</g>
	</g>
	<rect x="4.537" y="10.32" fill="#323A45" width="0.857" height="0.964"/>
	<rect x="12.171" y="10.32" fill="#323A45" width="0.83" height="0.964"/>
	<rect x="4.35" y="4.936" fill="#323A45" width="1.045" height="0.938"/>
</g>
</svg>
