<?xml version="1.0" encoding="utf-8"?>
<!-- Generator: Adobe Illustrator 17.0.0, SVG Export Plug-In . SVG Version: 6.00 Build 0)  -->
<!DOCTYPE svg PUBLIC "-//W3C//DTD SVG 1.1//EN" "http://www.w3.org/Graphics/SVG/1.1/DTD/svg11.dtd">
<svg version="1.1" id="Слой_1" xmlns="http://www.w3.org/2000/svg" xmlns:xlink="http://www.w3.org/1999/xlink" x="0px" y="0px"
	 width="38.4px" height="24px" viewBox="0 0 38.4 24" enable-background="new 0 0 38.4 24" xml:space="preserve">
<g>
	<path fill="#045EA0" d="M38.4,22.72c0,0.707-0.573,1.28-1.28,1.28H1.28C0.573,24,0,23.427,0,22.72V1.28C0,0.573,0.573,0,1.28,0
		h35.84c0.707,0,1.28,0.573,1.28,1.28V22.72z"/>
	<g>
		<path fill-rule="evenodd" clip-rule="evenodd" fill="#FAA929" d="M12.932,13.516c2.905-1.245,6.983-2.374,12.382-1.244
			l0.056-1.369c-5.697-0.622-9.784,1.192-12.438,2.478V13.516L12.932,13.516z"/>
		<polygon fill-rule="evenodd" clip-rule="evenodd" fill="#FFFFFF" points="7.687,14.523 10.425,14.523 10.425,15.348 8.723,15.348 
			8.712,16.11 10.408,16.11 10.408,16.9 8.706,16.9 8.713,17.662 10.39,17.662 10.39,18.487 7.688,18.487 7.687,14.523 		"/>
		<polygon fill-rule="evenodd" clip-rule="evenodd" fill="#FFFFFF" points="11.113,14.191 12.109,14.191 12.113,18.487 
			11.116,18.487 11.113,14.191 		"/>
		<path fill-rule="evenodd" clip-rule="evenodd" fill="#FFFFFF" d="M15.538,18.16c-0.338,0.287-0.853,0.43-1.312,0.43
			c-1.048,0-1.524-0.744-1.524-1.483c0-0.871,0.654-1.61,1.553-1.61c1.099,0,1.443,0.779,1.443,1.77h-1.999
			c0,0.223,0.143,0.601,0.693,0.601c0.35,0,0.544-0.103,0.813-0.286L15.538,18.16L15.538,18.16z M14.805,16.683
			c0-0.298-0.143-0.567-0.475-0.567c-0.315,0-0.556,0.281-0.619,0.567H14.805L14.805,16.683z"/>
		<path fill-rule="evenodd" clip-rule="evenodd" fill="#FFFFFF" d="M18.723,18.292c-0.275,0.172-0.727,0.298-1.06,0.298
			c-0.917,0-1.576-0.527-1.576-1.478c0-0.974,0.652-1.616,1.638-1.616c0.344,0,0.756,0.109,0.979,0.252l-0.321,0.653
			c-0.149-0.063-0.309-0.115-0.469-0.115c-0.499,0-0.831,0.298-0.831,0.774c0,0.412,0.321,0.739,0.744,0.739
			c0.189,0,0.378-0.086,0.538-0.166L18.723,18.292L18.723,18.292z"/>
		<path fill-rule="evenodd" clip-rule="evenodd" fill="#FFFFFF" d="M19.092,15.6h0.45l-0.004-0.98h0.963l-0.023,0.98h0.819
			l-0.017,0.721h-0.819c0,0.401-0.029,0.825-0.029,1.071c0,0.252,0.063,0.373,0.286,0.373c0.138,0,0.252-0.069,0.367-0.138
			l0.218,0.676c-0.292,0.177-0.647,0.286-0.985,0.286c-0.808,0-0.848-0.51-0.848-1.174c0-0.355,0.029-0.71,0.029-1.094h-0.429
			L19.092,15.6L19.092,15.6z"/>
		<path fill-rule="evenodd" clip-rule="evenodd" fill="#FFFFFF" d="M21.808,15.6h0.996v0.406h0.012
			c0.149-0.246,0.343-0.487,0.733-0.487c0.109,0,0.224,0.012,0.326,0.035l-0.132,0.985c-0.097-0.029-0.206-0.057-0.355-0.057
			c-0.332,0-0.591,0.28-0.591,0.338l-0.017,1.667h-0.997L21.808,15.6L21.808,15.6z"/>
		<path fill-rule="evenodd" clip-rule="evenodd" fill="#FFFFFF" d="M25.681,15.497c1.065,0,1.615,0.676,1.615,1.547
			c0,0.871-0.55,1.547-1.615,1.547c-1.066,0-1.616-0.676-1.616-1.547C24.065,16.173,24.615,15.497,25.681,15.497L25.681,15.497z
			 M25.681,17.834c0.475,0,0.618-0.413,0.618-0.791c0-0.378-0.143-0.791-0.618-0.791c-0.476,0-0.619,0.413-0.619,0.791
			C25.062,17.421,25.205,17.834,25.681,17.834L25.681,17.834z"/>
		<path fill-rule="evenodd" clip-rule="evenodd" fill="#FFFFFF" d="M27.838,15.6h0.996v0.315c0.229-0.223,0.579-0.418,0.934-0.418
			c0.612,0,0.945,0.338,0.945,1.128c0,0.59-0.005,1.226-0.011,1.862h-0.997c0.005-0.556,0.011-1.117,0.011-1.713
			c0-0.235-0.063-0.419-0.361-0.419c-0.161,0-0.39,0.138-0.521,0.263l-0.005,1.868h-1.015L27.838,15.6L27.838,15.6z"/>
		<polygon fill-rule="evenodd" clip-rule="evenodd" fill="#FFFFFF" points="15.885,9.653 17.145,5.501 18.269,5.501 17.009,9.653 
			15.885,9.653 		"/>
		<path fill-rule="evenodd" clip-rule="evenodd" fill="#FFFFFF" d="M15.384,5.502l-1.011,1.76c-0.257,0.461-0.408,0.694-0.48,0.986
			h-0.015c0.017-0.369-0.033-0.823-0.039-1.079l-0.112-1.667h-1.891l-0.02,0.112c0.486,0,0.774,0.244,0.853,0.743l0.368,3.296h1.165
			l2.353-4.151H15.384L15.384,5.502z"/>
		<path fill-rule="evenodd" clip-rule="evenodd" fill="#FFFFFF" d="M24.122,9.653L24.09,9.036l-1.403-0.001l-0.286,0.618h-1.22
			l2.211-4.144h1.498l0.374,4.144H24.122L24.122,9.653z M23.992,7.204C23.98,6.897,23.97,6.48,23.991,6.228h-0.017
			c-0.068,0.206-0.362,0.825-0.491,1.13l-0.419,0.91h0.985L23.992,7.204L23.992,7.204z"/>
		<path fill-rule="evenodd" clip-rule="evenodd" fill="#FFFFFF" d="M19.448,9.771c-0.793,0-1.32-0.252-1.695-0.476l0.535-0.817
			c0.337,0.189,0.602,0.406,1.211,0.406c0.197,0,0.385-0.051,0.492-0.236c0.157-0.27-0.035-0.415-0.475-0.664L19.3,7.842
			c-0.651-0.444-0.932-0.867-0.626-1.604c0.197-0.472,0.713-0.829,1.566-0.829c0.588,0,1.14,0.254,1.461,0.503l-0.615,0.722
			c-0.314-0.254-0.573-0.382-0.872-0.382c-0.236,0-0.416,0.092-0.478,0.215c-0.117,0.232,0.038,0.39,0.38,0.603l0.258,0.164
			c0.79,0.498,0.978,1.02,0.78,1.509C20.813,9.583,20.146,9.771,19.448,9.771L19.448,9.771z"/>
	</g>
</g>
</svg>
