<?xml version="1.0" encoding="utf-8"?>
<!-- Generator: Adobe Illustrator 17.0.0, SVG Export Plug-In . SVG Version: 6.00 Build 0)  -->
<!DOCTYPE svg PUBLIC "-//W3C//DTD SVG 1.1//EN" "http://www.w3.org/Graphics/SVG/1.1/DTD/svg11.dtd">
<svg version="1.1" id="Слой_1" xmlns="http://www.w3.org/2000/svg" xmlns:xlink="http://www.w3.org/1999/xlink" x="0px" y="0px"
	 width="38.4px" height="24px" viewBox="0 0 38.4 24" enable-background="new 0 0 38.4 24" xml:space="preserve">
<g>
	<path fill="#3957A7" d="M38.4,22.72c0,0.707-0.573,1.28-1.28,1.28H1.28C0.573,24,0,23.427,0,22.72V1.28C0,0.573,0.573,0,1.28,0
		h35.84c0.707,0,1.28,0.573,1.28,1.28V22.72z"/>
	<g>
		<polygon fill="#FFFFFF" points="17.671,15.605 15.795,15.605 16.968,8.4 18.844,8.4 		"/>
		<path fill="#FFFFFF" d="M14.217,8.4l-1.788,4.956l-0.212-1.067v0l-0.631-3.24c0,0-0.077-0.649-0.89-0.649H7.74L7.706,8.522
			c0,0,0.904,0.188,1.962,0.824l1.629,6.259h1.955L16.237,8.4H14.217z"/>
		<path fill="#FFFFFF" d="M28.972,15.605h1.722L29.193,8.4h-1.508c-0.697,0-0.866,0.537-0.866,0.537l-2.797,6.668h1.955l0.39-1.07
			h2.385L28.972,15.605z M26.908,13.057l0.985-2.697l0.555,2.697H26.908z"/>
		<path fill="#FFFFFF" d="M24.168,10.133l0.267-1.547c0,0-0.826-0.314-1.687-0.314c-0.931,0-3.142,0.407-3.142,2.385
			c0,1.862,2.595,1.885,2.595,2.862c0,0.977-2.328,0.803-3.096,0.186l-0.279,1.617c0,0,0.838,0.407,2.117,0.407
			c1.28,0,3.212-0.663,3.212-2.467c0-1.873-2.618-2.048-2.618-2.862C21.538,9.586,23.365,9.69,24.168,10.133z"/>
	</g>
	<path fill="#F9A533" d="M12.217,12.289l-0.631-3.24c0,0-0.077-0.649-0.89-0.649H7.74L7.706,8.522c0,0,1.421,0.295,2.783,1.398
		C11.792,10.974,12.217,12.289,12.217,12.289z"/>
</g>
</svg>
